<?xml version="1.0" encoding="utf-8"?>
<!-- Generator: Adobe Illustrator 22.1.0, SVG Export Plug-In . SVG Version: 6.00 Build 0)  -->
<svg version="1.1" id="Layer_1" xmlns="http://www.w3.org/2000/svg" xmlns:xlink="http://www.w3.org/1999/xlink" x="0px" y="0px"
	 viewBox="0 0 400 400" style="enable-background:new 0 0 400 400;" xml:space="preserve">
<style type="text/css">
	.st0{fill:#FFFFFF;}
	.st1{fill:#BCF975;}
	.st2{fill:#E4F9C7;}
	.st3{fill:#426325;}
	.st4{fill:#5F7A67;}
	.st5{fill:#649139;}
	.st6{fill:#97EFBB;}
	.st7{fill:none;stroke:#000000;stroke-width:0.375;stroke-linecap:round;stroke-linejoin:round;stroke-miterlimit:10;}
</style>
<g>
	<rect x="0.5" y="0.5" class="st0" width="399" height="399"/>
	<path d="M399,1v398H1V1H399 M400,0H0v400h400V0L400,0z"/>
</g>
<g id="XMLID_1_">
	<g>
		<polygon class="st1" points="380.4,314.3 381.6,312 383.3,310 385,308.1 387.1,306.4 389.3,305.1 391.6,304 394.2,303.2 
			396.7,302.7 399.3,302.5 400,302.5 400,400 302.5,400 302.5,399.4 302.6,396.7 303.2,394.2 303.9,391.7 305,389.3 306.4,387.1 
			308.1,385.1 309.9,383.3 312,381.7 314.2,380.4 316.6,379.4 319.1,378.6 321.8,378.2 326.9,378.2 332.1,378.6 337.2,379.3 
			342.4,380.4 347.4,381.9 352.2,383.7 354.9,384.7 357.8,385.5 360.7,385.9 363.5,386 366.5,385.7 369.4,385.1 372.1,384.2 
			374.8,383 377.2,381.4 379.5,379.6 381.4,377.3 382.9,374.8 384.2,372.1 385,369.4 385.7,366.5 386,363.6 385.9,360.7 
			385.5,357.8 384.7,355 383.7,352.3 381.8,347.4 380.4,342.4 379.3,337.3 378.5,332.1 378.2,327 378.2,321.8 378.6,319.2 
			379.4,316.6 		"/>
		<polygon class="st1" points="380.4,58.1 381.8,53.1 383.7,48.3 384.7,45.6 385.5,42.7 385.9,39.8 386,36.9 385.7,34 385,31.1 
			384.2,28.4 382.9,25.7 381.4,23.2 379.5,20.9 377.2,19.1 374.8,17.6 372.1,16.3 369.4,15.5 366.5,14.8 363.5,14.5 360.7,14.6 
			357.8,15 354.9,15.8 352.2,16.8 347.4,18.7 342.4,20.1 337.2,21.2 332.1,22 326.9,22.3 321.8,22.3 319.1,21.9 316.6,21.1 
			314.2,20.1 312,18.8 309.9,17.2 308.1,15.5 306.4,13.4 305,11.2 303.9,8.9 303.2,6.3 302.6,3.8 302.5,1.2 302.5,0.5 400,0.5 
			400,98 399.3,98 396.7,97.8 394.2,97.3 391.6,96.6 389.3,95.5 387.1,94.1 385,92.4 383.3,90.6 381.6,88.5 380.4,86.2 379.4,83.9 
			378.6,81.3 378.2,78.7 378.2,73.6 378.5,68.4 379.3,63.2 		"/>
		<polygon class="st2" points="381.6,312 380.4,314.3 379.4,316.6 378.6,319.2 378.2,321.8 378.2,327 378.5,332.1 379.3,337.3 
			380.4,342.4 381.8,347.4 383.7,352.3 384.7,355 385.5,357.8 385.9,360.7 386,363.6 385.7,366.5 385,369.4 384.2,372.1 
			382.9,374.8 381.4,377.3 379.5,379.6 377.2,381.4 374.8,383 372.1,384.2 369.4,385.1 366.5,385.7 363.5,386 360.7,385.9 
			357.8,385.5 354.9,384.7 352.2,383.7 347.4,381.9 342.4,380.4 337.2,379.3 332.1,378.6 326.9,378.2 321.8,378.2 319.1,378.6 
			316.6,379.4 314.2,380.4 312,381.7 309.9,383.3 308.1,385.1 306.4,387.1 305,389.3 303.9,391.7 303.2,394.2 302.6,396.7 
			302.5,399.4 302.5,400 219.2,400 219.2,400 220.9,392.8 223.1,385.6 225.5,378.5 228.2,371.5 231.3,364.7 234.6,357.9 
			238.1,351.3 242,344.9 246.1,338.6 250.5,332.5 255.2,326.7 260.1,321 265.3,315.5 265.9,315.1 266.8,315 267.5,315.1 
			272.6,317.4 277.9,319.3 283.2,321 288.6,322.3 294.1,323.3 299.6,324 305.2,324.4 310.8,324.4 316.3,324.2 321.8,323.6 
			322.6,323.3 323.3,322.6 323.5,321.9 324.1,316.3 324.4,310.8 324.4,305.2 324,299.6 323.3,294.1 322.3,288.6 320.9,283.2 
			319.3,277.9 317.4,272.7 315.1,267.6 314.9,266.8 315.1,266 315.5,265.3 321,260.1 326.7,255.2 332.5,250.6 338.6,246.2 
			344.9,242 351.3,238.2 357.9,234.6 364.6,231.3 371.5,228.3 378.4,225.5 385.5,223.1 392.7,221 399.9,219.2 400,219.2 400,302.5 
			399.3,302.5 396.7,302.7 394.2,303.2 391.6,304 389.3,305.1 387.1,306.4 385,308.1 383.3,310 		"/>
		<polygon class="st2" points="381.8,53.1 380.4,58.1 379.3,63.2 378.5,68.4 378.2,73.6 378.2,78.7 378.6,81.3 379.4,83.9 
			380.4,86.2 381.6,88.5 383.3,90.6 385,92.4 387.1,94.1 389.3,95.5 391.6,96.6 394.2,97.3 396.7,97.8 399.3,98 400,98 400,181.3 
			399.9,181.3 392.7,179.5 385.5,177.4 378.4,175 371.5,172.3 364.6,169.2 357.9,165.9 351.3,162.4 344.9,158.5 338.6,154.3 
			332.5,149.9 326.7,145.3 321,140.4 315.5,135.2 315.1,134.5 314.9,133.7 315.1,132.9 317.4,127.9 319.3,122.6 320.9,117.3 
			322.3,111.9 323.3,106.4 324,100.9 324.4,95.3 324.4,89.7 324.1,84.2 323.5,78.6 323.3,77.9 322.6,77.2 321.8,76.9 316.3,76.3 
			310.8,76.1 305.2,76.1 299.6,76.5 294.1,77.2 288.6,78.2 283.2,79.6 277.9,81.2 272.6,83.1 267.5,85.4 266.8,85.6 265.9,85.4 
			265.3,85 260.1,79.5 255.2,73.8 250.5,68 246.1,61.9 242,55.6 238.1,49.2 234.6,42.6 231.3,35.8 228.2,29 225.5,22 223.1,14.9 
			220.9,7.8 219.2,0.6 219.2,0.5 302.5,0.5 302.5,1.2 302.6,3.8 303.2,6.3 303.9,8.9 305,11.2 306.4,13.4 308.1,15.5 309.9,17.2 
			312,18.8 314.2,20.1 316.6,21.1 319.1,21.9 321.8,22.3 326.9,22.3 332.1,22 337.2,21.2 342.4,20.1 347.4,18.7 352.2,16.8 
			354.9,15.8 357.8,15 360.7,14.6 363.5,14.5 366.5,14.8 369.4,15.5 372.1,16.3 374.8,17.6 377.2,19.1 379.5,20.9 381.4,23.2 
			382.9,25.7 384.2,28.4 385,31.1 385.7,34 386,36.9 385.9,39.8 385.5,42.7 384.7,45.6 383.7,48.3 		"/>
		<path class="st3" d="M174.2,158.1l6.9,3.4l0.8,0.3l0.8-0.1l0.6-0.3l0.5-0.5l0.3-0.8l1.7-8.1l1.9-8l2.3-8l2.6-8l2.9-7.8l3.2-7.7
			l0.5-0.5l0.8-0.3h0.7l0.8,0.3l0.5,0.5l3.2,7.7l2.9,7.8l2.6,8l2.3,8l1.9,8l1.7,8.1l0.3,0.8l0.5,0.5l0.6,0.3l0.8,0.1l0.8-0.3
			l6.9-3.4l7-3l7.2-2.6l7.3-2.2l0.8-0.1l0.8,0.3l0.6,0.6l0.3,0.8l-0.1,0.8L248,160l-2.6,7.2l-3,7l-3.4,6.9l-0.3,0.8l0.1,0.8l0.3,0.6
			l0.5,0.5l0.8,0.3l8.1,1.7l8,1.9l8,2.3l8,2.6l7.8,2.9l7.7,3.2l0.5,0.5l0.3,0.8v0.7l-0.3,0.8l-0.5,0.5l-7.7,3.2l-7.8,2.9l-8,2.6
			l-8,2.3l-8,1.9l-8.1,1.7l-0.8,0.3l-0.5,0.5l-0.3,0.6l-0.1,0.8l0.3,0.8l3.4,6.9l3,7l2.6,7.2l2.2,7.3l0.1,0.8l-0.3,0.8l-0.6,0.6
			l-0.8,0.3l-0.8-0.1l-7.3-2.2l-7.2-2.6l-7-3l-6.9-3.4l-0.8-0.3l-0.8,0.1l-0.6,0.3l-0.5,0.5l-0.3,0.8l-1.7,8.1l-1.9,8l-2.3,8l-2.6,8
			l-2.9,7.8l-3.2,7.7l-0.5,0.5l-0.8,0.3h-0.7l-0.8-0.3l-0.5-0.5l-3.2-7.7l-2.9-7.8l-2.6-8l-2.3-8l-1.9-8l-1.7-8.1l-0.3-0.8l-0.5-0.5
			l-0.6-0.3l-0.8-0.1L181,239l-6.9,3.4l-7,3L160,248l-7.3,2.2l-0.8,0.1l-0.8-0.3l-0.6-0.6l-0.3-0.8l0.1-0.8l2.2-7.3l2.6-7.2l3-7
			l3.4-6.9l0.3-0.8l-0.1-0.8l-0.3-0.6l-0.5-0.5l-0.8-0.3l-8.1-1.7l-8-1.9l-8-2.3l-8-2.6l-7.8-2.9l-7.7-3.2l-0.5-0.5l-0.3-0.8v-0.7
			l0.3-0.8l0.5-0.5l7.7-3.2l7.8-2.9l8-2.6l8-2.3l8-1.9l8.1-1.7l0.8-0.3l0.5-0.5l0.3-0.6l0.1-0.8l-0.3-0.8l-3.4-6.9l-3-7l-2.6-7.2
			l-2.2-7.3l-0.1-0.8l0.3-0.8l0.6-0.6l0.8-0.3l0.8,0.1l7.3,2.2l7.2,2.6L174.2,158.1z M210.2,217.6l2.2-1.5l1.9-1.7l1.7-1.9l1.5-2.2
			l1.1-2.4l0.8-2.5l0.5-2.5l0.2-2.6l-0.2-2.6l-0.5-2.5l-0.8-2.5l-1.1-2.4l-1.5-2.2l-1.7-1.9l-1.9-1.7l-2.2-1.5l-2.4-1.1l-2.5-0.8
			l-2.5-0.5l-2.6-0.2l-2.6,0.2l-2.5,0.5l-2.5,0.8l-2.4,1.1l-2.2,1.5l-1.9,1.7l-1.7,1.9l-1.5,2.2l-1.1,2.4l-0.8,2.5l-0.5,2.5
			l-0.2,2.6l0.2,2.6l0.5,2.5l0.8,2.5l1.1,2.4l1.5,2.2l1.7,1.9l1.9,1.7l2.2,1.5l2.4,1.1l2.5,0.8l2.5,0.5l2.6,0.2l2.6-0.2l2.5-0.5
			l2.5-0.8L210.2,217.6z"/>
		<polygon class="st4" points="212.4,216.1 210.2,217.6 207.8,218.7 205.4,219.5 202.8,220.1 200.2,220.2 197.6,220.1 195.1,219.5 
			192.6,218.7 190.2,217.6 188,216.1 186.1,214.4 184.4,212.4 182.9,210.2 181.8,207.9 180.9,205.4 180.4,202.9 180.3,200.3 
			180.4,197.6 180.9,195.1 181.8,192.6 182.9,190.3 184.4,188.1 186.1,186.1 188,184.4 190.2,182.9 192.6,181.8 195.1,181 
			197.6,180.5 200.2,180.3 202.8,180.5 205.4,181 207.8,181.8 210.2,182.9 212.4,184.4 214.3,186.1 216,188.1 217.6,190.3 
			218.7,192.6 219.5,195.1 220,197.6 220.2,200.3 220,202.9 219.5,205.4 218.7,207.9 217.6,210.2 216,212.4 214.3,214.4 		"/>
		<polygon class="st2" points="18.6,347.4 20.1,342.4 21.2,337.3 21.9,332.1 22.3,327 22.3,321.8 21.8,319.2 21.1,316.6 20.1,314.3 
			18.8,312 17.2,310 15.4,308.1 13.4,306.4 11.2,305.1 8.8,304 6.3,303.2 3.7,302.7 1.1,302.5 0.4,302.5 0.4,219.2 0.5,219.2 
			7.7,221 14.9,223.1 22,225.5 28.9,228.3 35.8,231.3 42.6,234.6 49.2,238.2 55.6,242 61.8,246.2 67.9,250.6 73.8,255.2 79.4,260.1 
			84.9,265.3 85.4,266 85.5,266.8 85.4,267.6 83.1,272.7 81.1,277.9 79.5,283.2 78.2,288.6 77.2,294.1 76.5,299.6 76.1,305.2 
			76.1,310.8 76.3,316.3 76.9,321.9 77.2,322.6 77.8,323.3 78.6,323.6 84.2,324.2 89.7,324.4 95.3,324.4 100.8,324 106.3,323.3 
			111.8,322.3 117.2,321 122.6,319.3 127.8,317.4 132.9,315.1 133.7,315 134.5,315.1 135.2,315.5 140.3,321 145.2,326.7 
			149.9,332.5 154.3,338.6 158.4,344.9 162.3,351.3 165.9,357.9 169.2,364.7 172.2,371.5 174.9,378.5 177.4,385.6 179.5,392.8 
			181.3,400 181.3,400 98,400 98,399.4 97.8,396.7 97.3,394.2 96.5,391.7 95.4,389.3 94.1,387.1 92.4,385.1 90.5,383.3 88.5,381.7 
			86.2,380.4 83.8,379.4 81.3,378.6 78.7,378.2 73.5,378.2 68.4,378.6 63.2,379.3 58,380.4 53,381.9 48.2,383.7 45.5,384.7 
			42.6,385.5 39.8,385.9 36.9,386 33.9,385.7 31.1,385.1 28.4,384.2 25.6,383 23.2,381.4 20.9,379.6 19,377.3 17.5,374.8 
			16.3,372.1 15.4,369.4 14.7,366.5 14.5,363.6 14.6,360.7 15,357.8 15.7,355 16.8,352.3 		"/>
		<path class="st5" d="M181.3,0.5h37.9v0.1l1.8,7.2l2.1,7.2l2.5,7.1l2.7,6.9l3,6.9l3.3,6.8l3.6,6.6l3.9,6.4l4.1,6.3l4.4,6.1l4.7,5.8
			l4.9,5.7l5.2,5.5l0.7,0.4l0.8,0.2l0.8-0.2l5.1-2.3l5.2-1.9l5.3-1.6l5.4-1.4l5.5-1l5.5-0.7l5.6-0.4h5.6l5.5,0.3l5.6,0.6l0.8,0.3
			l0.7,0.7l0.3,0.8l0.6,5.6l0.3,5.5v5.6l-0.4,5.6l-0.7,5.5l-1,5.5l-1.4,5.4l-1.6,5.3l-1.9,5.2l-2.3,5.1l-0.2,0.8l0.2,0.8l0.4,0.7
			l5.5,5.2l5.7,4.9l5.8,4.7l6.1,4.4l6.3,4.1l6.4,3.9l6.6,3.6l6.8,3.3l6.9,3l6.9,2.7l7.1,2.5l7.2,2.1l7.2,1.8h0.1v37.9h-0.1l-7.2,1.8
			l-7.2,2.1l-7.1,2.5l-6.9,2.7l-6.9,3l-6.8,3.3l-6.6,3.6l-6.4,3.9l-6.3,4.1l-6.1,4.4l-5.8,4.7l-5.7,4.9l-5.5,5.2l-0.4,0.7l-0.2,0.8
			l0.2,0.8l2.3,5.1l1.9,5.2l1.6,5.3l1.4,5.4l1,5.5l0.7,5.5l0.4,5.6v5.6l-0.3,5.5l-0.6,5.6l-0.3,0.8l-0.7,0.7l-0.8,0.3l-5.6,0.6
			l-5.5,0.3h-5.6l-5.6-0.4l-5.5-0.7l-5.5-1l-5.4-1.4l-5.3-1.6l-5.2-1.9l-5.1-2.3l-0.8-0.2l-0.8,0.2l-0.7,0.4l-5.2,5.5l-4.9,5.7
			l-4.7,5.8l-4.4,6.1l-4.1,6.3l-3.9,6.4l-3.6,6.6l-3.3,6.8l-3,6.9l-2.7,6.9l-2.5,7.1l-2.1,7.2l-1.8,7.2v0.1h-37.9V400l-1.8-7.2
			l-2.1-7.2l-2.5-7.1l-2.7-6.9l-3-6.9l-3.3-6.8l-3.6-6.6l-3.9-6.4l-4.1-6.3l-4.4-6.1l-4.7-5.8l-4.9-5.7l-5.2-5.5l-0.7-0.4l-0.8-0.2
			l-0.8,0.2l-5.1,2.3l-5.2,1.9l-5.3,1.6l-5.4,1.4l-5.5,1l-5.5,0.7l-5.6,0.4h-5.6l-5.5-0.3l-5.6-0.6l-0.8-0.3l-0.7-0.7l-0.3-0.8
			l-0.6-5.6l-0.3-5.5v-5.6l0.4-5.6l0.7-5.5l1-5.5l1.4-5.4l1.6-5.3l1.9-5.2l2.3-5.1l0.2-0.8l-0.2-0.8l-0.4-0.7l-5.5-5.2l-5.7-4.9
			l-5.8-4.7l-6.1-4.4l-6.3-4.1l-6.4-3.9l-6.6-3.6l-6.8-3.3l-6.9-3l-6.9-2.7l-7.1-2.5L7.7,221l-7.2-1.8H0.4v-37.9h0.1l7.2-1.8
			l7.2-2.1L22,175l6.9-2.7l6.9-3l6.8-3.3l6.6-3.6l6.4-3.9l6.3-4.1l6.1-4.4l5.8-4.7l5.7-4.9l5.5-5.2l0.4-0.7l0.2-0.8l-0.2-0.8
			l-2.3-5.1l-1.9-5.2l-1.6-5.3l-1.4-5.4l-1-5.5l-0.7-5.5l-0.4-5.6v-5.6l0.3-5.5l0.6-5.6l0.3-0.8l0.7-0.7l0.8-0.3l5.6-0.6l5.5-0.3
			h5.6l5.6,0.4l5.5,0.7l5.5,1l5.4,1.4l5.3,1.6l5.2,1.9l5.1,2.3l0.8,0.2l0.8-0.2l0.7-0.4l5.2-5.5l4.9-5.7l4.7-5.8l4.4-6.1l4.1-6.3
			l3.9-6.4l3.6-6.6l3.3-6.8l3-6.9l2.7-6.9l2.5-7.1l2.1-7.2L181.3,0.5L181.3,0.5z M209.4,365.1l3.1-7.5l3.4-7.4l3.6-7.3l4-7.1l4.2-7
			l4.6-6.7l4.8-6.6l5.1-6.3l5.3-6.2l5.6-5.9l5.8-5.8l0.8-0.4l0.8-0.1l0.8,0.3l3.5,1.8l3.6,1.5l3.7,1.3l3.8,0.9l3.8,0.7l3.9,0.4h3.9
			l3.9-0.3l3.9-0.5l0.7-0.3l0.6-0.6l0.3-0.7l0.5-3.9l0.3-3.9v-3.9l-0.4-3.9l-0.7-3.8l-0.9-3.8l-1.3-3.7l-1.5-3.6l-1.8-3.5l-0.3-0.8
			l0.1-0.8l0.4-0.8l5.8-5.8l5.9-5.6l6.2-5.3l6.3-5.1l6.6-4.8l6.7-4.6l7-4.2l7.1-4l7.3-3.6l7.4-3.4l7.5-3.1l7.7-2.7l7.8-2.5l7.9-2.2
			l0.7-0.3l0.5-0.7l0.2-0.8l-0.2-0.8l-0.5-0.7l-0.7-0.3l-7.9-2.2l-7.8-2.5l-7.7-2.7l-7.5-3.1l-7.4-3.4l-7.3-3.6l-7.1-4l-7-4.2
			l-6.7-4.6l-6.6-4.8l-6.3-5.1l-6.2-5.3l-5.9-5.6l-5.8-5.8l-0.4-0.8l-0.1-0.8l0.3-0.8l1.8-3.5l1.5-3.6l1.3-3.7l0.9-3.8l0.7-3.8
			l0.4-3.9V113l-0.3-3.9l-0.5-3.9l-0.3-0.7l-0.6-0.6l-0.7-0.3l-3.9-0.5l-3.9-0.3h-3.9l-3.9,0.4l-3.8,0.7l-3.8,0.9l-3.7,1.3l-3.6,1.5
			l-3.5,1.8l-0.8,0.3l-0.8-0.1l-0.8-0.4l-5.8-5.8l-5.6-5.9l-5.3-6.2l-5.1-6.3l-4.8-6.6l-4.6-6.7l-4.2-7l-4-7.1l-3.6-7.3l-3.4-7.4
			l-3.1-7.5l-2.7-7.7l-2.5-7.8l-2.2-7.9l-0.3-0.7l-0.7-0.5l-0.8-0.2l-0.8,0.2l-0.7,0.5l-0.3,0.7l-2.2,7.9l-2.5,7.8l-2.7,7.7
			l-3.1,7.5l-3.4,7.4l-3.6,7.3l-4,7.1l-4.2,7l-4.6,6.7l-4.8,6.6l-5.1,6.3l-5.3,6.2l-5.6,5.9l-5.8,5.8l-0.8,0.4l-0.8,0.1l-0.8-0.3
			l-3.5-1.8l-3.6-1.5l-3.7-1.3l-3.8-0.9l-3.8-0.7l-3.9-0.4h-3.9l-3.9,0.3l-3.9,0.5l-0.7,0.3l-0.6,0.6l-0.3,0.7l-0.5,3.9l-0.3,3.9
			v3.9l0.4,3.9l0.7,3.8l0.9,3.8l1.3,3.7l1.5,3.6l1.8,3.5l0.3,0.8l-0.1,0.8l-0.4,0.8l-5.8,5.8l-5.9,5.6l-6.2,5.3l-6.3,5.1l-6.6,4.8
			l-6.7,4.6l-7,4.2l-7.1,4l-7.3,3.6l-7.4,3.4l-7.5,3.1l-7.7,2.7l-7.8,2.5l-7.9,2.2l-0.7,0.3l-0.5,0.7l-0.2,0.8l0.2,0.8l0.5,0.7
			l0.7,0.3l7.9,2.2l7.8,2.5l7.7,2.7l7.5,3.1l7.4,3.4l7.3,3.6l7.1,4l7,4.2l6.7,4.6l6.6,4.8l6.3,5.1l6.2,5.3l5.9,5.6l5.8,5.8l0.4,0.8
			l0.1,0.8l-0.3,0.8l-1.8,3.5l-1.5,3.6l-1.3,3.7l-0.9,3.8l-0.7,3.8l-0.4,3.9v3.9l0.3,3.9l0.5,3.9l0.3,0.7l0.6,0.6l0.7,0.3l3.9,0.5
			l3.9,0.3h3.9l3.9-0.4l3.8-0.7l3.8-0.9l3.7-1.3l3.6-1.5l3.5-1.8l0.8-0.3l0.8,0.1l0.8,0.4l5.8,5.8l5.6,5.9l5.3,6.2l5.1,6.3l4.8,6.6
			l4.6,6.7l4.2,7l4,7.1l3.6,7.3l3.4,7.4l3.1,7.5l2.7,7.7l2.5,7.8l2.2,7.9l0.3,0.7l0.7,0.5l0.8,0.2l0.8-0.2l0.7-0.5l0.3-0.7l2.2-7.9
			l2.5-7.8L209.4,365.1z"/>
		<path class="st6" d="M187.6,143.9l-1.9,8l-1.7,8.1l-0.3,0.8l-0.5,0.5l-0.6,0.3l-0.8,0.1l-0.8-0.3l-6.9-3.4l-7-3l-7.2-2.6l-7.3-2.2
			l-0.8-0.1l-0.8,0.3l-0.6,0.6l-0.3,0.8l0.1,0.8l2.2,7.3l2.6,7.2l3,7l3.4,6.9l0.3,0.8l-0.1,0.8l-0.3,0.6l-0.5,0.5L160,184l-8.1,1.7
			l-8,1.9l-8,2.3l-8,2.6l-7.8,2.9l-7.7,3.2l-0.5,0.5l-0.3,0.8v0.7l0.3,0.8l0.5,0.5l7.7,3.2l7.8,2.9l8,2.6l8,2.3l8,1.9l8.1,1.7
			l0.8,0.3l0.5,0.5l0.3,0.6l0.1,0.8l-0.3,0.8l-3.4,6.9l-3,7l-2.6,7.2l-2.2,7.3l-0.1,0.8l0.3,0.8l0.6,0.6l0.8,0.3l0.8-0.1l7.3-2.2
			l7.2-2.6l7-3l6.9-3.4l0.8-0.3l0.8,0.1l0.6,0.3l0.5,0.5l0.3,0.8l1.7,8.1l1.9,8l2.3,8l2.6,8l2.9,7.8l3.2,7.7l0.5,0.5l0.8,0.3h0.7
			l0.8-0.3l0.5-0.5l3.2-7.7l2.9-7.8l2.6-8l2.3-8l1.9-8l1.7-8.1l0.3-0.8l0.5-0.5l0.6-0.3l0.8-0.1l0.8,0.3l6.9,3.4l7,3l7.2,2.6
			l7.3,2.2l0.8,0.1l0.8-0.3l0.6-0.6l0.3-0.8l-0.1-0.8l-2.2-7.3l-2.6-7.2l-3-7l-3.4-6.9l-0.3-0.8l0.1-0.8l0.3-0.6l0.5-0.5l0.8-0.3
			l8.1-1.7l8-1.9l8-2.3l8-2.6l7.8-2.9l7.7-3.2l0.5-0.5l0.3-0.8v-0.7l-0.3-0.8l-0.5-0.5l-7.7-3.2l-7.8-2.9l-8-2.6l-8-2.3l-8-1.9
			l-8.1-1.7l-0.8-0.3l-0.5-0.5l-0.3-0.6l-0.1-0.8l0.3-0.8l3.4-6.9l3-7l2.6-7.2l2.2-7.3l0.1-0.8l-0.3-0.8l-0.6-0.6l-0.8-0.3l-0.8,0.1
			l-7.3,2.2l-7.2,2.6l-7,3l-6.9,3.4l-0.8,0.3l-0.8-0.1l-0.6-0.3l-0.5-0.5l-0.3-0.8l-1.7-8.1l-1.9-8l-2.3-8l-2.6-8l-2.9-7.8l-3.2-7.7
			l-0.5-0.5l-0.8-0.3h-0.7l-0.8,0.3l-0.5,0.5l-3.2,7.7l-2.9,7.8l-2.6,8L187.6,143.9z M212.6,357.6l-3.1,7.5l-2.7,7.7l-2.5,7.8
			l-2.2,7.9l-0.3,0.7l-0.7,0.5l-0.8,0.2l-0.8-0.2l-0.7-0.5l-0.3-0.7l-2.2-7.9l-2.5-7.8l-2.7-7.7l-3.1-7.5l-3.4-7.4l-3.6-7.3l-4-7.1
			l-4.2-7l-4.6-6.7l-4.8-6.6l-5.1-6.3l-5.3-6.2l-5.6-5.9l-5.8-5.8l-0.8-0.4l-0.8-0.1l-0.8,0.3l-3.5,1.8l-3.6,1.5l-3.7,1.3l-3.8,0.9
			l-3.8,0.7l-3.9,0.4h-3.9l-3.9-0.3l-3.9-0.5l-0.7-0.3l-0.6-0.6l-0.3-0.7l-0.5-3.9l-0.3-3.9v-3.9l0.4-3.9l0.7-3.8l0.9-3.8l1.3-3.7
			l1.5-3.6l1.8-3.5l0.3-0.8l-0.1-0.8l-0.4-0.8l-5.8-5.8l-5.9-5.6l-6.2-5.3l-6.3-5.1l-6.6-4.8l-6.7-4.6l-7-4.2l-7.1-4l-7.3-3.6
			l-7.4-3.4l-7.5-3.1l-7.7-2.7l-7.8-2.5l-7.9-2.2l-0.7-0.3l-0.5-0.7l-0.2-0.8l0.2-0.8l0.5-0.7l0.7-0.3l7.9-2.2l7.8-2.5l7.7-2.7
			l7.5-3.1l7.4-3.4l7.3-3.6l7.1-4l7-4.2l6.7-4.6l6.6-4.8l6.3-5.1l6.2-5.3l5.9-5.6l5.8-5.8l0.4-0.8l0.1-0.8l-0.3-0.8l-1.8-3.5
			l-1.5-3.6l-1.3-3.7l-0.9-3.8l-0.7-3.8l-0.4-3.9V113l0.3-3.9l0.5-3.9l0.3-0.7l0.6-0.6l0.7-0.3l3.9-0.5l3.9-0.3h3.9l3.9,0.4l3.8,0.7
			l3.8,0.9l3.7,1.3l3.6,1.5l3.5,1.8l0.8,0.3l0.8-0.1l0.8-0.4l5.8-5.8l5.6-5.9l5.3-6.2l5.1-6.3l4.8-6.6l4.6-6.7l4.2-7l4-7.1l3.6-7.3
			l3.4-7.4l3.1-7.5l2.7-7.7l2.5-7.8l2.2-7.9l0.3-0.7l0.7-0.5l0.8-0.2l0.8,0.2l0.7,0.5l0.3,0.7l2.2,7.9l2.5,7.8l2.7,7.7l3.1,7.5
			l3.4,7.4l3.6,7.3l4,7.1l4.2,7l4.6,6.7l4.8,6.6l5.1,6.3l5.3,6.2l5.6,5.9l5.8,5.8l0.8,0.4l0.8,0.1l0.8-0.3l3.5-1.8l3.6-1.5l3.7-1.3
			l3.8-0.9l3.8-0.7l3.9-0.4h3.9l3.9,0.3l3.9,0.5l0.7,0.3l0.6,0.6l0.3,0.7l0.5,3.9l0.3,3.9v3.9l-0.4,3.9l-0.7,3.8l-0.9,3.8l-1.3,3.7
			l-1.5,3.6l-1.8,3.5l-0.3,0.8l0.1,0.8l0.4,0.8l5.8,5.8l5.9,5.6l6.2,5.3l6.3,5.1l6.6,4.8l6.7,4.6l7,4.2l7.1,4l7.3,3.6l7.4,3.4
			l7.5,3.1l7.7,2.7l7.8,2.5l7.9,2.2l0.7,0.3l0.5,0.7l0.2,0.8l-0.2,0.8l-0.5,0.7l-0.7,0.3l-7.9,2.2l-7.8,2.5l-7.7,2.7l-7.5,3.1
			l-7.4,3.4l-7.3,3.6l-7.1,4l-7,4.2l-6.7,4.6l-6.6,4.8l-6.3,5.1l-6.2,5.3l-5.9,5.6l-5.8,5.8l-0.4,0.8l-0.1,0.8l0.3,0.8l1.8,3.5
			l1.5,3.6l1.3,3.7l0.9,3.8l0.7,3.8l0.4,3.9v3.9l-0.3,3.9l-0.5,3.9l-0.3,0.7l-0.6,0.6l-0.7,0.3l-3.9,0.5l-3.9,0.3h-3.9l-3.9-0.4
			l-3.8-0.7l-3.8-0.9l-3.7-1.3l-3.6-1.5l-3.5-1.8l-0.8-0.3l-0.8,0.1l-0.8,0.4l-5.8,5.8l-5.6,5.9l-5.3,6.2l-5.1,6.3l-4.8,6.6
			l-4.6,6.7l-4.2,7l-4,7.1l-3.6,7.3L212.6,357.6z"/>
		<polygon class="st2" points="17.5,25.7 19,23.2 20.9,20.9 23.2,19.1 25.6,17.6 28.4,16.3 31.1,15.5 33.9,14.8 36.9,14.5 
			39.8,14.6 42.6,15 45.5,15.8 48.2,16.8 53,18.7 58,20.1 63.2,21.2 68.4,22 73.5,22.3 78.7,22.3 81.3,21.9 83.8,21.1 86.2,20.1 
			88.5,18.8 90.5,17.2 92.4,15.5 94.1,13.4 95.4,11.2 96.5,8.9 97.3,6.3 97.8,3.8 98,1.2 98,0.5 181.3,0.5 181.3,0.6 179.5,7.8 
			177.4,14.9 174.9,22 172.2,29 169.2,35.8 165.9,42.6 162.3,49.2 158.4,55.6 154.3,61.9 149.9,68 145.2,73.8 140.3,79.5 135.2,85 
			134.5,85.4 133.7,85.6 132.9,85.4 127.8,83.1 122.6,81.2 117.2,79.6 111.8,78.2 106.3,77.2 100.8,76.5 95.3,76.1 89.7,76.1 
			84.2,76.3 78.6,76.9 77.8,77.2 77.2,77.9 76.9,78.6 76.3,84.2 76.1,89.7 76.1,95.3 76.5,100.9 77.2,106.4 78.2,111.9 79.5,117.3 
			81.1,122.6 83.1,127.9 85.4,132.9 85.5,133.7 85.4,134.5 84.9,135.2 79.4,140.4 73.8,145.3 67.9,149.9 61.8,154.3 55.6,158.5 
			49.2,162.4 42.6,165.9 35.8,169.2 28.9,172.3 22,175 14.9,177.4 7.7,179.5 0.5,181.3 0.4,181.3 0.4,98 1.1,98 3.7,97.8 6.3,97.3 
			8.8,96.6 11.2,95.5 13.4,94.1 15.4,92.4 17.2,90.6 18.8,88.5 20.1,86.2 21.1,83.9 21.8,81.3 22.3,78.7 22.3,73.6 21.9,68.4 
			21.2,63.2 20.1,58.1 18.6,53.1 16.8,48.3 15.7,45.6 15,42.7 14.6,39.8 14.5,36.9 14.7,34 15.4,31.1 16.3,28.4 		"/>
		<polygon class="st1" points="20.1,342.4 18.6,347.4 16.8,352.3 15.7,355 15,357.8 14.6,360.7 14.5,363.6 14.7,366.5 15.4,369.4 
			16.3,372.1 17.5,374.8 19,377.3 20.9,379.6 23.2,381.4 25.6,383 28.4,384.2 31.1,385.1 33.9,385.7 36.9,386 39.8,385.9 
			42.6,385.5 45.5,384.7 48.2,383.7 53,381.9 58,380.4 63.2,379.3 68.4,378.6 73.5,378.2 78.7,378.2 81.3,378.6 83.8,379.4 
			86.2,380.4 88.5,381.7 90.5,383.3 92.4,385.1 94.1,387.1 95.4,389.3 96.5,391.7 97.3,394.2 97.8,396.7 98,399.4 98,400 0.4,400 
			0.4,302.5 1.1,302.5 3.7,302.7 6.3,303.2 8.8,304 11.2,305.1 13.4,306.4 15.4,308.1 17.2,310 18.8,312 20.1,314.3 21.1,316.6 
			21.8,319.2 22.3,321.8 22.3,327 21.9,332.1 21.2,337.3 		"/>
		<polygon class="st1" points="16.8,48.3 18.6,53.1 20.1,58.1 21.2,63.2 21.9,68.4 22.3,73.6 22.3,78.7 21.8,81.3 21.1,83.9 
			20.1,86.2 18.8,88.5 17.2,90.6 15.4,92.4 13.4,94.1 11.2,95.5 8.8,96.6 6.3,97.3 3.7,97.8 1.1,98 0.4,98 0.4,0.5 98,0.5 98,1.2 
			97.8,3.8 97.3,6.3 96.5,8.9 95.4,11.2 94.1,13.4 92.4,15.5 90.5,17.2 88.5,18.8 86.2,20.1 83.8,21.1 81.3,21.9 78.7,22.3 
			73.5,22.3 68.4,22 63.2,21.2 58,20.1 53,18.7 48.2,16.8 45.5,15.8 42.6,15 39.8,14.6 36.9,14.5 33.9,14.8 31.1,15.5 28.4,16.3 
			25.6,17.6 23.2,19.1 20.9,20.9 19,23.2 17.5,25.7 16.3,28.4 15.4,31.1 14.7,34 14.5,36.9 14.6,39.8 15,42.7 15.7,45.6 		"/>
	</g>
	<g>
		<polyline class="st7" points="1.1,98 3.7,97.8 6.3,97.3 8.8,96.6 11.2,95.5 13.4,94.1 15.4,92.4 17.2,90.6 18.8,88.5 20.1,86.2 
			21.1,83.9 21.8,81.3 22.3,78.7 22.3,73.6 21.9,68.4 21.2,63.2 20.1,58.1 18.6,53.1 16.8,48.3 		"/>
		<polyline class="st7" points="20.9,20.9 19,23.2 17.5,25.7 16.3,28.4 15.4,31.1 14.7,34 14.5,36.9 14.6,39.8 15,42.7 15.7,45.6 
			16.8,48.3 		"/>
		<polyline class="st7" points="12,198.4 19.9,196.2 27.7,193.7 35.4,191 42.9,187.9 50.3,184.5 57.5,180.9 64.6,176.9 71.7,172.7 
			78.3,168.1 84.9,163.3 91.3,158.2 97.5,152.9 103.4,147.3 109.1,141.5 		"/>
		<polyline class="st7" points="103.5,105.2 103,109.1 102.8,113 102.8,116.9 103.2,120.8 103.9,124.6 104.8,128.4 106.1,132.1 
			107.6,135.6 109.4,139.1 		"/>
		<polyline class="st7" points="105.2,103.6 104.5,103.9 103.9,104.5 103.5,105.2 		"/>
		<polyline class="st7" points="109.1,141.5 109.5,140.7 109.6,139.9 109.4,139.1 		"/>
		<polyline class="st7" points="0.5,181.3 7.7,179.5 14.9,177.4 22,175 28.9,172.3 35.8,169.2 42.6,165.9 49.2,162.4 55.6,158.5 
			61.8,154.3 67.9,149.9 73.8,145.3 79.4,140.4 84.9,135.2 		"/>
		<polyline class="st7" points="76.9,78.6 76.3,84.2 76.1,89.7 76.1,95.3 76.5,100.9 77.2,106.4 78.2,111.9 79.5,117.3 81.1,122.6 
			83.1,127.9 85.4,132.9 		"/>
		<polyline class="st7" points="78.6,76.9 77.8,77.2 77.2,77.9 76.9,78.6 		"/>
		<polyline class="st7" points="84.9,135.2 85.4,134.5 85.5,133.7 85.4,132.9 		"/>
		<polygon class="st7" points="220.2,200.3 220,197.6 219.5,195.1 218.7,192.6 217.6,190.3 216,188.1 214.3,186.1 212.4,184.4 
			210.2,182.9 207.8,181.8 205.4,181 202.8,180.5 200.2,180.3 197.6,180.5 195.1,181 192.6,181.8 190.2,182.9 188,184.4 
			186.1,186.1 184.4,188.1 182.9,190.3 181.8,192.6 180.9,195.1 180.4,197.6 180.3,200.3 180.4,202.9 180.9,205.4 181.8,207.9 
			182.9,210.2 184.4,212.4 186.1,214.4 188,216.1 190.2,217.6 192.6,218.7 195.1,219.5 197.6,220.1 200.2,220.2 202.8,220.1 
			205.4,219.5 207.8,218.7 210.2,217.6 212.4,216.1 214.3,214.4 216,212.4 217.6,210.2 218.7,207.9 219.5,205.4 220,202.9 		"/>
		<polyline class="st7" points="141.4,109.2 147.3,103.4 152.9,97.5 158.2,91.3 163.3,85 168.1,78.4 172.6,71.7 176.9,64.7 
			180.9,57.6 184.5,50.3 187.9,42.9 191,35.4 193.7,27.7 196.2,19.9 198.4,12.1 		"/>
		<polyline class="st7" points="202.1,12.1 201.7,11.4 201.1,10.9 200.2,10.7 199.4,10.9 198.7,11.4 198.4,12.1 		"/>
		<polyline class="st7" points="139.1,109.4 135.6,107.6 132,106.1 128.3,104.9 124.5,103.9 120.7,103.2 116.8,102.8 112.9,102.8 
			109,103.1 105.2,103.6 		"/>
		<polyline class="st7" points="139.1,109.4 139.8,109.7 140.7,109.6 141.4,109.2 		"/>
		<polyline class="st7" points="135.2,85 140.3,79.5 145.2,73.8 149.9,68 154.3,61.9 158.4,55.6 162.3,49.2 165.9,42.6 169.2,35.8 
			172.2,29 174.9,22 177.4,14.9 179.5,7.8 181.3,0.6 		"/>
		<polyline class="st7" points="132.9,85.4 127.8,83.1 122.6,81.2 117.2,79.6 111.8,78.2 106.3,77.2 100.8,76.5 95.3,76.1 
			89.7,76.1 84.2,76.3 78.6,76.9 		"/>
		<polyline class="st7" points="132.9,85.4 133.7,85.6 134.5,85.4 135.2,85 		"/>
		<polyline class="st7" points="78.7,22.3 81.3,21.9 83.8,21.1 86.2,20.1 88.5,18.8 90.5,17.2 92.4,15.5 94.1,13.4 95.4,11.2 
			96.5,8.9 97.3,6.3 97.8,3.8 98,1.2 		"/>
		<polyline class="st7" points="48.2,16.8 53,18.7 58,20.1 63.2,21.2 68.4,22 73.5,22.3 78.7,22.3 		"/>
		<polyline class="st7" points="48.2,16.8 45.5,15.8 42.6,15 39.8,14.6 36.9,14.5 33.9,14.8 31.1,15.5 28.4,16.3 25.6,17.6 
			23.2,19.1 20.9,20.9 		"/>
		<polyline class="st7" points="378.2,78.7 378.6,81.3 379.4,83.9 380.4,86.2 381.6,88.5 383.3,90.6 385,92.4 387.1,94.1 
			389.3,95.5 391.6,96.6 394.2,97.3 396.7,97.8 399.3,98 		"/>
		<polyline class="st7" points="383.7,48.3 381.8,53.1 380.4,58.1 379.3,63.2 378.5,68.4 378.2,73.6 378.2,78.7 		"/>
		<polyline class="st7" points="383.7,48.3 384.7,45.6 385.5,42.7 385.9,39.8 386,36.9 385.7,34 385,31.1 384.2,28.4 382.9,25.7 
			381.4,23.2 379.5,20.9 		"/>
		<polyline class="st7" points="291.3,141.5 297.1,147.3 303,152.9 309.2,158.2 315.5,163.3 322.1,168.1 328.8,172.7 335.8,176.9 
			342.9,180.9 350.2,184.5 357.5,187.9 365.1,191 372.8,193.7 380.5,196.2 388.4,198.4 		"/>
		<polyline class="st7" points="291.1,139.1 292.8,135.6 294.4,132.1 295.6,128.4 296.6,124.6 297.2,120.8 297.7,116.9 297.7,113 
			297.4,109.1 296.9,105.2 296.6,104.5 296,103.9 295.3,103.6 		"/>
		<polyline class="st7" points="291.1,139.1 290.8,139.9 290.9,140.7 291.3,141.5 		"/>
		<polyline class="st7" points="315.5,135.2 321,140.4 326.7,145.3 332.5,149.9 338.6,154.3 344.9,158.5 351.3,162.4 357.9,165.9 
			364.6,169.2 371.5,172.3 378.4,175 385.5,177.4 392.7,179.5 399.9,181.3 		"/>
		<polyline class="st7" points="315.1,132.9 317.4,127.9 319.3,122.6 320.9,117.3 322.3,111.9 323.3,106.4 324,100.9 324.4,95.3 
			324.4,89.7 324.1,84.2 323.5,78.6 323.3,77.9 322.6,77.2 321.8,76.9 		"/>
		<polyline class="st7" points="315.1,132.9 314.9,133.7 315.1,134.5 315.5,135.2 		"/>
		<polyline class="st7" points="202.1,12.1 204.3,19.9 206.7,27.7 209.4,35.4 212.6,42.9 216,50.3 219.6,57.6 223.6,64.7 
			227.8,71.7 232.4,78.4 237.2,85 242.3,91.3 247.6,97.5 253.2,103.4 259,109.2 		"/>
		<polyline class="st7" points="295.3,103.6 291.4,103.1 287.5,102.8 283.6,102.8 279.7,103.2 275.9,103.9 272.1,104.9 268.4,106.1 
			264.8,107.6 261.4,109.4 		"/>
		<polyline class="st7" points="259,109.2 259.8,109.6 260.6,109.7 261.4,109.4 		"/>
		<polyline class="st7" points="219.2,0.6 220.9,7.8 223.1,14.9 225.5,22 228.2,29 231.3,35.8 234.6,42.6 238.1,49.2 242,55.6 
			246.1,61.9 250.5,68 255.2,73.8 260.1,79.5 265.3,85 		"/>
		<polyline class="st7" points="321.8,76.9 316.3,76.3 310.8,76.1 305.2,76.1 299.6,76.5 294.1,77.2 288.6,78.2 283.2,79.6 
			277.9,81.2 272.6,83.1 267.5,85.4 		"/>
		<polyline class="st7" points="265.3,85 265.9,85.4 266.8,85.6 267.5,85.4 		"/>
		<polyline class="st7" points="302.5,1.2 302.6,3.8 303.2,6.3 303.9,8.9 305,11.2 306.4,13.4 308.1,15.5 309.9,17.2 312,18.8 
			314.2,20.1 316.6,21.1 319.1,21.9 321.8,22.3 326.9,22.3 332.1,22 337.2,21.2 342.4,20.1 347.4,18.7 352.2,16.8 		"/>
		<polyline class="st7" points="379.5,20.9 377.2,19.1 374.8,17.6 372.1,16.3 369.4,15.5 366.5,14.8 363.5,14.5 360.7,14.6 
			357.8,15 354.9,15.8 352.2,16.8 		"/>
		<polyline class="st7" points="22.3,321.8 21.8,319.2 21.1,316.6 20.1,314.3 18.8,312 17.2,310 15.4,308.1 13.4,306.4 11.2,305.1 
			8.8,304 6.3,303.2 3.7,302.7 1.1,302.5 		"/>
		<polyline class="st7" points="16.8,352.3 18.6,347.4 20.1,342.4 21.2,337.3 21.9,332.1 22.3,327 22.3,321.8 		"/>
		<polyline class="st7" points="16.8,352.3 15.7,355 15,357.8 14.6,360.7 14.5,363.6 14.7,366.5 15.4,369.4 16.3,372.1 17.5,374.8 
			19,377.3 20.9,379.6 		"/>
		<polyline class="st7" points="109.1,259 103.4,253.2 97.5,247.6 91.3,242.3 84.9,237.2 78.3,232.4 71.7,227.8 64.6,223.6 
			57.5,219.6 50.3,216 42.9,212.6 35.4,209.5 27.7,206.8 19.9,204.3 12,202.1 		"/>
		<polyline class="st7" points="12,198.4 11.4,198.7 10.8,199.4 10.7,200.3 10.8,201.1 11.4,201.8 12,202.1 		"/>
		<polyline class="st7" points="109.4,261.4 107.6,264.9 106.1,268.4 104.8,272.2 103.9,276 103.2,279.8 102.8,283.7 102.8,287.5 
			103,291.4 103.5,295.3 103.9,296 104.5,296.6 105.2,296.9 		"/>
		<polyline class="st7" points="109.4,261.4 109.6,260.7 109.5,259.8 109.1,259 		"/>
		<polyline class="st7" points="84.9,265.3 79.4,260.1 73.8,255.2 67.9,250.6 61.8,246.2 55.6,242 49.2,238.2 42.6,234.6 
			35.8,231.3 28.9,228.3 22,225.5 14.9,223.1 7.7,221 0.5,219.2 		"/>
		<polyline class="st7" points="85.4,267.6 83.1,272.7 81.1,277.9 79.5,283.2 78.2,288.6 77.2,294.1 76.5,299.6 76.1,305.2 
			76.1,310.8 76.3,316.3 76.9,321.9 77.2,322.6 77.8,323.3 78.6,323.6 		"/>
		<polyline class="st7" points="85.4,267.6 85.5,266.8 85.4,266 84.9,265.3 		"/>
		<polyline class="st7" points="198.4,388.5 196.2,380.6 193.7,372.8 191,365.1 187.9,357.6 184.5,350.2 180.9,342.9 176.9,335.8 
			172.6,328.8 168.1,322.1 163.3,315.5 158.2,309.2 152.9,303 147.3,297.1 141.4,291.4 		"/>
		<polyline class="st7" points="198.4,388.5 198.7,389.1 199.4,389.6 200.2,389.8 201.1,389.6 201.7,389.1 202.1,388.5 		"/>
		<polyline class="st7" points="105.2,296.9 109,297.4 112.9,297.7 116.8,297.7 120.7,297.3 124.5,296.6 128.3,295.7 132,294.4 
			135.6,292.9 139.1,291.1 		"/>
		<polyline class="st7" points="141.4,291.4 140.7,290.9 139.8,290.8 139.1,291.1 		"/>
		<polyline class="st7" points="181.3,400 179.5,392.8 177.4,385.6 174.9,378.5 172.2,371.5 169.2,364.7 165.9,357.9 162.3,351.3 
			158.4,344.9 154.3,338.6 149.9,332.5 145.2,326.7 140.3,321 135.2,315.5 		"/>
		<polyline class="st7" points="78.6,323.6 84.2,324.2 89.7,324.4 95.3,324.4 100.8,324 106.3,323.3 111.8,322.3 117.2,321 
			122.6,319.3 127.8,317.4 132.9,315.1 		"/>
		<polyline class="st7" points="135.2,315.5 134.5,315.1 133.7,315 132.9,315.1 		"/>
		<polyline class="st7" points="98,399.4 97.8,396.7 97.3,394.2 96.5,391.7 95.4,389.3 94.1,387.1 92.4,385.1 90.5,383.3 
			88.5,381.7 86.2,380.4 83.8,379.4 81.3,378.6 78.7,378.2 73.5,378.2 68.4,378.6 63.2,379.3 58,380.4 53,381.9 48.2,383.7 		"/>
		<polyline class="st7" points="20.9,379.6 23.2,381.4 25.6,383 28.4,384.2 31.1,385.1 33.9,385.7 36.9,386 39.8,385.9 42.6,385.5 
			45.5,384.7 48.2,383.7 		"/>
		<polyline class="st7" points="399.3,302.5 396.7,302.7 394.2,303.2 391.6,304 389.3,305.1 387.1,306.4 385,308.1 383.3,310 
			381.6,312 380.4,314.3 379.4,316.6 378.6,319.2 378.2,321.8 378.2,327 378.5,332.1 379.3,337.3 380.4,342.4 381.8,347.4 
			383.7,352.3 		"/>
		<polyline class="st7" points="379.5,379.6 381.4,377.3 382.9,374.8 384.2,372.1 385,369.4 385.7,366.5 386,363.6 385.9,360.7 
			385.5,357.8 384.7,355 383.7,352.3 		"/>
		<polyline class="st7" points="388.4,202.1 380.5,204.3 372.8,206.8 365.1,209.5 357.5,212.6 350.2,216 342.9,219.6 335.8,223.6 
			328.8,227.8 322.1,232.4 315.5,237.2 309.2,242.3 303,247.6 297.1,253.2 291.3,259 		"/>
		<polyline class="st7" points="388.4,202.1 389.1,201.8 389.6,201.1 389.8,200.3 389.6,199.4 389.1,198.7 388.4,198.4 		"/>
		<polyline class="st7" points="296.9,295.3 297.4,291.4 297.7,287.5 297.7,283.7 297.2,279.8 296.6,276 295.6,272.2 294.4,268.4 
			292.8,264.9 291.1,261.4 		"/>
		<polyline class="st7" points="295.3,296.9 296,296.6 296.6,296 296.9,295.3 		"/>
		<polyline class="st7" points="291.3,259 290.9,259.8 290.8,260.7 291.1,261.4 		"/>
		<polyline class="st7" points="399.9,219.2 392.7,221 385.5,223.1 378.4,225.5 371.5,228.3 364.6,231.3 357.9,234.6 351.3,238.2 
			344.9,242 338.6,246.2 332.5,250.6 326.7,255.2 321,260.1 315.5,265.3 		"/>
		<polyline class="st7" points="323.5,321.9 324.1,316.3 324.4,310.8 324.4,305.2 324,299.6 323.3,294.1 322.3,288.6 320.9,283.2 
			319.3,277.9 317.4,272.7 315.1,267.6 		"/>
		<polyline class="st7" points="321.8,323.6 322.6,323.3 323.3,322.6 323.5,321.9 		"/>
		<polyline class="st7" points="315.5,265.3 315.1,266 314.9,266.8 315.1,267.6 		"/>
		<polyline class="st7" points="259,291.4 253.2,297.1 247.6,303 242.3,309.2 237.2,315.5 232.4,322.1 227.8,328.8 223.6,335.8 
			219.6,342.9 216,350.2 212.6,357.6 209.4,365.1 206.7,372.8 204.3,380.6 202.1,388.5 		"/>
		<polyline class="st7" points="261.4,291.1 264.8,292.9 268.4,294.4 272.1,295.7 275.9,296.6 279.7,297.3 283.6,297.7 287.5,297.7 
			291.4,297.4 295.3,296.9 		"/>
		<polyline class="st7" points="261.4,291.1 260.6,290.8 259.8,290.9 259,291.4 		"/>
		<polyline class="st7" points="265.3,315.5 260.1,321 255.2,326.7 250.5,332.5 246.1,338.6 242,344.9 238.1,351.3 234.6,357.9 
			231.3,364.7 228.2,371.5 225.5,378.5 223.1,385.6 220.9,392.8 219.2,400 		"/>
		<polyline class="st7" points="267.5,315.1 272.6,317.4 277.9,319.3 283.2,321 288.6,322.3 294.1,323.3 299.6,324 305.2,324.4 
			310.8,324.4 316.3,324.2 321.8,323.6 		"/>
		<polyline class="st7" points="267.5,315.1 266.8,315 265.9,315.1 265.3,315.5 		"/>
		<polyline class="st7" points="321.8,378.2 319.1,378.6 316.6,379.4 314.2,380.4 312,381.7 309.9,383.3 308.1,385.1 306.4,387.1 
			305,389.3 303.9,391.7 303.2,394.2 302.6,396.7 302.5,399.4 		"/>
		<polyline class="st7" points="352.2,383.7 347.4,381.9 342.4,380.4 337.2,379.3 332.1,378.6 326.9,378.2 321.8,378.2 		"/>
		<polyline class="st7" points="352.2,383.7 354.9,384.7 357.8,385.5 360.7,385.9 363.5,386 366.5,385.7 369.4,385.1 372.1,384.2 
			374.8,383 377.2,381.4 379.5,379.6 		"/>
		<polyline class="st7" points="198.6,112.5 195.4,120.2 192.5,127.9 189.9,135.9 187.6,143.9 185.7,152 184,160.1 		"/>
		<polyline class="st7" points="184,240.4 185.7,248.6 187.6,256.6 189.9,264.6 192.5,272.6 195.4,280.4 198.6,288.1 		"/>
		<polyline class="st7" points="184,240.4 183.6,239.7 183.1,239.2 182.5,238.8 181.8,238.7 181,239 		"/>
		<polyline class="st7" points="198.6,288.1 199.1,288.6 199.9,288.8 200.6,288.8 201.3,288.6 201.8,288.1 		"/>
		<polyline class="st7" points="201.8,112.5 201.3,112 200.6,111.7 199.9,111.7 199.1,112 198.6,112.5 		"/>
		<polyline class="st7" points="201.8,288.1 205,280.4 207.9,272.6 210.5,264.6 212.8,256.6 214.8,248.6 216.5,240.4 		"/>
		<polyline class="st7" points="216.5,160.1 214.8,152 212.8,143.9 210.5,135.9 207.9,127.9 205,120.2 201.8,112.5 		"/>
		<polyline class="st7" points="216.5,160.1 216.8,160.8 217.3,161.4 217.9,161.7 218.7,161.8 219.4,161.5 		"/>
		<polyline class="st7" points="288,198.7 280.3,195.4 272.5,192.6 264.6,189.9 256.6,187.7 248.5,185.7 240.4,184 		"/>
		<polyline class="st7" points="160,184 151.9,185.7 143.9,187.7 135.9,189.9 127.9,192.6 120.1,195.4 112.4,198.7 		"/>
		<polyline class="st7" points="160,184 160.8,183.7 161.3,183.2 161.7,182.6 161.7,181.8 161.5,181.1 		"/>
		<polyline class="st7" points="112.4,198.7 111.9,199.2 111.7,199.9 111.7,200.6 111.9,201.4 112.4,201.9 		"/>
		<polyline class="st7" points="288,201.9 288.5,201.4 288.8,200.6 288.8,199.9 288.5,199.2 288,198.7 		"/>
		<polyline class="st7" points="112.4,201.9 120.1,205.1 127.9,208 135.9,210.6 143.9,212.9 151.9,214.8 160,216.5 		"/>
		<polyline class="st7" points="240.4,216.5 248.5,214.8 256.6,212.9 264.6,210.6 272.5,208 280.3,205.1 288,201.9 		"/>
		<polyline class="st7" points="240.4,216.5 239.6,216.8 239.1,217.3 238.8,217.9 238.7,218.7 239,219.5 		"/>
		<polyline class="st7" points="152.7,250.2 160,248 167.1,245.4 174.2,242.4 181,239 		"/>
		<polyline class="st7" points="239,181.1 242.3,174.2 245.4,167.2 248,160 250.2,152.7 		"/>
		<polyline class="st7" points="239,181.1 238.7,181.8 238.8,182.6 239.1,183.2 239.6,183.7 240.4,184 		"/>
		<polyline class="st7" points="247.8,150.3 240.5,152.5 233.3,155.1 226.3,158.1 219.4,161.5 		"/>
		<polyline class="st7" points="161.5,219.5 158.1,226.3 155.1,233.3 152.4,240.5 150.2,247.8 		"/>
		<polyline class="st7" points="161.5,219.5 161.7,218.7 161.7,217.9 161.3,217.3 160.8,216.8 160,216.5 		"/>
		<polyline class="st7" points="250.2,152.7 250.3,151.9 250,151.1 249.4,150.5 248.6,150.2 247.8,150.3 		"/>
		<polyline class="st7" points="150.2,247.8 150.1,248.6 150.5,249.4 151.1,250 151.8,250.3 152.7,250.2 		"/>
		<polyline class="st7" points="150.2,152.7 152.4,160 155.1,167.2 158.1,174.2 161.5,181.1 		"/>
		<polyline class="st7" points="219.4,239 226.3,242.4 233.3,245.4 240.5,248 247.8,250.2 		"/>
		<polyline class="st7" points="219.4,239 218.7,238.7 217.9,238.8 217.3,239.2 216.8,239.7 216.5,240.4 		"/>
		<polyline class="st7" points="250.2,247.8 248,240.5 245.4,233.3 242.3,226.3 239,219.5 		"/>
		<polyline class="st7" points="181,161.5 174.2,158.1 167.1,155.1 160,152.5 152.7,150.3 		"/>
		<polyline class="st7" points="181,161.5 181.8,161.8 182.5,161.7 183.1,161.4 183.6,160.8 184,160.1 		"/>
		<polyline class="st7" points="247.8,250.2 248.6,250.3 249.4,250 250,249.4 250.3,248.6 250.2,247.8 		"/>
		<polyline class="st7" points="152.7,150.3 151.8,150.2 151.1,150.5 150.5,151.1 150.1,151.9 150.2,152.7 		"/>
		<polygon class="st7" points="0.4,302.5 0.4,400 98,400 181.3,400 219.2,400 302.5,400 400,400 400,302.5 400,219.2 400,181.3 
			400,98 400,0.5 302.5,0.5 219.2,0.5 181.3,0.5 98,0.5 0.4,0.5 0.4,98 0.4,181.3 0.4,219.2 		"/>
	</g>
</g>
</svg>
