<?xml version="1.0" encoding="utf-8"?>
<!-- Generator: Adobe Illustrator 22.1.0, SVG Export Plug-In . SVG Version: 6.00 Build 0)  -->
<svg version="1.1" id="Layer_1" xmlns="http://www.w3.org/2000/svg" xmlns:xlink="http://www.w3.org/1999/xlink" x="0px" y="0px"
	 viewBox="0 0 400 400" style="enable-background:new 0 0 400 400;" xml:space="preserve">
<style type="text/css">
	.st0{fill:#FFFFFF;}
	.st1{fill:#C2DFA9;}
	.st2{fill:#3B5636;}
	.st3{fill:#83BC7A;}
	.st4{fill:none;stroke:#231F20;stroke-width:1.5306;stroke-miterlimit:10;}
	.st5{fill:none;stroke:#231F20;stroke-width:1.5298;stroke-miterlimit:10;}
</style>
<g>
	<rect x="0.5" y="0.5" class="st0" width="399" height="399"/>
	<path d="M399,1v398H1V1H399 M400,0H0v400h400V0L400,0z"/>
</g>
<g>
	<g id="XMLID_1_">
		<g>
			<path class="st1" d="M349.4,349.4c0,0,20.9,3.2,50.6,3.2V400h-47.3C352.6,370.6,349.4,349.4,349.4,349.4z"/>
			<path class="st2" d="M225.3,383.5c-9.4-12.6-34.6-32.5-93.2-40.8C73.5,334.3,40,296.6,40,296.6s-60.2-64.4-3.1-121.5
				c45.6-45.6,131.4-6.8,131.4-6.8s-38.7-85.9,6.8-131.4C232.2-20.2,296.6,40,296.6,40s37.7,33.5,46.1,92.2s28.3,83.8,40.8,93.2
				c0,0-35.9,24.1-59-23.2c-1.4-2.8-1.8-6.1-5.4-7c-4.1-1.2-6.6,2.8-9.8,4.6c-3.6,2.1-7.9,3.1-11.9,1.5c-9.3-3.5-9.7-29.4-10.8-39.3
				c-0.5-4.6-3.7-9.8-19.8-6.6c-21.9,4.5-43.2-21.5-37.2-39c0,0,8.3,8.4,17.1,8.9c23.1,1.5,33.2-22.8,32.8-41.8
				c-0.4-18.8-10.4-34.3-27.6-42c-17.2-7.7-38.7-4.6-53,7.7c-14.4,12.4-20.8,32.3-20.1,51.3c1.8,52.6,42,101.3,88.9,121.6
				c6.1,2.6,12.3,4.8,18.7,6.5c0,0-3.9,76.6,113.6,81.3v42.6c-29.7-0.1-50.6-3.2-50.6-3.2s3.1,21.1,3.2,50.6h-42.6
				c-4.7-117.5-81.3-113.7-81.3-113.7c-1.7-6.4-3.9-12.7-6.5-18.7c-20.4-46.9-69.1-87.1-121.7-88.9c-19-0.7-39,5.7-51.3,20.1
				c-12.2,14.3-15.4,35.8-7.7,53c7.7,17.2,23.1,27.1,42,27.6c19,0.4,43.3-9.7,41.8-32.8c-0.6-8.7-8.9-17-8.9-17
				c17.5-6,43.5,15.2,39,37.2c-3.3,16.1,1.9,19.3,6.6,19.8c9.9,1.1,35.7,1.5,39.3,10.8c1.5,4,0.6,8.3-1.5,11.9
				c-1.8,3.2-5.7,5.7-4.6,9.8c1,3.5,4.2,4,7,5.4C249.5,347.6,225.3,383.5,225.3,383.5z"/>
			<path class="st3" d="M40.8-0.4c0,6.4,2.4,12.7,7.3,17.6c4.9,4.9,11.2,7.3,17.6,7.3v41.2H24.5c0-6.4-2.4-12.7-7.3-17.6
				S6,40.9-0.4,40.9V-0.4H40.8z"/>
		</g>
		<g>
			<path class="st4" d="M310.1,400c-4.7-117.5-81.3-113.7-81.3-113.7c-1.7-6.4-3.9-12.7-6.5-18.7c-20.4-46.9-69.1-87.1-121.7-88.9
				c-19-0.7-39,5.7-51.3,20.1c-12.2,14.3-15.4,35.8-7.7,53c7.7,17.2,23.1,27.1,42,27.6c19,0.4,43.3-9.7,41.8-32.8
				c-0.6-8.7-8.9-17-8.9-17c17.5-6,43.5,15.2,39,37.2c-3.3,16.1,1.9,19.3,6.6,19.8c9.9,1.1,35.7,1.5,39.3,10.8
				c1.5,4,0.6,8.3-1.5,11.9c-1.8,3.2-5.7,5.7-4.6,9.8c1,3.5,4.2,4,7,5.4c47.3,23.2,23.2,59,23.2,59c-9.4-12.6-34.6-32.5-93.2-40.8
				C73.5,334.3,40,296.6,40,296.6s-60.2-64.4-3.1-121.5c45.6-45.6,131.4-6.8,131.4-6.8s-38.7-85.9,6.8-131.4
				C232.2-20.2,296.6,40,296.6,40s37.7,33.5,46.1,92.2s28.3,83.8,40.8,93.2c0,0-35.9,24.1-59-23.2c-1.4-2.8-1.8-6.1-5.4-7
				c-4.1-1.2-6.6,2.8-9.8,4.6c-3.6,2.1-7.9,3.1-11.9,1.5c-9.3-3.5-9.7-29.4-10.8-39.3c-0.5-4.6-3.7-9.8-19.8-6.6
				c-21.9,4.5-43.2-21.5-37.2-39c0,0,8.3,8.4,17.1,8.9c23.1,1.5,33.2-22.8,32.8-41.8c-0.4-18.8-10.4-34.3-27.6-42
				c-17.2-7.7-38.7-4.6-53,7.7c-14.4,12.4-20.8,32.3-20.1,51.3c1.8,52.6,42,101.3,88.9,121.6c6.1,2.6,12.3,4.8,18.7,6.5
				c0,0-3.9,76.6,113.6,81.3"/>
			<path class="st4" d="M400,352.7c-29.7-0.1-50.6-3.2-50.6-3.2s3.1,21.1,3.2,50.6"/>
			<polyline class="st4" points="400,352.7 400,310.1 400,-0.5 -0.5,-0.5 -0.5,400 310.1,400 352.7,400 			"/>
			<path class="st5" d="M17.2,48.2C12.4,43.3,6,40.9-0.4,40.9V-0.4h41.2c0,6.4,2.4,12.7,7.3,17.6c4.9,4.9,11.2,7.3,17.6,7.3v41.2
				H24.5C24.5,59.4,22.1,53,17.2,48.2z"/>
		</g>
	</g>
</g>
</svg>
