<svg version="1.1" id="Layer_1" xmlns="http://www.w3.org/2000/svg" xmlns:xlink="http://www.w3.org/1999/xlink" x="0px" y="0px"
	 viewBox="0 0 400 400" style="enable-background:new 0 0 400 400;" xml:space="preserve">
<style type="text/css">
	.stl82b{fill:none;stroke:#30302F;stroke-miterlimit:10;}
</style>
<g>
	<rect x="0.5" y="0.5" class="colora st0" width="399" height="399"/>
	<path d="M399,1v398H1V1H399 M400,0H0v400h400V0L400,0z"/>
</g>
<g id="XMLID_1_">
	<g>
		<rect x="400" y="359.6" class="colora st1" width="0" height="40.4"/>
		<polygon class="colora st2" points="400,39.9 332,108 332,82.5 374.6,39.9 		"/>
		<polygon class="colora st3" points="359.6,-0.5 400,-0.5 400,39.9 374.6,39.9 332,82.5 332,108 291.6,108 291.6,67.6 317.1,67.6 
			359.6,25 		"/>
		<polygon class="colora st2" points="332,291.6 400,359.6 374.5,359.6 332,317.1 		"/>
		<polygon class="colora st2" points="317,332 359.6,374.6 359.6,400 291.6,332 		"/>
		<polygon class="colora st3" points="332,317.1 374.5,359.6 400,359.6 400,400 359.6,400 359.6,374.6 317,332 291.6,332 291.6,291.6 
			332,291.6 332,291.6 		"/>
		<polygon class="colora st2" points="359.6,-0.5 359.6,25 317.1,67.6 291.6,67.6 		"/>
		<polygon class="colora st4" points="228.6,186 253.9,186 240.2,199.7 253.9,213.6 228.6,213.6 227.4,212.5 214.8,199.8 		"/>
		<polygon class="colora st1" points="213.6,145.6 213.6,171 213.6,171 213.6,145.6 		"/>
		<polygon class="colora st1" points="213.6,145.6 213.6,145.6 213.6,145.6 		"/>
		<polygon class="colora st4" points="213.6,228.6 213.6,254 199.8,240.2 185.9,254 185.9,228.6 199.8,214.8 		"/>
		<polygon class="colora st1" points="213.6,228.6 213.6,228.6 199.8,214.8 199.8,214.8 		"/>
		<polygon class="colora st4" points="213.6,145.6 213.6,171 212.5,172.1 199.8,184.8 186,171 186,145.6 199.7,159.4 		"/>
		<polygon class="colora st1" points="187.1,227.4 199.8,214.8 199.8,214.8 185.9,228.6 185.9,228.6 		"/>
		<polygon class="colora st1" points="172.1,187.1 183.8,198.8 171,186 		"/>
		<polygon class="colora st4" points="183.8,198.8 184.8,199.8 171,213.6 145.6,213.6 159.4,199.8 145.6,186 171,186 		"/>
		<polygon class="colora st1" points="171,185.9 171,186 145.6,186 145.6,185.9 		"/>
		<polygon class="colora st5" points="213.6,145.6 253.9,145.6 253.9,186 228.6,186 214.8,199.8 227.4,212.5 228.6,213.6 253.9,213.6 
			253.9,254 213.6,254 213.6,254 213.6,228.6 213.6,228.6 199.8,214.8 199.8,214.8 199.8,214.8 187.1,227.4 185.9,228.6 
			185.9,228.6 185.9,254 185.9,254 145.6,254 145.6,213.6 171,213.6 184.8,199.8 184.8,199.8 183.8,198.8 172.1,187.1 171,186 
			171,185.9 145.6,185.9 145.6,186 145.6,186 145.6,145.6 185.9,145.6 185.9,171 199.8,184.8 213.6,171 213.6,171 213.6,171 		"/>
		<polygon class="colora st2" points="39.9,374.5 82.5,332 107.9,332 39.9,400 		"/>
		<polygon class="colora st2" points="67.6,82.5 67.6,107.9 -0.5,39.9 -0.5,39.9 25,39.9 		"/>
		<polygon class="colora st2" points="82.5,67.5 39.9,24.9 39.9,-0.5 108,67.5 		"/>
		<polygon class="colora st3" points="39.9,24.9 82.5,67.5 108,67.5 108,107.9 67.6,107.9 67.6,82.5 25,39.9 -0.5,39.9 -0.5,-0.5 
			39.9,-0.5 		"/>
		<polygon class="colora st3" points="67.5,317 67.5,291.6 107.9,291.6 107.9,332 82.5,332 39.9,374.5 39.9,400 -0.5,400 -0.5,359.6 
			-0.5,359.6 -0.5,359.6 24.9,359.6 		"/>
		<polygon class="colora st2" points="67.5,291.6 67.5,317 24.9,359.6 -0.5,359.6 		"/>
		<path class="colora st1" d="M240.2,199.7l13.8-13.8v-40.4h-40.3h0v0l-13.8,13.8L186,145.6V171l13.8,13.8l12.7-12.7l1.1-1.1v0l-13.8,13.8
			L185.9,171v-25.4h-40.4V186h0l13.8,13.8l-13.8,13.8H171l13.8-13.8l0,0L171,213.6h-25.4V254h40.4v0l13.9-13.8l13.8,13.8v0h40.4
			v-40.4L240.2,199.7z M400,359.6l-68-68v0h-40.4V332l68,68H39.9l68-68v-40.4H67.5l-68,68h0V39.9l68,68H108V67.5l-68-68h319.7
			l-68,68V108H332l68-68V-0.5h0L400,359.6L400,359.6z"/>
	</g>
	<g>
		<polyline class="colora stl82b" points="400,-0.5 400,-0.5 400,359.6 400,400 400,400 		"/>
		<line class="colora stl82b" x1="39.9" y1="-0.5" x2="359.6" y2="-0.5"/>
		<line class="colora stl82b" x1="-0.5" y1="359.6" x2="-0.5" y2="39.9"/>
		<line class="colora stl82b" x1="359.6" y1="400" x2="39.9" y2="400"/>
		<polyline class="colora stl82b" points="359.6,-0.5 359.6,25 317.1,67.6 291.6,67.6 291.6,108 332,108 332,82.5 374.6,39.9 400,39.9 
			400,-0.5 		"/>
		<line class="colora stl82b" x1="291.6" y1="67.6" x2="359.6" y2="-0.5"/>
		<line class="colora stl82b" x1="332" y1="108" x2="400" y2="39.9"/>
		<polyline class="colora stl82b" points="-0.5,39.9 25,39.9 67.6,82.5 67.6,107.9 108,107.9 108,67.5 82.5,67.5 39.9,24.9 39.9,-0.5 		"/>
		<polyline class="colora stl82b" points="67.6,107.9 -0.5,39.9 -0.5,39.9 -0.5,39.9 		"/>
		<line class="colora stl82b" x1="108" y1="67.5" x2="39.9" y2="-0.5"/>
		<polyline class="colora stl82b" points="39.9,400 39.9,374.5 82.5,332 107.9,332 107.9,291.6 67.5,291.6 67.5,317 24.9,359.6 -0.5,359.6 		
			"/>
		<line class="colora stl82b" x1="107.9" y1="332" x2="39.9" y2="400"/>
		<polyline class="colora stl82b" points="67.5,291.6 -0.5,359.6 -0.5,359.6 		"/>
		<polyline class="colora stl82b" points="400,400 400,359.6 374.5,359.6 332,317.1 332,291.6 332,291.6 291.6,291.6 291.6,332 317,332 
			359.6,374.6 359.6,400 		"/>
		<polyline class="colora stl82b" points="332,291.6 400,359.6 400,359.6 		"/>
		<line class="colora stl82b" x1="291.6" y1="332" x2="359.6" y2="400"/>
		<polyline class="colora stl82b" points="213.6,254 213.6,254 253.9,254 253.9,213.6 		"/>
		<polyline class="colora stl82b" points="185.9,228.6 199.8,214.8 199.8,214.8 213.6,228.6 213.6,228.6 		"/>
		<polyline class="colora stl82b" points="184.8,199.8 184.8,199.8 171,213.6 145.6,213.6 145.6,254 185.9,254 185.9,254 		"/>
		<polyline class="colora stl82b" points="253.9,186 253.9,145.6 213.6,145.6 213.6,145.6 213.6,145.6 213.6,171 213.6,171 199.8,184.8 
			185.9,171 185.9,145.6 145.6,145.6 145.6,186 145.6,186 171,186 183.8,198.8 		"/>
		<polygon class="colora stl82b" points="253.9,186 228.6,186 214.8,199.8 227.4,212.5 228.6,213.6 253.9,213.6 240.2,199.7 		"/>
		<polygon class="colora stl82b" points="213.6,145.6 199.7,159.4 186,145.6 186,171 199.8,184.8 212.5,172.1 213.6,171 213.6,171 
			213.6,145.6 		"/>
		<polygon class="colora stl82b" points="145.6,186 159.4,199.8 145.6,213.6 171,213.6 184.8,199.8 183.8,198.8 172.1,187.1 171,186 
			171,185.9 145.6,185.9 		"/>
		<polygon class="colora stl82b" points="213.6,254 213.6,228.6 199.8,214.8 199.8,214.8 187.1,227.4 185.9,228.6 185.9,228.6 185.9,254 
			199.8,240.2 		"/>
	</g>
</g>
</svg>
