<?xml version="1.0" encoding="utf-8"?>
<!-- Generator: Adobe Illustrator 22.1.0, SVG Export Plug-In . SVG Version: 6.00 Build 0)  -->
<svg version="1.1" id="Layer_1" xmlns="http://www.w3.org/2000/svg" xmlns:xlink="http://www.w3.org/1999/xlink" x="0px" y="0px"
	 viewBox="0 0 400 400" style="enable-background:new 0 0 400 400;" xml:space="preserve">
<style type="text/css">
	.st0{fill:#FFFFFF;}
	.st1{fill:#D4F4A2;}
	.st2{fill:#E0DFDE;}
	.st3{fill:#913E3A;}
	.st4{fill:#EAE654;}
	.st5{fill:#8E9AF4;}
	.st6{fill:#819363;}
	.st7{fill:#ED7066;}
	.st8{fill:#F4B7B0;}
	.st9{fill:#707070;}
	.st10{fill:#56A5A5;}
	.st11{fill:#E8B356;}
	.st12{fill:#ACF460;}
	.st13{fill:#BFBFBF;}
	.st14{fill:none;stroke:#000000;stroke-width:0.375;stroke-linecap:round;stroke-linejoin:round;stroke-miterlimit:10;}
</style>
<g>
	<rect x="0.5" y="0.5" class="colora st0" width="399" height="399"/>
	<path d="M399,1v398H1V1H399 M400,0H0v400h400V0L400,0z"/>
</g>
<g id="XMLID_2_">
	<g>
		<polygon class="colora st0" points="400,380 400,400 0.1,400 0.1,380 0.2,380 399.9,380 		"/>
		<polygon class="colora st1" points="400,340.1 400,380 399.9,380 0.2,380 0.1,380 0.1,340.1 0.2,340.1 399.9,340.1 		"/>
		<polygon class="colora st2" points="400,320.1 400,340.1 399.9,340.1 0.2,340.1 0.1,340.1 0.1,320.1 0.2,320.1 399.9,320.1 		"/>
		<path class="colora st3" d="M400,260.5v27.2h-0.1l-67-85.2l-0.5-0.9l-0.3-1v-1l0.3-1l0.5-0.9l67-85.2h0.1v34.2h-0.1l-2.5,6.2l-2.4,6.5
			l-2,6.6l-1.8,6.8l-1.4,6.8l-1,6.9l-0.7,6.9l-0.3,6.9v6.9l0.3,6.9l0.7,6.9l1,6.9l1.4,6.8l1.8,6.7l2,6.6l2.4,6.5L400,260.5
			L400,260.5z M385.9,253.5l-1.9-11.8l-2.2-11.8l-2.5-11.6l-2.8-11.6l-1-2.4l-1.4-2.2l-1.6-1.9l-1.9-1.7l-2.6-2.5l-2.9-2.2l-3.1-1.9
			l-3.2-1.7l-3.3-1.4l-3.5-1.1l-1.2,0.5l-1.1,0.8l-0.8,1.1l-0.4,1.2l-0.1,1.4l1.3,4.8l1.5,4.7l1.9,4.6l2.2,4.5l2.4,4.3l2.8,4.1
			l3,4.1l3.2,3.7l3.5,3.6l2.5,2.4l2.3,2.7l1.9,2.9l1.6,3.1l1.4,3.2l0.8,2.2l1.1,2l1.4,1.9l1.6,1.7l0.4,0.3h0.4L385.9,253.5z"/>
		<polygon class="colora st4" points="400,146.6 400,260.5 399.9,260.5 397.4,254.3 395,247.8 392.9,241.2 391.2,234.5 389.8,227.7 
			388.8,220.9 388.1,213.9 387.8,207.1 387.8,200.1 388.1,193.2 388.8,186.3 389.8,179.5 391.2,172.7 392.9,165.9 395,159.3 
			397.4,152.8 399.9,146.6 		"/>
		<polygon class="colora st5" points="400,60 400,80 399.9,80 0.2,80 0.1,80 0.1,60 0.2,60 399.9,60 		"/>
		<polygon class="colora st6" points="400,20.1 400,60 399.9,60 0.2,60 0.1,60 0.1,20.1 0.2,20.1 399.9,20.1 		"/>
		<polygon points="400,0.1 400,20.1 399.9,20.1 0.2,20.1 0.1,20.1 0.1,0.1 		"/>
		<polygon class="colora st4" points="385.9,253.5 385.5,253.8 385.1,253.8 384.7,253.5 383,251.9 381.6,249.9 380.5,247.9 379.7,245.7 
			378.3,242.5 376.7,239.3 374.7,236.4 372.5,233.7 370,231.4 366.5,227.7 363.3,224 360.4,219.9 357.6,215.8 355.2,211.5 353,207 
			351.1,202.4 349.6,197.7 348.3,192.8 348.4,191.5 348.8,190.3 349.6,189.2 350.7,188.4 351.9,187.9 355.4,189 358.7,190.3 
			361.9,192 365,193.9 367.9,196.2 370.5,198.6 372.5,200.3 374.1,202.2 375.4,204.4 376.4,206.8 379.2,218.4 381.8,230 384,241.8 
					"/>
		<path class="colora st7" d="M134.1,264.1l1,1l4,3.8l4.3,3.6l4.5,3.3l4.7,3l4.8,2.7l5,2.5l5.2,2.1l5.2,1.9l5.3,1.4l5.4,1.2l5.5,0.8
			l5.5,0.5l5.6,0.2l5.6-0.2l5.5-0.5l5.5-0.8l5.4-1.2l5.3-1.4l5.2-1.9l5.2-2.1l5-2.5l4.8-2.7l4.7-3l4.5-3.3l4.3-3.6l4-3.8l1-1l2.9-3
			l3.6-4.3l3.3-4.5l3-4.7l0.5-1l2.2-3.9l2.5-5l2.1-5.2l1.9-5.2l1.4-5.3l1.2-5.4l0.8-5.5l0.5-5.5l0.2-5.6l-0.2-5.6l-0.5-5.5l-0.8-5.5
			l-1.2-5.4l-1.4-5.3l-1.9-5.2l-2.1-5.2l-2.5-5l-2.2-3.9l-0.5-1l-3-4.7l-3.3-4.5l-3.6-4.3l-2.9-3l-1-1l-4-3.8l-4.3-3.6l-4.5-3.3
			l-4.7-3l-4.8-2.7l-5-2.5l-5.2-2.1l-5.2-1.9l-5.3-1.4l-5.4-1.2l-5.5-0.8l-5.5-0.5L200,108l-5.6,0.2l-5.5,0.5l-5.5,0.8l-5.4,1.2
			l-5.3,1.4l-5.2,1.9l-5.2,2.1l-5,2.5l-4.8,2.7l-4.7,3l-4.5,3.3l-4.3,3.6l-4,3.8l-1,1l-2.9,3l-3.6,4.3l-3.3,4.5l-3,4.7l-0.5,1
			l-2.2,3.9l-2.5,5l-2.1,5.2l-1.9,5.2l-1.4,5.3l-1.2,5.4l-0.8,5.5l-0.5,5.5L108,200l0.2,5.6l0.5,5.5l0.8,5.5l1.2,5.4l1.4,5.3
			l1.9,5.2l2.1,5.2l2.5,5l2.2,3.9l0.5,1l3,4.7l3.3,4.5l3.6,4.3L134.1,264.1z M311.8,193.9l0.2,6.1l-0.2,6.1l-0.5,6l-0.7,5.3v0
			l-0.1,0.7l-1.2,5.9L308,230l-1.8,5.8l-2.1,5.8l-2.4,5.6l-2.6,5.2l-0.1,0.2l-3,5.2l-3.3,5.1l-3.6,5l-3.8,4.7l-4.1,4.6l-0.3,0.3
			l-3.9,3.9l-4.6,4.1l-4.7,3.8l-5,3.6l-5.1,3.3l-5.2,3l-5.4,2.7l-5.6,2.4l-5.8,2.1L230,308l-5.9,1.4l-5.9,1.2l-6,0.8l-6,0.5L200,312
			l-6.1-0.2l-6-0.5l-6-0.8l-5.9-1.2l-5.9-1.4l-5.8-1.8l-5.8-2.1l-5.6-2.4l-5.4-2.7l-5.2-3l-5.1-3.3l-5-3.6l-4.7-3.8l-4.6-4.1
			l-3.9-3.9l-0.3-0.3l-4.1-4.6l-3.8-4.7l-3.6-5l-3.3-5.1l-3-5.2l-0.1-0.2l-2.6-5.2l-2.4-5.6l-2.1-5.8l-1.8-5.8l-1.4-5.9l-1.2-5.9
			l-0.1-0.7v0l-0.7-5.3l-0.5-6L88,200l0.2-6.1l0.5-6l0.7-5.3v0l0.1-0.7l1.2-5.9l1.4-5.9l1.8-5.8l2.1-5.8l2.4-5.6l2.6-5.2l0.1-0.2
			l3-5.2l3.3-5.1l3.6-5l3.8-4.7l4.1-4.6l0.3-0.3l3.9-3.9l4.6-4.1l4.7-3.8l5-3.6l5.1-3.3l5.2-3l5.4-2.7l5.6-2.4l5.8-2.1l5.8-1.8
			l5.9-1.4l5.9-1.2l6-0.8l6-0.5L200,88l6.1,0.2l6,0.5l6,0.8l5.9,1.2l5.9,1.4l5.8,1.8l5.8,2.1l5.6,2.4l5.4,2.7l5.2,3l5.1,3.3l5,3.6
			l4.7,3.8l4.6,4.1l3.9,3.9l0.3,0.3l4.1,4.6l3.8,4.7l3.6,5l3.3,5.1l3,5.2l0.1,0.2l2.6,5.2l2.4,5.6l2.1,5.8l1.8,5.8l1.4,5.9l1.2,5.9
			l0.1,0.7v0l0.7,5.3L311.8,193.9z"/>
		<polygon class="colora st8" points="311.3,187.9 310.7,182.6 310.9,183.5 311.4,184.5 312.2,185.1 313.1,185.7 314.1,185.9 315.2,185.9 
			316.1,185.7 317,185.1 317.8,184.4 399.9,80.2 400,80.2 400,112.4 399.9,112.4 332.8,197.6 332.3,198.5 332,199.5 332,200.6 
			332.3,201.6 332.8,202.5 399.9,287.7 400,287.7 400,319.9 399.9,319.9 317.8,215.7 317,214.9 316.1,214.4 315.2,214.2 
			314.1,214.2 313.1,214.4 312.2,214.9 311.4,215.6 310.9,216.6 310.7,217.5 311.3,212.1 311.8,206.1 312,200 311.8,193.9 		"/>
		<polygon class="colora st9" points="291.9,194.5 292,200 291.9,205.6 291.4,211.1 290.5,216.6 289.3,222.1 287.9,227.4 286,232.6 
			283.9,237.8 281.5,242.8 279.3,246.7 275.7,244.9 272.1,242.8 268.8,240.5 265.7,237.9 262.8,235.1 260.1,232 257.8,228.7 
			255.6,225.3 253.7,221.7 252.2,217.9 250.9,214.1 249.9,210.1 249.3,206.1 249,202.1 249,198 249.3,193.9 249.9,190 250.9,186 
			252.2,182.2 253.7,178.4 255.6,174.8 257.8,171.3 260.1,168.1 262.8,165 265.7,162.2 268.8,159.6 272.1,157.3 275.7,155.2 
			279.3,153.4 281.5,157.3 283.9,162.3 286,167.5 287.9,172.7 289.3,178 290.5,183.5 291.4,189 		"/>
		<polygon class="colora st10" points="370.5,104.3 368.8,106.9 366.9,109.4 364.7,111.6 362.2,113.5 359.7,115.2 356.9,116.7 354,117.8 
			351,118.7 348,119.2 344.9,119.5 342.1,119.5 339.2,120 336.4,120.6 333.7,121.6 331.2,122.8 328.7,124.3 326.3,126.1 
			324.2,127.9 322.3,130.1 323.6,131.6 324.6,133.4 325.3,135.3 325.7,137.2 325.9,139.2 325.7,141.2 325.2,143.2 324.5,145 
			323.4,146.7 322.1,148.2 320.7,149.6 319,150.6 318.1,150.9 317.3,150.9 316.5,150.7 315.8,150.1 313.6,149 311.3,148.1 
			308.9,147.5 306.4,147.1 304,147.1 301.5,147.2 299.1,147.7 299,147.6 296,142.3 292.7,137.2 289.2,132.2 285.4,127.6 281.3,123 
			281,122.7 281,122.7 285.4,119.5 290.1,116.6 294.9,114 299.9,111.7 305,109.9 310.2,108.4 315.6,107.2 321,106.3 326.5,105.9 
			331.9,105.8 337.4,106.2 343.2,106.6 349,106.8 354.9,106.5 360.6,105.9 363.2,105.1 365.7,104.1 368.1,102.9 368.5,102.5 
			369.1,102.4 369.6,102.5 370.1,102.8 370.4,103.2 370.6,103.8 		"/>
		<polygon class="colora st10" points="370.1,297.3 369.6,297.6 369.1,297.7 368.5,297.6 368.1,297.2 365.7,296 363.2,294.9 360.6,294.2 
			354.9,293.6 349,293.3 343.2,293.5 337.4,293.9 331.9,294.3 326.5,294.2 321,293.8 315.6,292.9 310.2,291.7 305,290.2 
			299.9,288.3 294.9,286.1 290.1,283.5 285.4,280.6 281,277.4 281,277.4 281.3,277.1 285.4,272.5 289.2,267.9 292.7,262.9 
			296,257.8 299,252.5 299.1,252.4 301.5,252.9 304,253 306.4,253 308.9,252.6 311.3,252 313.6,251.1 315.8,250 316.5,249.4 
			317.3,249.1 318.1,249.1 319,249.5 320.7,250.5 322.1,251.9 323.4,253.4 324.5,255.1 325.2,256.9 325.7,258.9 325.9,260.9 
			325.7,262.9 325.3,264.8 324.6,266.7 323.6,268.4 322.3,270 324.2,272.2 326.3,274 328.7,275.8 331.2,277.2 333.7,278.5 
			336.4,279.4 339.2,280.1 342.1,280.6 344.9,280.6 348,280.9 351,281.4 354,282.2 356.9,283.4 359.7,284.9 362.2,286.6 
			364.7,288.5 366.9,290.7 368.8,293.2 370.5,295.8 370.6,296.3 370.4,296.9 		"/>
		<polygon class="colora st10" points="279.3,246.7 278.8,247.6 275.7,252.3 272.4,256.8 268.8,261.1 266,264.1 262.2,260.5 258.4,256.5 
			255,252.4 251.9,248 249.1,243.5 246.5,238.8 244.2,233.9 242.3,229 240.7,223.8 239.3,218.7 238.3,213.4 237.6,208.1 
			237.3,202.8 237.3,197.3 237.6,192 238.3,186.7 239.3,181.4 240.7,176.3 242.3,171.1 244.2,166.2 246.5,161.3 249.1,156.6 
			251.9,152 255,147.7 258.4,143.6 262.2,139.6 266,136 268.8,139 272.4,143.3 275.7,147.8 278.8,152.5 279.3,153.4 275.7,155.2 
			272.1,157.3 268.8,159.6 265.7,162.2 262.8,165 260.1,168.1 257.8,171.3 255.6,174.8 253.7,178.4 252.2,182.2 250.9,186 
			249.9,190 249.3,193.9 249,198 249,202.1 249.3,206.1 249.9,210.1 250.9,214.1 252.2,217.9 253.7,221.7 255.6,225.3 257.8,228.7 
			260.1,232 262.8,235.1 265.7,237.9 268.8,240.5 272.1,242.8 275.7,244.9 		"/>
		<polygon class="colora st11" points="250.8,135.6 250.9,136.4 250.5,137.1 246.2,139.2 242.1,141.5 238.1,144.2 234.4,147.1 230.8,150.3 
			227.5,153.7 224.4,157.3 221.6,161.1 219.1,165.2 216.8,169.3 214.8,173.6 213.1,178.1 211.8,182.7 210.8,187.3 210.1,192 
			189.9,192 189.3,187.3 188.3,182.7 186.9,178.1 185.2,173.6 183.3,169.3 181,165.2 178.4,161.1 175.6,157.3 172.5,153.7 
			169.2,150.3 165.7,147.1 161.9,144.2 157.9,141.5 153.8,139.2 149.6,137.1 149.1,136.4 149.2,135.6 149.7,134.9 150.5,134.7 
			155.1,135.1 159.6,135.9 164.1,137 168.5,138.5 172.8,140.3 176.9,142.4 180.8,144.8 184.5,147.6 188.1,150.7 191.3,154 
			190.4,150.1 189.7,146.1 189.4,142.1 189.4,138.2 189.9,134.2 190.5,130.3 191.6,126.4 192.8,122.7 194.5,119 196.5,115.6 
			197.1,114.7 198,114 198.9,113.6 200,113.5 201.1,113.6 202.1,114 203,114.7 203.6,115.6 205.5,119 207.2,122.7 208.5,126.4 
			209.5,130.3 210.2,134.2 210.6,138.2 210.6,142.1 210.3,146.1 209.7,150.1 208.7,154 212,150.7 215.5,147.6 219.2,144.8 
			223.1,142.4 227.3,140.3 231.5,138.5 235.9,137 240.4,135.9 245,135.1 249.5,134.7 250.3,134.9 		"/>
		<polygon class="colora st11" points="250.8,264.5 250.3,265.1 249.5,265.4 245,265 240.4,264.2 235.9,263.1 231.5,261.6 227.3,259.8 
			223.1,257.7 219.2,255.2 215.5,252.4 212,249.4 208.7,246.1 209.7,250 210.3,254 210.6,257.9 210.6,261.9 210.2,265.9 
			209.5,269.8 208.5,273.7 207.2,277.4 205.5,281.1 203.6,284.5 203,285.4 202.1,286.1 201.1,286.5 200,286.6 198.9,286.5 
			198,286.1 197.1,285.4 196.5,284.5 194.5,281.1 192.8,277.4 191.6,273.7 190.5,269.8 189.9,265.9 189.4,261.9 189.4,257.9 
			189.7,254 190.4,250 191.3,246.1 188.1,249.4 184.5,252.4 180.8,255.2 176.9,257.7 172.8,259.8 168.5,261.6 164.1,263.1 
			159.6,264.2 155.1,265 150.5,265.4 149.7,265.1 149.2,264.5 149.1,263.7 149.6,262.9 153.8,260.9 157.9,258.5 161.9,255.9 
			165.7,253 169.2,249.8 172.5,246.4 175.6,242.8 178.4,239 181,234.9 183.3,230.8 185.2,226.5 186.9,222 188.3,217.4 189.3,212.7 
			189.9,208.1 210.1,208.1 210.8,212.7 211.8,217.4 213.1,222 214.8,226.5 216.8,230.8 219.1,234.9 221.6,239 224.4,242.8 
			227.5,246.4 230.8,249.8 234.4,253 238.1,255.9 242.1,258.5 246.2,260.9 250.5,262.9 250.9,263.7 		"/>
		<polygon class="colora st12" points="227.9,198.5 228,200 227.9,201.6 227.4,203.1 226.7,204.5 225.7,205.7 224.5,206.7 223,207.4 
			221.6,207.9 220,208.1 210.1,208.1 189.9,208.1 180,208.1 178.4,207.9 177,207.4 175.6,206.7 174.4,205.7 173.4,204.5 
			172.6,203.1 172.2,201.6 172,200 172.2,198.5 172.6,197 173.4,195.6 174.4,194.4 175.6,193.4 177,192.7 178.4,192.2 180,192 
			189.9,192 210.1,192 220,192 221.6,192.2 223,192.7 224.5,193.4 225.7,194.4 226.7,195.6 227.4,197 		"/>
		<path class="colora st9" d="M209.7,250l-0.9-3.9l3.2,3.3l3.6,3l3.7,2.8l3.9,2.5l4.1,2.1l4.2,1.8l4.4,1.5l4.5,1.1l4.6,0.8l4.6,0.4l0.8-0.3
			l0.5-0.7l0.1-0.8l-0.4-0.8l-4.2-2l-4.1-2.4l-4-2.6l-3.7-3l-3.6-3.1l-3.3-3.4l-3.1-3.6l-2.8-3.8l-2.5-4.1l-2.3-4.1l-1.9-4.3
			l-1.7-4.5l-1.4-4.6l-1-4.7l-0.7-4.7h9.9l1.6-0.2l1.4-0.5l1.4-0.7l1.2-1l1-1.2l0.8-1.4l0.4-1.5l0.2-1.5l-0.2-1.5l-0.4-1.5l-0.8-1.4
			l-1-1.2l-1.2-1l-1.4-0.7l-1.4-0.5L220,192h-9.9l0.7-4.7l1-4.7l1.4-4.6l1.7-4.5l1.9-4.3l2.3-4.1l2.5-4.1l2.8-3.8l3.1-3.6l3.3-3.4
			l3.6-3.1l3.7-3l4-2.6l4.1-2.4l4.2-2l0.4-0.8l-0.1-0.8l-0.5-0.7l-0.8-0.3l-4.6,0.4l-4.6,0.8l-4.5,1.1l-4.4,1.5l-4.2,1.8l-4.1,2.1
			l-3.9,2.5l-3.7,2.8l-3.6,3l-3.2,3.3l0.9-3.9l0.7-4l0.3-4v-4l-0.4-4l-0.7-3.9l-1-3.9l-1.3-3.7l-1.7-3.6l-1.9-3.5l-0.6-0.8l-0.9-0.7
			l-0.9-0.4l-1.1-0.1l-1.1,0.1L198,114l-0.9,0.7l-0.6,0.8l-1.9,3.5l-1.7,3.6l-1.3,3.7l-1,3.9l-0.7,3.9l-0.4,4v4l0.3,4l0.7,4l0.9,3.9
			l-3.2-3.3l-3.6-3l-3.7-2.8l-3.9-2.5l-4.1-2.1l-4.2-1.8l-4.4-1.5l-4.5-1.1l-4.6-0.8l-4.6-0.4l-0.8,0.3l-0.5,0.7l-0.1,0.8l0.4,0.8
			l4.2,2l4.1,2.4l4,2.6l3.7,3l3.6,3.1l3.3,3.4l3.1,3.6l2.8,3.8l2.5,4.1l2.3,4.1l1.9,4.3l1.7,4.5l1.4,4.6l1,4.7l0.7,4.7H180l-1.6,0.2
			l-1.4,0.5l-1.4,0.7l-1.2,1l-1,1.2l-0.8,1.4l-0.4,1.5L172,200l0.2,1.5l0.4,1.5l0.8,1.4l1,1.2l1.2,1l1.4,0.7l1.4,0.5l1.6,0.2h9.9
			l-0.7,4.7l-1,4.7l-1.4,4.6l-1.7,4.5l-1.9,4.3l-2.3,4.1l-2.5,4.1l-2.8,3.8l-3.1,3.6l-3.3,3.4l-3.6,3.1l-3.7,3l-4,2.6l-4.1,2.4
			l-4.2,2l-0.4,0.8l0.1,0.8l0.5,0.7l0.8,0.3l4.6-0.4l4.6-0.8l4.5-1.1l4.4-1.5l4.2-1.8l4.1-2.1l3.9-2.5l3.7-2.8l3.6-3l3.2-3.3
			l-0.9,3.9l-0.7,4l-0.3,4v4l0.4,4l0.7,3.9l1,3.9l1.3,3.7l1.7,3.6l1.9,3.5l0.6,0.8l0.9,0.7l0.9,0.4l1.1,0.1l1.1-0.1l0.9-0.4l0.9-0.7
			l0.6-0.8l1.9-3.5l1.7-3.6l1.3-3.7l1-3.9l0.7-3.9l0.4-4v-4l-0.3-4L209.7,250z M266,264.1l-1,1l-4,3.8l-4.3,3.6l-4.5,3.3l-4.7,3
			l-4.8,2.7l-5,2.5l-5.2,2.1l-5.2,1.9l-5.3,1.4l-5.4,1.2l-5.5,0.8l-5.5,0.5l-5.6,0.2l-5.6-0.2l-5.5-0.5l-5.5-0.8l-5.4-1.2l-5.3-1.4
			l-5.2-1.9l-5.2-2.1l-5-2.5l-4.8-2.7l-4.7-3l-4.5-3.3l-4.3-3.6l-4-3.8l-1-1l3.8-3.6l3.7-4l3.4-4.1l3.1-4.3l2.8-4.6l2.6-4.7l2.3-4.9
			l1.9-4.9l1.6-5.2l1.4-5.2l1-5.2l0.7-5.3l0.3-5.3v-5.4l-0.3-5.3l-0.7-5.3l-1-5.2l-1.4-5.2l-1.6-5.2l-1.9-4.9l-2.3-4.9l-2.6-4.7
			l-2.8-4.6l-3.1-4.3l-3.4-4.1l-3.7-4l-3.8-3.6l1-1l4-3.8l4.3-3.6l4.5-3.3l4.7-3l4.8-2.7l5-2.5l5.2-2.1l5.2-1.9l5.3-1.4l5.4-1.2
			l5.5-0.8l5.5-0.5l5.6-0.2l5.6,0.2l5.5,0.5l5.5,0.8l5.4,1.2l5.3,1.4l5.2,1.9l5.2,2.1l5,2.5l4.8,2.7l4.7,3l4.5,3.3l4.3,3.6l4,3.8
			l1,1l-3.8,3.6l-3.7,4l-3.4,4.1l-3.1,4.3l-2.8,4.6l-2.6,4.7l-2.3,4.9l-1.9,4.9l-1.6,5.2l-1.4,5.2l-1,5.2l-0.7,5.3l-0.3,5.3v5.4
			l0.3,5.3l0.7,5.3l1,5.2l1.4,5.2l1.6,5.2l1.9,4.9l2.3,4.9l2.6,4.7l2.8,4.6l3.1,4.3l3.4,4.1l3.7,4L266,264.1z"/>
		<polygon class="colora st10" points="162.8,197.3 162.8,202.8 162.4,208.1 161.8,213.4 160.7,218.7 159.4,223.8 157.8,229 155.8,233.9 
			153.5,238.8 150.9,243.5 148.1,248 145,252.4 141.6,256.5 137.9,260.5 134.1,264.1 131.2,261.1 127.6,256.8 124.3,252.3 
			121.3,247.6 120.8,246.7 124.3,244.9 127.9,242.8 131.2,240.5 134.3,237.9 137.2,235.1 139.9,232 142.3,228.7 144.5,225.3 
			146.4,221.7 147.9,217.9 149.1,214.1 150.2,210.1 150.8,206.1 151.1,202.1 151.1,198 150.8,193.9 150.2,190 149.1,186 
			147.9,182.2 146.4,178.4 144.5,174.8 142.3,171.3 139.9,168.1 137.2,165 134.3,162.2 131.2,159.6 127.9,157.3 124.3,155.2 
			120.8,153.4 121.3,152.5 124.3,147.8 127.6,143.3 131.2,139 134.1,136 137.9,139.6 141.6,143.6 145,147.7 148.1,152 150.9,156.6 
			153.5,161.3 155.8,166.2 157.8,171.1 159.4,176.3 160.7,181.4 161.8,186.7 162.4,192 		"/>
		<polygon class="colora st9" points="151.1,198 151.1,202.1 150.8,206.1 150.2,210.1 149.1,214.1 147.9,217.9 146.4,221.7 144.5,225.3 
			142.3,228.7 139.9,232 137.2,235.1 134.3,237.9 131.2,240.5 127.9,242.8 124.3,244.9 120.8,246.7 118.6,242.8 116.1,237.8 
			114,232.6 112.2,227.4 110.7,222.1 109.5,216.6 108.7,211.1 108.2,205.6 108,200 108.2,194.5 108.7,189 109.5,183.5 110.7,178 
			112.2,172.7 114,167.5 116.1,162.3 118.6,157.3 120.8,153.4 124.3,155.2 127.9,157.3 131.2,159.6 134.3,162.2 137.2,165 
			139.9,168.1 142.3,171.3 144.5,174.8 146.4,178.4 147.9,182.2 149.1,186 150.2,190 150.8,193.9 		"/>
		<polygon class="colora st10" points="119,277.4 114.6,280.6 110,283.5 105.1,286.1 100.1,288.3 95.1,290.2 89.8,291.7 84.5,292.9 
			79.1,293.8 73.5,294.2 68.1,294.3 62.6,293.9 56.9,293.5 51,293.3 45.2,293.6 39.4,294.2 36.8,294.9 34.4,296 32,297.2 
			31.6,297.6 31,297.7 30.5,297.6 30,297.3 29.6,296.9 29.4,296.3 29.5,295.8 31.2,293.2 33.2,290.7 35.4,288.5 37.8,286.6 
			40.4,284.9 43.2,283.4 46,282.2 49,281.4 52,280.9 55.2,280.6 58,280.6 60.9,280.1 63.6,279.4 66.4,278.5 68.9,277.2 71.3,275.8 
			73.7,274 75.8,272.2 77.7,270 76.4,268.4 75.4,266.7 74.7,264.8 74.3,262.9 74.1,260.9 74.3,258.9 74.8,256.9 75.6,255.1 
			76.6,253.4 78,251.9 79.4,250.5 81.1,249.5 81.9,249.1 82.8,249.1 83.5,249.4 84.2,250 86.4,251.1 88.7,252 91.2,252.6 93.6,253 
			96.1,253 98.5,252.9 101,252.4 101.1,252.5 104,257.8 107.3,262.9 110.9,267.9 114.7,272.5 118.8,277.1 119.1,277.4 		"/>
		<polygon class="colora st8" points="88.7,212.1 89.4,217.5 89.1,216.6 88.6,215.6 87.9,214.9 86.9,214.4 85.9,214.2 84.9,214.2 84,214.4 
			83,214.9 82.3,215.7 0.2,319.9 0.1,319.9 0.1,287.7 0.2,287.7 67.2,202.5 67.7,201.6 68,200.6 68,199.5 67.7,198.5 67.2,197.6 
			0.2,112.4 0.1,112.4 0.1,80.2 0.2,80.2 82.3,184.4 83,185.1 84,185.7 84.9,185.9 85.9,185.9 86.9,185.7 87.9,185.1 88.6,184.5 
			89.1,183.5 89.4,182.6 88.7,187.9 88.2,193.9 88,200 88.2,206.1 		"/>
		<path class="colora st3" d="M68,199.5v1l-0.3,1l-0.5,0.9l-67,85.2H0.1v-27.2h0.1l2.5-6.2l2.4-6.5l2-6.6l1.8-6.7l1.4-6.8l1-6.9l0.7-6.9
			l0.3-6.9v-6.9l-0.3-6.9l-0.7-6.9l-1-6.9l-1.4-6.8l-1.8-6.8l-2-6.6l-2.4-6.5l-2.5-6.2H0.1v-34.2h0.1l67,85.2l0.5,0.9L68,199.5z
			 M51.7,192.8l-0.1-1.4l-0.4-1.2l-0.8-1.1l-1.1-0.8l-1.2-0.5l-3.5,1.1l-3.3,1.4l-3.2,1.7l-3.1,1.9l-2.9,2.2l-2.6,2.5l-1.9,1.7
			l-1.6,1.9l-1.4,2.2l-1,2.4l-2.8,11.6L18.3,230l-2.2,11.8l-1.9,11.8l0.4,0.3H15l0.4-0.3l1.6-1.7l1.4-1.9l1.1-2l0.8-2.2l1.4-3.2
			l1.6-3.1l1.9-2.9l2.3-2.7l2.5-2.4l3.5-3.6l3.2-3.7l3-4.1l2.8-4.1l2.4-4.3l2.2-4.5l1.9-4.6l1.5-4.7L51.7,192.8z"/>
		<polygon class="colora st10" points="30,102.8 30.5,102.5 31,102.4 31.6,102.5 32,102.9 34.4,104.1 36.8,105.1 39.4,105.9 45.2,106.5 
			51,106.8 56.9,106.6 62.6,106.2 68.1,105.8 73.5,105.9 79.1,106.3 84.5,107.2 89.8,108.4 95.1,109.9 100.1,111.7 105.1,114 
			110,116.6 114.6,119.5 119,122.7 119.1,122.7 118.8,123 114.7,127.6 110.9,132.2 107.3,137.2 104,142.3 101.1,147.6 101,147.7 
			98.5,147.2 96.1,147.1 93.6,147.1 91.2,147.5 88.7,148.1 86.4,149 84.2,150.1 83.5,150.7 82.8,150.9 81.9,150.9 81.1,150.6 
			79.4,149.6 78,148.2 76.6,146.7 75.6,145 74.8,143.2 74.3,141.2 74.1,139.2 74.3,137.2 74.7,135.3 75.4,133.4 76.4,131.6 
			77.7,130.1 75.8,127.9 73.7,126.1 71.3,124.3 68.9,122.8 66.4,121.6 63.6,120.6 60.9,120 58,119.5 55.2,119.5 52,119.2 49,118.7 
			46,117.8 43.2,116.7 40.4,115.2 37.8,113.5 35.4,111.6 33.2,109.4 31.2,106.9 29.5,104.3 29.4,103.8 29.6,103.2 		"/>
		<polygon class="colora st4" points="15.4,253.5 15,253.8 14.5,253.8 14.1,253.5 16.1,241.8 18.3,230 20.8,218.4 23.6,206.8 24.6,204.4 
			26,202.2 27.6,200.3 29.5,198.6 32.2,196.2 35,193.9 38.2,192 41.4,190.3 44.7,189 48.2,187.9 49.3,188.4 50.4,189.2 51.2,190.3 
			51.6,191.5 51.7,192.8 50.4,197.7 48.9,202.4 47.1,207 44.9,211.5 42.5,215.8 39.7,219.9 36.7,224 33.5,227.7 30,231.4 
			27.6,233.7 25.3,236.4 23.3,239.3 21.7,242.5 20.4,245.7 19.5,247.9 18.4,249.9 17,251.9 		"/>
		<polygon class="colora st4" points="12.3,200.1 12.3,207.1 11.9,213.9 11.2,220.9 10.2,227.7 8.9,234.5 7.1,241.2 5.1,247.8 2.7,254.3 
			0.2,260.5 0.1,260.5 0.1,146.6 0.2,146.6 2.7,152.8 5.1,159.3 7.1,165.9 8.9,172.7 10.2,179.5 11.2,186.3 11.9,193.2 		"/>
		<polygon class="colora st13" points="0.2,319.9 82.3,215.7 83,214.9 84,214.4 84.9,214.2 85.9,214.2 86.9,214.4 87.9,214.9 88.6,215.6 
			89.1,216.6 89.4,217.5 89.4,217.5 89.5,218.2 90.6,224.1 92.1,230 93.9,235.8 96,241.5 98.4,247.1 101,252.4 98.5,252.9 96.1,253 
			93.6,253 91.2,252.6 88.7,252 86.4,251.1 84.2,250 83.5,249.4 82.8,249.1 81.9,249.1 81.1,249.5 79.4,250.5 78,251.9 76.6,253.4 
			75.6,255.1 74.8,256.9 74.3,258.9 74.1,260.9 74.3,262.9 74.7,264.8 75.4,266.7 76.4,268.4 77.7,270 75.8,272.2 73.7,274 
			71.3,275.8 68.9,277.2 66.4,278.5 63.6,279.4 60.9,280.1 58,280.6 55.2,280.6 52,280.9 49,281.4 46,282.2 43.2,283.4 40.4,284.9 
			37.8,286.6 35.4,288.5 33.2,290.7 31.2,293.2 29.5,295.8 29.4,296.3 29.6,296.9 30,297.3 30.5,297.6 31,297.7 31.6,297.6 
			32,297.2 34.4,296 36.8,294.9 39.4,294.2 45.2,293.6 51,293.3 56.9,293.5 62.6,293.9 68.1,294.3 73.5,294.2 79.1,293.8 
			84.5,292.9 89.8,291.7 95.1,290.2 100.1,288.3 105.1,286.1 110,283.5 114.6,280.6 119,277.4 119.1,277.4 123,281.3 127.6,285.4 
			132.2,289.2 137.2,292.7 142.3,296 147.5,299 153,301.7 158.5,304.1 164.3,306.2 170.1,308 176,309.4 181.9,310.6 187.9,311.4 
			193.9,311.9 200,312 206.1,311.9 212.1,311.4 218.1,310.6 224.1,309.4 230,308 235.7,306.2 241.5,304.1 247.1,301.7 252.5,299 
			257.8,296 262.8,292.7 267.8,289.2 272.5,285.4 277.1,281.3 281,277.4 281,277.4 285.4,280.6 290.1,283.5 294.9,286.1 
			299.9,288.3 305,290.2 310.2,291.7 315.6,292.9 321,293.8 326.5,294.2 331.9,294.3 337.4,293.9 343.2,293.5 349,293.3 
			354.9,293.6 360.6,294.2 363.2,294.9 365.7,296 368.1,297.2 368.5,297.6 369.1,297.7 369.6,297.6 370.1,297.3 370.4,296.9 
			370.6,296.3 370.5,295.8 368.8,293.2 366.9,290.7 364.7,288.5 362.2,286.6 359.7,284.9 356.9,283.4 354,282.2 351,281.4 
			348,280.9 344.9,280.6 342.1,280.6 339.2,280.1 336.4,279.4 333.7,278.5 331.2,277.2 328.7,275.8 326.3,274 324.2,272.2 
			322.3,270 323.6,268.4 324.6,266.7 325.3,264.8 325.7,262.9 325.9,260.9 325.7,258.9 325.2,256.9 324.5,255.1 323.4,253.4 
			322.1,251.9 320.7,250.5 319,249.5 318.1,249.1 317.3,249.1 316.5,249.4 315.8,250 313.6,251.1 311.3,252 308.9,252.6 306.4,253 
			304,253 301.5,252.9 299.1,252.4 301.7,247.1 304.1,241.5 306.2,235.8 308,230 309.4,224.1 310.6,218.2 310.7,217.5 310.7,217.5 
			310.9,216.6 311.4,215.6 312.2,214.9 313.1,214.4 314.1,214.2 315.2,214.2 316.1,214.4 317,214.9 317.8,215.7 399.9,319.9 
			400,319.9 400,320.1 399.9,320.1 0.2,320.1 0.1,320.1 0.1,319.9 		"/>
		<polygon class="colora st13" points="399.9,80.2 317.8,184.4 317,185.1 316.1,185.7 315.2,185.9 314.1,185.9 313.1,185.7 312.2,185.1 
			311.4,184.5 310.9,183.5 310.7,182.6 310.7,182.6 310.6,181.9 309.4,176 308,170.1 306.2,164.3 304.1,158.6 301.7,153 
			299.1,147.7 301.5,147.2 304,147.1 306.4,147.1 308.9,147.5 311.3,148.1 313.6,149 315.8,150.1 316.5,150.7 317.3,150.9 
			318.1,150.9 319,150.6 320.7,149.6 322.1,148.2 323.4,146.7 324.5,145 325.2,143.2 325.7,141.2 325.9,139.2 325.7,137.2 
			325.3,135.3 324.6,133.4 323.6,131.6 322.3,130.1 324.2,127.9 326.3,126.1 328.7,124.3 331.2,122.8 333.7,121.6 336.4,120.6 
			339.2,120 342.1,119.5 344.9,119.5 348,119.2 351,118.7 354,117.8 356.9,116.7 359.7,115.2 362.2,113.5 364.7,111.6 366.9,109.4 
			368.8,106.9 370.5,104.3 370.6,103.8 370.4,103.2 370.1,102.8 369.6,102.5 369.1,102.4 368.5,102.5 368.1,102.9 365.7,104.1 
			363.2,105.1 360.6,105.9 354.9,106.5 349,106.8 343.2,106.6 337.4,106.2 331.9,105.8 326.5,105.9 321,106.3 315.6,107.2 
			310.2,108.4 305,109.9 299.9,111.7 294.9,114 290.1,116.6 285.4,119.5 281,122.7 281,122.7 277.1,118.8 272.5,114.7 267.8,110.9 
			262.8,107.3 257.8,104 252.5,101.1 247.1,98.4 241.5,96 235.7,93.9 230,92.1 224.1,90.7 218.1,89.5 212.1,88.7 206.1,88.2 200,88 
			193.9,88.2 187.9,88.7 181.9,89.5 176,90.7 170.1,92.1 164.3,93.9 158.5,96 153,98.4 147.5,101.1 142.3,104 137.2,107.3 
			132.2,110.9 127.6,114.7 123,118.8 119.1,122.7 119,122.7 114.6,119.5 110,116.6 105.1,114 100.1,111.7 95.1,109.9 89.8,108.4 
			84.5,107.2 79.1,106.3 73.5,105.9 68.1,105.8 62.6,106.2 56.9,106.6 51,106.8 45.2,106.5 39.4,105.9 36.8,105.1 34.4,104.1 
			32,102.9 31.6,102.5 31,102.4 30.5,102.5 30,102.8 29.6,103.2 29.4,103.8 29.5,104.3 31.2,106.9 33.2,109.4 35.4,111.6 
			37.8,113.5 40.4,115.2 43.2,116.7 46,117.8 49,118.7 52,119.2 55.2,119.5 58,119.5 60.9,120 63.6,120.6 66.4,121.6 68.9,122.8 
			71.3,124.3 73.7,126.1 75.8,127.9 77.7,130.1 76.4,131.6 75.4,133.4 74.7,135.3 74.3,137.2 74.1,139.2 74.3,141.2 74.8,143.2 
			75.6,145 76.6,146.7 78,148.2 79.4,149.6 81.1,150.6 81.9,150.9 82.8,150.9 83.5,150.7 84.2,150.1 86.4,149 88.7,148.1 
			91.2,147.5 93.6,147.1 96.1,147.1 98.5,147.2 101,147.7 98.4,153 96,158.6 93.9,164.3 92.1,170.1 90.6,176 89.5,181.9 89.4,182.6 
			89.4,182.6 89.1,183.5 88.6,184.5 87.9,185.1 86.9,185.7 85.9,185.9 84.9,185.9 84,185.7 83,185.1 82.3,184.4 0.2,80.2 0.1,80.2 
			0.1,80 0.2,80 399.9,80 400,80 400,80.2 		"/>
	</g>
	<g>
		<polyline class="colora st14" points="220,192 210.1,192 189.9,192 180,192 		"/>
		<line class="colora st14" x1="399.9" y1="80" x2="0.2" y2="80"/>
		<line class="colora st14" x1="399.9" y1="60" x2="0.2" y2="60"/>
		<line class="colora st14" x1="399.9" y1="20.1" x2="0.2" y2="20.1"/>
		<line class="colora st14" x1="399.9" y1="320.1" x2="0.2" y2="320.1"/>
		<line class="colora st14" x1="399.9" y1="340.1" x2="0.2" y2="340.1"/>
		<line class="colora st14" x1="399.9" y1="380" x2="0.2" y2="380"/>
		<polyline class="colora st14" points="180,208.1 189.9,208.1 210.1,208.1 220,208.1 221.6,207.9 223,207.4 224.5,206.7 225.7,205.7 
			226.7,204.5 227.4,203.1 227.9,201.6 228,200 227.9,198.5 227.4,197 226.7,195.6 225.7,194.4 224.5,193.4 223,192.7 221.6,192.2 
			220,192 		"/>
		<polyline class="colora st14" points="180,192 178.4,192.2 177,192.7 175.6,193.4 174.4,194.4 173.4,195.6 172.6,197 172.2,198.5 
			172,200 172.2,201.6 172.6,203.1 173.4,204.5 174.4,205.7 175.6,206.7 177,207.4 178.4,207.9 180,208.1 		"/>
		<polyline class="colora st14" points="89.4,217.5 89.5,218.2 90.6,224.1 92.1,230 93.9,235.8 96,241.5 98.4,247.1 101,252.4 101.1,252.5 
			104,257.8 107.3,262.9 110.9,267.9 114.7,272.5 118.8,277.1 119.1,277.4 123,281.3 127.6,285.4 132.2,289.2 137.2,292.7 
			142.3,296 147.5,299 153,301.7 158.5,304.1 164.3,306.2 170.1,308 176,309.4 181.9,310.6 187.9,311.4 193.9,311.9 200,312 
			206.1,311.9 212.1,311.4 218.1,310.6 224.1,309.4 230,308 235.7,306.2 241.5,304.1 247.1,301.7 252.5,299 257.8,296 262.8,292.7 
			267.8,289.2 272.5,285.4 277.1,281.3 281,277.4 281.3,277.1 285.4,272.5 289.2,267.9 292.7,262.9 296,257.8 299,252.5 
			299.1,252.4 301.7,247.1 304.1,241.5 306.2,235.8 308,230 309.4,224.1 310.6,218.2 310.7,217.5 		"/>
		<polyline class="colora st14" points="89.4,182.6 88.7,187.9 88.2,193.9 88,200 88.2,206.1 88.7,212.1 89.4,217.5 		"/>
		<polyline class="colora st14" points="310.7,182.6 310.6,181.9 309.4,176 308,170.1 306.2,164.3 304.1,158.6 301.7,153 299.1,147.7 
			299,147.6 296,142.3 292.7,137.2 289.2,132.2 285.4,127.6 281.3,123 281,122.7 277.1,118.8 272.5,114.7 267.8,110.9 262.8,107.3 
			257.8,104 252.5,101.1 247.1,98.4 241.5,96 235.7,93.9 230,92.1 224.1,90.7 218.1,89.5 212.1,88.7 206.1,88.2 200,88 193.9,88.2 
			187.9,88.7 181.9,89.5 176,90.7 170.1,92.1 164.3,93.9 158.5,96 153,98.4 147.5,101.1 142.3,104 137.2,107.3 132.2,110.9 
			127.6,114.7 123,118.8 119.1,122.7 118.8,123 114.7,127.6 110.9,132.2 107.3,137.2 104,142.3 101.1,147.6 101,147.7 98.4,153 
			96,158.6 93.9,164.3 92.1,170.1 90.6,176 89.5,181.9 89.4,182.6 		"/>
		<polyline class="colora st14" points="310.7,217.5 311.3,212.1 311.8,206.1 312,200 311.8,193.9 311.3,187.9 310.7,182.6 		"/>
		<polyline class="colora st14" points="317.8,215.7 317,214.9 316.1,214.4 315.2,214.2 314.1,214.2 313.1,214.4 312.2,214.9 311.4,215.6 
			310.9,216.6 310.7,217.5 310.7,217.5 		"/>
		<polyline class="colora st14" points="310.7,182.6 310.7,182.6 310.9,183.5 311.4,184.5 312.2,185.1 313.1,185.7 314.1,185.9 
			315.2,185.9 316.1,185.7 317,185.1 317.8,184.4 		"/>
		<polyline class="colora st14" points="89.4,217.5 89.4,217.5 89.1,216.6 88.6,215.6 87.9,214.9 86.9,214.4 85.9,214.2 84.9,214.2 
			84,214.4 83,214.9 82.3,215.7 		"/>
		<polyline class="colora st14" points="82.3,184.4 83,185.1 84,185.7 84.9,185.9 85.9,185.9 86.9,185.7 87.9,185.1 88.6,184.5 89.1,183.5 
			89.4,182.6 89.4,182.6 		"/>
		<polygon class="colora st14" points="279.3,246.7 281.5,242.8 283.9,237.8 286,232.6 287.9,227.4 289.3,222.1 290.5,216.6 291.4,211.1 
			291.9,205.6 292,200 291.9,194.5 291.4,189 290.5,183.5 289.3,178 287.9,172.7 286,167.5 283.9,162.3 281.5,157.3 279.3,153.4 
			278.8,152.5 275.7,147.8 272.4,143.3 268.8,139 266,136 265,135 261.1,131.2 256.7,127.7 252.3,124.4 247.6,121.3 242.8,118.6 
			237.8,116.2 232.6,114 227.4,112.2 222,110.7 216.6,109.5 211.1,108.7 205.6,108.2 200,108 194.4,108.2 188.9,108.7 183.4,109.5 
			178,110.7 172.7,112.2 167.4,114 162.3,116.2 157.3,118.6 152.4,121.3 147.8,124.4 143.3,127.7 139,131.2 135,135 134.1,136 
			131.2,139 127.6,143.3 124.3,147.8 121.3,152.5 120.8,153.4 118.6,157.3 116.1,162.3 114,167.5 112.2,172.7 110.7,178 
			109.5,183.5 108.7,189 108.2,194.5 108,200 108.2,205.6 108.7,211.1 109.5,216.6 110.7,222.1 112.2,227.4 114,232.6 116.1,237.8 
			118.6,242.8 120.8,246.7 121.3,247.6 124.3,252.3 127.6,256.8 131.2,261.1 134.1,264.1 135,265.1 139,268.9 143.3,272.4 
			147.8,275.7 152.4,278.8 157.3,281.5 162.3,283.9 167.4,286.1 172.7,287.9 178,289.4 183.4,290.5 188.9,291.4 194.4,291.9 
			200,292.1 205.6,291.9 211.1,291.4 216.6,290.5 222,289.4 227.4,287.9 232.6,286.1 237.8,283.9 242.8,281.5 247.6,278.8 
			252.3,275.7 256.7,272.4 261.1,268.9 265,265.1 266,264.1 268.8,261.1 272.4,256.8 275.7,252.3 278.8,247.6 		"/>
		<line class="colora st14" x1="332.8" y1="202.5" x2="399.9" y2="287.7"/>
		<line class="colora st14" x1="317.8" y1="215.7" x2="399.9" y2="319.9"/>
		<line class="colora st14" x1="399.9" y1="112.4" x2="332.8" y2="197.6"/>
		<line class="colora st14" x1="399.9" y1="80.2" x2="317.8" y2="184.4"/>
		<polyline class="colora st14" points="332.8,197.6 332.3,198.5 332,199.5 332,200.6 332.3,201.6 332.8,202.5 		"/>
		<line class="colora st14" x1="0.2" y1="112.4" x2="67.2" y2="197.6"/>
		<line class="colora st14" x1="0.2" y1="80.2" x2="82.3" y2="184.4"/>
		<polyline class="colora st14" points="67.2,202.5 67.7,201.6 68,200.6 68,199.5 67.7,198.5 67.2,197.6 		"/>
		<line class="colora st14" x1="67.2" y1="202.5" x2="0.2" y2="287.7"/>
		<line class="colora st14" x1="82.3" y1="215.7" x2="0.2" y2="319.9"/>
		<polyline class="colora st14" points="266.1,136 266,136 262.2,139.6 258.4,143.6 255,147.7 251.9,152 249.1,156.6 246.5,161.3 
			244.2,166.2 242.3,171.1 240.7,176.3 239.3,181.4 238.3,186.7 237.6,192 237.3,197.3 237.3,202.8 237.6,208.1 238.3,213.4 
			239.3,218.7 240.7,223.8 242.3,229 244.2,233.9 246.5,238.8 249.1,243.5 251.9,248 255,252.4 258.4,256.5 262.2,260.5 266,264.1 
			266.1,264.1 		"/>
		<polyline class="colora st14" points="279.3,153.4 279.3,153.4 275.7,155.2 272.1,157.3 268.8,159.6 265.7,162.2 262.8,165 260.1,168.1 
			257.8,171.3 255.6,174.8 253.7,178.4 252.2,182.2 250.9,186 249.9,190 249.3,193.9 249,198 249,202.1 249.3,206.1 249.9,210.1 
			250.9,214.1 252.2,217.9 253.7,221.7 255.6,225.3 257.8,228.7 260.1,232 262.8,235.1 265.7,237.9 268.8,240.5 272.1,242.8 
			275.7,244.9 279.3,246.7 279.3,246.7 		"/>
		<polyline class="colora st14" points="281,277.4 285.4,280.6 290.1,283.5 294.9,286.1 299.9,288.3 305,290.2 310.2,291.7 315.6,292.9 
			321,293.8 326.5,294.2 331.9,294.3 337.4,293.9 		"/>
		<polyline class="colora st14" points="360.6,294.2 354.9,293.6 349,293.3 343.2,293.5 337.4,293.9 		"/>
		<polyline class="colora st14" points="368.1,297.2 365.7,296 363.2,294.9 360.6,294.2 		"/>
		<polyline class="colora st14" points="368.1,297.2 368.5,297.6 369.1,297.7 369.6,297.6 370.1,297.3 370.4,296.9 370.6,296.3 
			370.5,295.8 368.8,293.2 366.9,290.7 364.7,288.5 362.2,286.6 359.7,284.9 356.9,283.4 354,282.2 351,281.4 348,280.9 
			344.9,280.6 		"/>
		<polyline class="colora st14" points="322.3,270 324.2,272.2 326.3,274 328.7,275.8 331.2,277.2 333.7,278.5 336.4,279.4 339.2,280.1 
			342.1,280.6 344.9,280.6 		"/>
		<polyline class="colora st14" points="322.3,270 323.6,268.4 324.6,266.7 325.3,264.8 325.7,262.9 325.9,260.9 325.7,258.9 325.2,256.9 
			324.5,255.1 323.4,253.4 322.1,251.9 320.7,250.5 319,249.5 318.1,249.1 317.3,249.1 316.5,249.4 315.8,250 		"/>
		<polyline class="colora st14" points="299.1,252.4 301.5,252.9 304,253 306.4,253 308.9,252.6 311.3,252 313.6,251.1 315.8,250 		"/>
		<polyline class="colora st14" points="337.4,106.2 331.9,105.8 326.5,105.9 321,106.3 315.6,107.2 310.2,108.4 305,109.9 299.9,111.7 
			294.9,114 290.1,116.6 285.4,119.5 281,122.7 		"/>
		<polyline class="colora st14" points="337.4,106.2 343.2,106.6 349,106.8 354.9,106.5 360.6,105.9 363.2,105.1 365.7,104.1 368.1,102.9 
					"/>
		<polyline class="colora st14" points="370.5,104.3 370.6,103.8 370.4,103.2 370.1,102.8 369.6,102.5 369.1,102.4 368.5,102.5 
			368.1,102.9 		"/>
		<polyline class="colora st14" points="344.9,119.5 348,119.2 351,118.7 354,117.8 356.9,116.7 359.7,115.2 362.2,113.5 364.7,111.6 
			366.9,109.4 368.8,106.9 370.5,104.3 		"/>
		<polyline class="colora st14" points="344.9,119.5 342.1,119.5 339.2,120 336.4,120.6 333.7,121.6 331.2,122.8 328.7,124.3 326.3,126.1 
			324.2,127.9 322.3,130.1 		"/>
		<polyline class="colora st14" points="319,150.6 320.7,149.6 322.1,148.2 323.4,146.7 324.5,145 325.2,143.2 325.7,141.2 325.9,139.2 
			325.7,137.2 325.3,135.3 324.6,133.4 323.6,131.6 322.3,130.1 		"/>
		<polyline class="colora st14" points="315.8,150.1 316.5,150.7 317.3,150.9 318.1,150.9 319,150.6 		"/>
		<polyline class="colora st14" points="315.8,150.1 313.6,149 311.3,148.1 308.9,147.5 306.4,147.1 304,147.1 301.5,147.2 299.1,147.7 		
			"/>
		<polyline class="colora st14" points="134,264.1 134.1,264.1 137.9,260.5 141.6,256.5 145,252.4 148.1,248 150.9,243.5 153.5,238.8 
			155.8,233.9 157.8,229 159.4,223.8 160.7,218.7 161.8,213.4 162.4,208.1 162.8,202.8 162.8,197.3 162.4,192 161.8,186.7 
			160.7,181.4 159.4,176.3 157.8,171.1 155.8,166.2 153.5,161.3 150.9,156.6 148.1,152 145,147.7 141.6,143.6 137.9,139.6 
			134.1,136 134,136 		"/>
		<polyline class="colora st14" points="120.7,246.7 120.8,246.7 124.3,244.9 127.9,242.8 131.2,240.5 134.3,237.9 137.2,235.1 139.9,232 
			142.3,228.7 144.5,225.3 146.4,221.7 147.9,217.9 149.1,214.1 150.2,210.1 150.8,206.1 151.1,202.1 151.1,198 150.8,193.9 
			150.2,190 149.1,186 147.9,182.2 146.4,178.4 144.5,174.8 142.3,171.3 139.9,168.1 137.2,165 134.3,162.2 131.2,159.6 
			127.9,157.3 124.3,155.2 120.8,153.4 120.7,153.4 		"/>
		<polyline class="colora st14" points="62.6,293.9 68.1,294.3 73.5,294.2 79.1,293.8 84.5,292.9 89.8,291.7 95.1,290.2 100.1,288.3 
			105.1,286.1 110,283.5 114.6,280.6 119,277.4 		"/>
		<polyline class="colora st14" points="62.6,293.9 56.9,293.5 51,293.3 45.2,293.6 39.4,294.2 36.8,294.9 34.4,296 32,297.2 		"/>
		<polyline class="colora st14" points="29.5,295.8 29.4,296.3 29.6,296.9 30,297.3 30.5,297.6 31,297.7 31.6,297.6 32,297.2 		"/>
		<polyline class="colora st14" points="55.2,280.6 52,280.9 49,281.4 46,282.2 43.2,283.4 40.4,284.9 37.8,286.6 35.4,288.5 33.2,290.7 
			31.2,293.2 29.5,295.8 		"/>
		<polyline class="colora st14" points="55.2,280.6 58,280.6 60.9,280.1 63.6,279.4 66.4,278.5 68.9,277.2 71.3,275.8 73.7,274 75.8,272.2 
			77.7,270 		"/>
		<polyline class="colora st14" points="81.1,249.5 79.4,250.5 78,251.9 76.6,253.4 75.6,255.1 74.8,256.9 74.3,258.9 74.1,260.9 
			74.3,262.9 74.7,264.8 75.4,266.7 76.4,268.4 77.7,270 		"/>
		<polyline class="colora st14" points="84.2,250 83.5,249.4 82.8,249.1 81.9,249.1 81.1,249.5 		"/>
		<polyline class="colora st14" points="84.2,250 86.4,251.1 88.7,252 91.2,252.6 93.6,253 96.1,253 98.5,252.9 101,252.4 		"/>
		<polyline class="colora st14" points="119,122.7 114.6,119.5 110,116.6 105.1,114 100.1,111.7 95.1,109.9 89.8,108.4 84.5,107.2 
			79.1,106.3 73.5,105.9 68.1,105.8 62.6,106.2 		"/>
		<polyline class="colora st14" points="39.4,105.9 45.2,106.5 51,106.8 56.9,106.6 62.6,106.2 		"/>
		<polyline class="colora st14" points="32,102.9 34.4,104.1 36.8,105.1 39.4,105.9 		"/>
		<polyline class="colora st14" points="32,102.9 31.6,102.5 31,102.4 30.5,102.5 30,102.8 29.6,103.2 29.4,103.8 29.5,104.3 31.2,106.9 
			33.2,109.4 35.4,111.6 37.8,113.5 40.4,115.2 43.2,116.7 46,117.8 49,118.7 52,119.2 55.2,119.5 		"/>
		<polyline class="colora st14" points="77.7,130.1 75.8,127.9 73.7,126.1 71.3,124.3 68.9,122.8 66.4,121.6 63.6,120.6 60.9,120 58,119.5 
			55.2,119.5 		"/>
		<polyline class="colora st14" points="77.7,130.1 76.4,131.6 75.4,133.4 74.7,135.3 74.3,137.2 74.1,139.2 74.3,141.2 74.8,143.2 
			75.6,145 76.6,146.7 78,148.2 79.4,149.6 81.1,150.6 81.9,150.9 82.8,150.9 83.5,150.7 84.2,150.1 		"/>
		<polyline class="colora st14" points="101,147.7 98.5,147.2 96.1,147.1 93.6,147.1 91.2,147.5 88.7,148.1 86.4,149 84.2,150.1 		"/>
		<polyline class="colora st14" points="399.9,146.6 397.4,152.8 395,159.3 392.9,165.9 391.2,172.7 389.8,179.5 388.8,186.3 388.1,193.2 
			387.8,200.1 387.8,207.1 388.1,213.9 388.8,220.9 389.8,227.7 391.2,234.5 392.9,241.2 395,247.8 397.4,254.3 399.9,260.5 		"/>
		<polyline class="colora st14" points="385.9,253.5 384,241.8 381.8,230 379.2,218.4 376.4,206.8 		"/>
		<polyline class="colora st14" points="370.5,198.6 367.9,196.2 365,193.9 361.9,192 358.7,190.3 355.4,189 351.9,187.9 		"/>
		<polyline class="colora st14" points="348.3,192.8 349.6,197.7 351.1,202.4 353,207 355.2,211.5 357.6,215.8 360.4,219.9 363.3,224 
			366.5,227.7 370,231.4 		"/>
		<polyline class="colora st14" points="379.7,245.7 378.3,242.5 376.7,239.3 374.7,236.4 372.5,233.7 370,231.4 		"/>
		<polyline class="colora st14" points="376.4,206.8 375.4,204.4 374.1,202.2 372.5,200.3 370.5,198.6 		"/>
		<polyline class="colora st14" points="351.9,187.9 350.7,188.4 349.6,189.2 348.8,190.3 348.4,191.5 348.3,192.8 		"/>
		<polyline class="colora st14" points="384.7,253.5 385.1,253.8 385.5,253.8 385.9,253.5 		"/>
		<polyline class="colora st14" points="379.7,245.7 380.5,247.9 381.6,249.9 383,251.9 384.7,253.5 		"/>
		<polyline class="colora st14" points="0.2,260.5 2.7,254.3 5.1,247.8 7.1,241.2 8.9,234.5 10.2,227.7 11.2,220.9 11.9,213.9 12.3,207.1 
			12.3,200.1 11.9,193.2 11.2,186.3 10.2,179.5 8.9,172.7 7.1,165.9 5.1,159.3 2.7,152.8 0.2,146.6 		"/>
		<polyline class="colora st14" points="23.6,206.8 20.8,218.4 18.3,230 16.1,241.8 14.1,253.5 		"/>
		<polyline class="colora st14" points="48.2,187.9 44.7,189 41.4,190.3 38.2,192 35,193.9 32.2,196.2 29.5,198.6 		"/>
		<polyline class="colora st14" points="30,231.4 33.5,227.7 36.7,224 39.7,219.9 42.5,215.8 44.9,211.5 47.1,207 48.9,202.4 50.4,197.7 
			51.7,192.8 		"/>
		<polyline class="colora st14" points="30,231.4 27.6,233.7 25.3,236.4 23.3,239.3 21.7,242.5 20.4,245.7 		"/>
		<polyline class="colora st14" points="29.5,198.6 27.6,200.3 26,202.2 24.6,204.4 23.6,206.8 		"/>
		<polyline class="colora st14" points="51.7,192.8 51.6,191.5 51.2,190.3 50.4,189.2 49.3,188.4 48.2,187.9 		"/>
		<polyline class="colora st14" points="14.1,253.5 14.5,253.8 15,253.8 15.4,253.5 17,251.9 18.4,249.9 19.5,247.9 20.4,245.7 		"/>
		<polyline class="colora st14" points="250.5,137.1 246.2,139.2 242.1,141.5 238.1,144.2 234.4,147.1 230.8,150.3 227.5,153.7 
			224.4,157.3 221.6,161.1 219.1,165.2 216.8,169.3 214.8,173.6 213.1,178.1 211.8,182.7 210.8,187.3 210.1,192 		"/>
		<polyline class="colora st14" points="249.5,134.7 245,135.1 240.4,135.9 235.9,137 231.5,138.5 227.3,140.3 223.1,142.4 219.2,144.8 
			215.5,147.6 212,150.7 208.7,154 209.7,150.1 210.3,146.1 210.6,142.1 210.6,138.2 210.2,134.2 209.5,130.3 208.5,126.4 
			207.2,122.7 205.5,119 203.6,115.6 		"/>
		<polyline class="colora st14" points="189.9,192 189.3,187.3 188.3,182.7 186.9,178.1 185.2,173.6 183.3,169.3 181,165.2 178.4,161.1 
			175.6,157.3 172.5,153.7 169.2,150.3 165.7,147.1 161.9,144.2 157.9,141.5 153.8,139.2 149.6,137.1 		"/>
		<polyline class="colora st14" points="191.3,154 188.1,150.7 184.5,147.6 180.8,144.8 176.9,142.4 172.8,140.3 168.5,138.5 164.1,137 
			159.6,135.9 155.1,135.1 150.5,134.7 		"/>
		<polyline class="colora st14" points="196.5,115.6 194.5,119 192.8,122.7 191.6,126.4 190.5,130.3 189.9,134.2 189.4,138.2 189.4,142.1 
			189.7,146.1 190.4,150.1 191.3,154 		"/>
		<polyline class="colora st14" points="250.5,137.1 250.9,136.4 250.8,135.6 250.3,134.9 249.5,134.7 		"/>
		<polyline class="colora st14" points="203.6,115.6 203,114.7 202.1,114 201.1,113.6 200,113.5 198.9,113.6 198,114 197.1,114.7 
			196.5,115.6 		"/>
		<polyline class="colora st14" points="150.5,134.7 149.7,134.9 149.2,135.6 149.1,136.4 149.6,137.1 		"/>
		<polyline class="colora st14" points="210.1,208.1 210.8,212.7 211.8,217.4 213.1,222 214.8,226.5 216.8,230.8 219.1,234.9 221.6,239 
			224.4,242.8 227.5,246.4 230.8,249.8 234.4,253 238.1,255.9 242.1,258.5 246.2,260.9 250.5,262.9 		"/>
		<polyline class="colora st14" points="208.7,246.1 212,249.4 215.5,252.4 219.2,255.2 223.1,257.7 227.3,259.8 231.5,261.6 235.9,263.1 
			240.4,264.2 245,265 249.5,265.4 		"/>
		<polyline class="colora st14" points="203.6,284.5 205.5,281.1 207.2,277.4 208.5,273.7 209.5,269.8 210.2,265.9 210.6,261.9 
			210.6,257.9 210.3,254 209.7,250 208.7,246.1 		"/>
		<polyline class="colora st14" points="149.6,262.9 153.8,260.9 157.9,258.5 161.9,255.9 165.7,253 169.2,249.8 172.5,246.4 175.6,242.8 
			178.4,239 181,234.9 183.3,230.8 185.2,226.5 186.9,222 188.3,217.4 189.3,212.7 189.9,208.1 		"/>
		<polyline class="colora st14" points="150.5,265.4 155.1,265 159.6,264.2 164.1,263.1 168.5,261.6 172.8,259.8 176.9,257.7 180.8,255.2 
			184.5,252.4 188.1,249.4 191.3,246.1 190.4,250 189.7,254 189.4,257.9 189.4,261.9 189.9,265.9 190.5,269.8 191.6,273.7 
			192.8,277.4 194.5,281.1 196.5,284.5 		"/>
		<polyline class="colora st14" points="249.5,265.4 250.3,265.1 250.8,264.5 250.9,263.7 250.5,262.9 		"/>
		<polyline class="colora st14" points="196.5,284.5 197.1,285.4 198,286.1 198.9,286.5 200,286.6 201.1,286.5 202.1,286.1 203,285.4 
			203.6,284.5 		"/>
		<polyline class="colora st14" points="149.6,262.9 149.1,263.7 149.2,264.5 149.7,265.1 150.5,265.4 		"/>
		<polygon class="colora st14" points="0.1,380 0.1,400 400,400 400,380 400,340.1 400,320.1 400,319.9 400,287.7 400,260.5 400,146.6 
			400,112.4 400,80.2 400,80 400,60 400,20.1 400,0.1 0.1,0.1 0.1,20.1 0.1,60 0.1,80 0.1,80.2 0.1,112.4 0.1,146.6 0.1,260.5 
			0.1,287.7 0.1,319.9 0.1,320.1 0.1,340.1 		"/>
	</g>
</g>
</svg>
