<svg version="1.1" id="Layer_1" xmlns="http://www.w3.org/2000/svg" xmlns:xlink="http://www.w3.org/1999/xlink" x="0px" y="0px"
	 viewBox="0 0 400 400" style="enable-background:new 0 0 400 400;" xml:space="preserve">
<style type="text/css">
	.st7l31v2{fill:none;stroke:#231F20;stroke-width:0.5669;stroke-linecap:round;stroke-linejoin:round;stroke-miterlimit:10;}
</style>
<g>
	<rect x="0.5" y="0.5" class="colora st0" width="399" height="399"/>
	<path d="M399,1v398H1V1H399 M400,0H0v400h400V0L400,0z"/>
</g>
<g>
	<g id="XMLID_2_">
		<g>
			<rect x="380" y="380" class="colora st3" width="20" height="20"/>
			<polygon  class="colora st7" points="399.9,360.1 399.9,380 380,380 380,400 360,400 360,360.1 			"/>
			<polygon class="colora st2" points="399.9,168 399.9,220 399.8,220 373.7,194 373.7,194 399.8,168 			"/>
			<polygon class="colora st2" points="399.9,97.9 399.9,149.9 399.8,149.9 373.7,123.9 399.8,97.9 			"/>
			<polygon class="colora st1" points="399.9,0.5 399.9,20.5 20.4,20.5 20.4,400 0.4,400 0.4,0.5 			"/>
			<polygon class="colora st2" points="390.8,158.9 364.6,185 338.4,158.9 364.6,132.9 			"/>
			<polygon class="colora st4" points="349.3,312.5 349.5,349.4 312.6,349.4 312.4,312.5 			"/>
			<path class="colora st5" d="M398.9,275.7h1.1v84.4H360V400h-84.4v-1.1l0-1v-1l0.1-1l0.1-0.9l0-0.9l0.1-0.8l0.1-0.8l0.1-0.8l0.1-0.8
				l0.1-0.7l0.1-0.7l0.1-0.6l0.1-0.6l0.1-0.6l0.1-0.5l0.1-0.5l0.1-0.5l0.3-1l0.3-0.9l0.3-0.8l0.3-0.8l0.3-0.7l0.3-0.7l0.3-0.7
				l0.3-0.6l0.3-0.6l0.7-1.1l0.6-1.1l0.6-1l1.3-2l1.2-1.9l1.2-1.9l1.1-1.9l1.1-2l0.5-1l0.5-1.1l0.5-1l0.5-1.1l0.5-1.1l0.5-1.1
				l0.5-1.2l0.5-1.2l0.5-1.3l0.5-1.3l0.4-1.3l0.4-1.4l0.4-1.4l0.4-1.5l0.4-1.5l0.3-1.5l0.4-1.6l0.3-1.6l0.3-1.6l0.2-1.7l0.2-1.7
				l0.2-1.8l0.1-1.8l0.1-1.9l0.1-1.9l0-2l0-2l0-1l-0.1-1l0-1.1l-0.1-1.1l-0.1-1.1l-0.1-1.1l-0.1-1.1l-0.1-1.2l-0.2-1.1l-0.2-1.2
				l-0.2-1.2l-0.3-1.3l-0.3-1.3l-0.3-1.3l-0.3-1.3l-0.4-1.4l-0.4-1.4l-0.5-1.4l-0.5-1.5l-0.5-1.6l-0.6-1.6l-0.6-1.6l-0.7-1.7
				l-0.7-1.8l-0.8-1.8l-0.9-1.9l-0.4-0.9l-0.4-1l-0.5-1l-0.5-1l-0.5-1l-0.5-1l-0.5-1l-0.6-1.1l1.1,0.5l1.1,0.5l1,0.5l1,0.5l1,0.5
				l1,0.5l1,0.5l1,0.4l1.8,0.8l1.8,0.8l1.7,0.7l1.7,0.7l1.6,0.6l1.6,0.6l1.6,0.5l1.5,0.5l1.5,0.5l1.4,0.4l1.4,0.4l1.4,0.3l1.3,0.3
				l1.3,0.3l1.2,0.2l1.2,0.2l1.2,0.2l1.2,0.2l1.2,0.2l1.1,0.1l1.1,0.1l1.1,0.1l1.1,0.1l1.1,0.1l1.1,0l1,0l2,0l2,0l1.9-0.1l1.9-0.1
				l1.9-0.2l1.8-0.2l1.7-0.2l1.7-0.3l1.7-0.3l1.6-0.3l1.6-0.3l1.5-0.3l1.5-0.4l1.4-0.4l1.4-0.4l1.4-0.4l1.3-0.4l1.3-0.4l1.2-0.5
				l1.2-0.5l1.2-0.5l1.1-0.5l1.1-0.5l1.1-0.5l1.1-0.5l1-0.5l1-0.5l2-1.1l1.9-1.1l1.9-1.2l1.9-1.2l2-1.2l1-0.7l1.1-0.6l1.1-0.7
				l0.6-0.3l0.6-0.3l0.6-0.3l0.7-0.3l0.7-0.3l0.8-0.3l0.8-0.3l0.9-0.3l0.9-0.3l0.5-0.1l0.5-0.1l0.5-0.1l0.6-0.1l0.6-0.1l0.6-0.1
				l0.7-0.1l0.7-0.1l0.7-0.1l0.8-0.1l0.8-0.1l0.8-0.1l0.9-0.1l0.9,0l1,0h1L398.9,275.7z M349.5,349.4l-0.2-36.9h-36.9l0.2,36.9
				H349.5z"/>
			<polygon class="colora st2" points="220,399.9 220,400 167.9,400 167.9,399.9 194,373.7 			"/>
			<polygon class="colora st2" points="158.9,338.5 184.9,364.6 158.9,390.8 132.8,364.6 			"/>
			<polygon class="colora st2" points="149.9,399.9 149.9,400 97.8,400 97.8,399.9 123.8,373.7 			"/>
			<polygon class="colora st6" points="398,250.8 398.6,250.8 399.3,250.7 399.9,250.7 399.9,275.7 398.9,275.7 397.8,275.7 396.8,275.7 
				395.9,275.8 394.9,275.8 394.1,275.9 393.2,275.9 392.4,276 391.7,276.1 391,276.2 390.3,276.3 389.6,276.3 389,276.5 
				388.4,276.6 387.8,276.7 387.2,276.8 386.7,276.9 386.2,277.1 385.2,277.3 384.3,277.6 383.5,277.9 382.7,278.2 382,278.5 
				381.3,278.8 380.6,279.1 380,279.4 379.5,279.7 378.3,280.4 377.2,281 376.2,281.7 374.3,282.9 372.4,284.1 370.4,285.3 
				368.5,286.4 366.5,287.6 365.5,288.1 364.4,288.6 363.4,289.1 362.3,289.6 361.2,290.1 360,290.6 358.9,291.1 357.6,291.6 
				356.4,292 355.1,292.5 353.8,292.9 352.4,293.3 351.1,293.7 349.6,294.1 348.1,294.5 346.6,294.8 345,295.1 343.4,295.4 
				341.8,295.7 340.1,296 338.4,296.2 336.6,296.4 334.7,296.5 332.9,296.6 330.9,296.7 329,296.7 326.9,296.7 325.9,296.7 
				324.8,296.6 323.8,296.6 322.7,296.5 321.6,296.4 320.5,296.3 319.3,296.1 318.2,296 317,295.8 315.8,295.6 314.5,295.4 
				313.3,295.1 312,294.8 310.7,294.5 309.4,294.2 308,293.8 306.6,293.4 305.1,292.9 303.6,292.4 302.1,291.9 300.5,291.3 
				298.9,290.7 297.2,290.1 295.5,289.3 293.7,288.6 291.8,287.7 290.9,287.3 289.9,286.8 288.9,286.4 287.9,285.9 286.9,285.4 
				285.9,284.9 284.8,284.4 283.8,283.8 284.3,284.9 284.8,285.9 285.4,287 285.9,288 286.3,289 286.8,290 287.2,290.9 287.7,291.9 
				288.5,293.7 289.3,295.5 290,297.3 290.7,299 291.3,300.6 291.9,302.1 292.4,303.7 292.9,305.2 293.3,306.6 293.7,308 
				294.1,309.4 294.4,310.8 294.8,312.1 295,313.4 295.3,314.6 295.5,315.8 295.7,317.1 295.9,318.2 296.1,319.4 296.2,320.5 
				296.3,321.6 296.4,322.8 296.5,323.9 296.6,324.9 296.6,326 296.6,327 296.7,329 296.6,331 296.6,333 296.4,334.8 296.3,336.6 
				296.1,338.4 295.9,340.1 295.7,341.8 295.4,343.5 295.1,345.1 294.7,346.7 294.4,348.2 294.1,349.7 293.7,351.1 293.3,352.5 
				292.8,353.9 292.4,355.2 292,356.5 291.5,357.7 291,358.9 290.6,360.1 290.1,361.2 289.6,362.4 289.1,363.5 288.5,364.5 
				288,365.6 287.5,366.6 286.4,368.6 285.3,370.5 284.1,372.4 282.9,374.3 281.6,376.3 281,377.3 280.3,378.4 279.7,379.5 
				279.4,380.1 279.1,380.7 278.7,381.4 278.4,382 278.1,382.8 277.8,383.5 277.5,384.4 277.3,385.3 277,386.2 276.9,386.7 
				276.8,387.3 276.6,387.8 276.5,388.4 276.4,389 276.3,389.7 276.2,390.3 276.1,391 276,391.8 276,392.5 275.9,393.3 275.8,394.1 
				275.8,395 275.7,395.9 275.7,396.9 275.7,397.9 275.6,398.9 275.6,400 250.7,400 250.7,399.3 250.7,398.7 250.7,398 250.8,397.5 
				250.8,396.9 250.8,396.4 250.8,395.9 250.8,395.4 250.9,395 250.9,394.6 250.9,394.2 250.9,393.9 251,393.2 251,392.7 251,392.2 
				251.1,391.8 251.1,391.4 251.1,391 251.1,390.7 251.1,390.5 251.2,390.2 251.2,390 251.3,389.6 251.3,389.2 251.4,388.6 
				251.6,387.4 251.9,386.3 252.2,385.1 252.5,384 252.9,382.8 253.3,381.7 253.7,380.6 254.1,379.5 254.6,378.4 255.1,377.4 
				255.6,376.4 256.1,375.3 256.6,374.3 257.2,373.3 257.7,372.3 258.9,370.5 260.1,368.6 261.3,366.9 262.5,365.2 263.7,363.6 
				264.9,362 266.1,360.5 267.3,359 268.4,357.5 269.5,356.1 270.5,354.7 271.4,353.3 272.4,351.9 273.2,350.5 274,349.2 
				274.8,347.8 275.5,346.5 276.1,345.2 276.6,343.9 277.2,342.5 277.6,341.2 278,339.9 278.3,338.7 278.6,337.4 278.8,336.2 
				279,335 279.2,333.7 279.3,332.5 279.3,331.3 279.4,330.1 279.3,329 279.3,327.8 279.2,326.7 279.1,325.5 278.9,324.4 
				278.8,323.3 278.5,322.2 278.3,321 278.1,319.9 277.8,318.8 277.5,317.6 276.9,315.4 276.2,313 275.4,310.7 274.5,308.4 
				273.6,306 272.6,303.7 271.6,301.4 271,300.3 270.4,299.1 269.8,298.1 269.3,297 268.7,296 268,295 267.4,294 266.8,293.1 
				266.1,292.1 265.5,291.3 264.9,290.5 264.2,289.6 263.6,288.9 263,288.1 262.3,287.5 261.7,286.8 261.1,286.1 260.5,285.5 
				259.9,285 259.4,284.5 258.8,284 258.3,283.5 257.7,283.1 257.3,282.7 256.8,282.3 256.3,282 255.9,281.6 255.5,281.4 
				255.1,281.1 254.7,280.8 254.4,280.7 254.1,280.5 253.7,280.3 253.4,280.2 253.1,280.1 252.8,280 252.6,279.9 252.3,279.9 
				251.8,279.9 251.3,279.9 250.8,280 250.4,280.2 250,280.4 249.5,280.7 249.1,280.9 248.2,281.6 247.4,282.3 247.1,282.7 
				246.7,283 246.4,283.4 246.2,283.7 246,284.1 245.8,284.4 245.7,284.8 245.6,285.1 245.6,285.5 245.6,285.8 245.7,286.2 
				245.7,286.5 246,287.2 246.5,288.6 246.7,289.3 246.8,289.6 246.9,289.9 246.9,290.2 246.9,290.6 246.9,290.9 246.8,291.2 
				246.7,291.6 246.5,292 246.3,292.4 246,292.8 245.6,293.3 245.2,293.7 244.7,294.2 244.1,294.7 243.4,295.3 242.6,295.8 
				241.8,296.4 241,296.9 240.1,297.5 239.1,297.9 238.1,298.4 237.1,298.8 236.1,299.1 235,299.3 234.5,299.4 233.9,299.5 
				233.4,299.6 232.8,299.6 232.2,299.6 231.7,299.6 231.1,299.5 231.1,299.5 230.6,299.4 230,299.3 229.4,299.2 228.8,299 
				228.2,298.8 227.7,298.6 227.1,298.4 226.5,298.1 225.9,297.8 225.3,297.6 224.8,297.2 223.6,296.5 222.5,295.7 221.4,294.9 
				220.3,294 219.3,293 218.3,292 217.4,291 216.6,290 215.8,289 215.1,288 214.4,287 213.8,285.9 213.3,284.9 212.8,283.9 
				212.3,282.9 212,281.8 211.7,280.8 211.4,279.7 211.2,278.6 211,277.5 210.8,276.3 210.7,275.1 210.7,274 210.6,272.7 
				210.6,271.5 210.7,270.3 210.8,269.1 210.9,267.9 211.1,266.8 211.2,266.2 211.4,265.7 211.5,265.2 211.7,264.7 211.8,264.2 
				212.1,263.8 212.3,263.3 212.5,262.9 212.7,262.5 213,262.1 213.3,261.8 213.6,261.4 213.9,261.1 214.2,260.7 214.9,260.1 
				215.7,259.6 216.5,259.1 217.4,258.7 218.3,258.3 219.2,257.9 220.2,257.6 221.2,257.2 222.2,257 223.1,256.7 224.1,256.5 
				225,256.3 226,256.1 226.8,255.9 227.7,255.8 228.5,255.6 229.3,255.5 230.1,255.3 230.8,255.2 231.5,255 232.2,254.8 
				232.8,254.6 233.4,254.4 233.9,254.2 234.4,254 234.9,253.7 235.3,253.4 235.7,253.1 236,252.7 236.2,252.4 236.4,252 
				236.5,251.6 236.6,251.2 236.6,250.7 236.6,250.2 236.4,249.8 236.3,249.3 236,248.7 235.7,248.3 235.2,247.7 235,247.5 
				234.7,247.2 234.4,247 234.1,246.8 233.8,246.5 233.5,246.3 233.1,246 232.7,245.8 232.2,245.6 231.8,245.4 231.3,245.1 
				230.8,244.9 230.2,244.7 229.7,244.5 229.1,244.4 228.5,244.2 227.8,244 227.1,243.8 226.4,243.6 225.7,243.4 224.9,243.3 
				224.1,243.1 223.3,243 222.4,242.8 221.5,242.7 220.6,242.5 220.6,242.5 219.7,242.4 218.7,242.3 216.7,242 214.7,241.8 
				212.6,241.7 210.4,241.5 208.3,241.4 206.1,241.4 204,241.4 201.9,241.5 199.9,241.6 198.9,241.7 197.9,241.8 197,241.9 196,242 
				195.1,242.2 194.2,242.3 193.3,242.5 192.4,242.7 190.8,243 189.2,243.4 187.6,243.8 186.2,244.3 184.8,244.8 183.4,245.2 
				182.1,245.7 180.7,246.3 179.5,246.9 178.1,247.5 176.9,248.1 175.6,248.8 174.4,249.5 173.2,250.3 171.9,251.1 170.8,251.9 
				169.6,252.7 168.6,253.7 168,254.1 167.6,254.6 167.1,255.1 166.7,255.6 166.2,256.1 165.9,256.6 165.5,257.1 165.2,257.7 
				164.9,258.2 164.6,258.8 164.3,259.4 164.1,260 163.9,260.7 163.7,261.3 163.5,262.1 163.4,262.8 163.3,263.6 163.2,264.4 
				163.1,265.2 163.1,266.1 163.1,267 163.1,268 163.2,268.9 163.3,270 163.4,271.1 163.6,272.2 163.8,273.3 164.1,274.5 
				164.5,275.7 164.9,277 165.4,278.2 165.9,279.5 166.5,280.8 167.2,282 168,283.1 168.3,283.7 168.8,284.3 169.2,284.8 
				169.6,285.3 170.1,285.7 170.5,286.2 171,286.6 171.5,286.9 172,287.3 172.5,287.5 171.6,287.4 170.7,287.2 169.8,287.1 
				169,286.9 168.2,286.8 167.4,286.6 166.6,286.5 165.9,286.4 165.2,286.2 164.5,286 163.2,285.7 162,285.4 160.8,285.1 
				159.7,284.8 158.6,284.5 157.7,284.1 156.7,283.8 155.9,283.5 155,283.2 154.2,282.8 153.5,282.5 152.7,282.2 152.1,281.9 
				151.4,281.5 150.8,281.2 150.2,280.8 149.6,280.5 148.5,279.7 147.4,279 146.5,278.3 145.5,277.5 144.7,276.7 143.8,275.9 
				143.1,275.1 142.3,274.2 141.6,273.3 140.9,272.5 140.3,271.6 140.3,271.6 139.7,270.7 139.1,269.8 138.5,268.9 138,268.1 
				137.5,267.2 137,266.4 136.5,265.6 136.1,264.8 135.8,264.1 135.4,263.4 135.1,262.8 134.7,262.2 134.5,261.6 134.2,261.2 
				134,260.7 133.7,260.3 133.5,260 133.3,259.7 133.1,259.5 132.9,259.3 132.7,259.1 132.5,259 132.3,259 132.1,259 131.8,259 
				131.5,259.1 131.2,259.2 130.9,259.4 130.6,259.5 130.2,259.7 129.8,260 129.4,260.2 129,260.5 128.5,260.8 128,261 127.5,261.4 
				126.9,261.6 126.4,262 125.2,262.6 123.9,263.2 122.6,263.8 121.3,264.3 119.9,264.8 119.3,265 118.6,265.2 117.9,265.3 
				117.3,265.5 116.6,265.5 116,265.6 115.3,265.7 114.7,265.7 114.2,265.7 113.6,265.7 113,265.6 112.4,265.6 111.9,265.5 
				111.4,265.4 110.9,265.2 110.4,265.1 110,264.9 109.5,264.7 108.7,264.3 107.9,263.9 107.1,263.4 106.4,262.9 105.8,262.4 
				105.1,261.9 104.5,261.5 103.9,261.1 103.2,260.7 102.6,260.4 102,260.1 101.4,259.8 100.7,259.6 100.1,259.5 99.4,259.3 
				98.8,259.3 98.1,259.2 97.4,259.3 96.6,259.3 95.9,259.5 95.2,259.7 94.4,259.9 93.6,260.2 92.8,260.5 91.9,261 91.1,261.4 
				89.4,262.3 88.5,262.8 87.7,263.3 86.9,263.7 86.5,263.8 86.2,264 85.9,264.1 85.6,264.2 85.3,264.3 85,264.3 84.8,264.3 
				84.6,264.3 84.5,264.2 84.3,264.1 84.3,263.9 84.2,263.8 84.2,263.5 84.2,263.3 84.2,263 84.3,262.6 84.3,262.3 84.5,261.9 
				84.6,261.5 84.8,261.1 85.1,260.2 85.6,259.2 86,258.3 87,256.4 87.4,255.5 87.9,254.6 88.2,253.8 88.6,252.9 89,252.1 
				89.2,251.4 89.5,250.6 89.7,249.9 89.8,249.2 89.9,248.4 89.9,247.7 89.9,247 89.9,246.2 89.8,245.5 89.7,244.7 89.6,243.9 
				89.5,243 89.3,242.2 89.2,241.3 89.1,240.4 88.9,239.5 88.8,238.5 88.8,237.5 88.8,236.5 88.8,235.6 88.9,235 88.9,234.5 89,234 
				89.2,233.4 89.3,232.9 89.6,232.4 89.8,231.8 90,231.3 90.4,230.7 90.8,230.1 91.2,229.6 91.7,229 92.2,228.4 92.9,227.8 
				93.6,227.2 94.4,226.6 95.2,226 96.2,225.4 97.2,224.8 98.3,224.3 99.4,223.8 100.6,223.3 101.9,222.9 102.6,222.7 103.3,222.5 
				104,222.4 104.6,222.2 105.3,222.2 106,222.1 104.7,221.5 103.5,221 102.3,220.5 101.2,220 100.2,219.4 99.1,218.9 98.2,218.3 
				97.3,217.7 96.4,217.2 95.6,216.6 94.8,216.1 94,215.5 93.3,214.9 92.6,214.2 91.9,213.6 91.2,213 90.6,212.4 90,211.8 
				89.5,211.1 88.9,210.5 88.4,209.9 87.9,209.2 86.9,207.9 86,206.6 85.2,205.2 84.5,203.9 83.9,202.5 83.3,201.2 82.8,199.8 
				82.4,198.5 82.2,197.8 82.1,197.1 82,196.5 81.9,195.8 81.8,195.2 81.7,194.5 81.7,193.9 81.7,193.2 81.7,192.6 81.7,192 
				81.8,191.3 81.8,190.8 81.9,190.2 82.1,189.6 82.2,189 82.4,188.4 82.6,187.9 82.8,187.4 83.1,186.8 83.4,186.3 83.7,185.9 
				84,185.5 84.4,185.1 84.8,184.7 85.2,184.4 85.7,184.1 85.7,184.9 85.8,185.6 85.9,186.3 86,187 86.2,187.7 86.4,188.3 
				86.6,188.9 86.8,189.4 87,190 87.3,190.5 87.6,191 87.9,191.5 88.1,192 88.5,192.4 89.2,193.3 89.9,194.1 90.7,194.8 91.5,195.5 
				92.4,196.2 93.3,196.8 94.2,197.4 95.1,198 96,198.5 97,199 98,199.5 98.9,199.9 99.9,200.4 100.9,200.7 101.9,201.1 
				102.9,201.4 103.9,201.7 104.9,202 105.8,202.2 106.8,202.4 107.8,202.6 108.7,202.8 109.7,202.9 110.6,203 111.5,203.2 
				112.4,203.2 113.3,203.3 114.2,203.4 115,203.4 115.8,203.4 116.6,203.4 117.4,203.4 118.1,203.4 118.9,203.4 119.6,203.4 
				121,203.3 122.3,203.2 123.6,203 124.8,202.8 125.9,202.7 127.1,202.5 128.1,202.4 129.2,202.2 130.2,202.1 131.2,202.1 
				132.2,202 133.3,202.1 134.3,202.1 135.3,202.3 136.4,202.6 137.5,202.9 138.7,203.2 139.9,203.7 141.1,204.2 142.3,204.8 
				143.6,205.4 144.9,206.1 146.2,206.8 147.5,207.5 148.9,208.3 151.6,209.8 154.3,211.3 157,212.8 158.3,213.5 159.7,214.2 
				161,214.9 162.3,215.5 163.6,216.1 164.8,216.7 166,217.2 167.2,217.6 168.4,218 169.5,218.4 170.6,218.7 171.7,218.8 172.8,219 
				173.8,219.1 174.7,219.1 175.2,219 175.6,219 176.1,219 176.5,218.8 176.9,218.8 177.3,218.7 177.7,218.5 178.1,218.4 
				178.4,218.2 178.8,218 179.1,217.8 179.4,217.6 179.7,217.4 179.9,217.2 180.2,216.9 180.5,216.6 180.7,216.4 180.9,216.1 
				181.1,215.7 181.2,215.4 181.4,215.1 181.5,214.7 181.6,214.3 181.7,214 181.7,213.5 181.8,213.1 181.8,212.7 181.8,212.3 
				181.8,211.8 181.8,211.4 181.7,210.9 181.7,210.4 181.5,209.9 181.4,209.4 181.3,208.9 181.1,208.4 181,207.8 180.8,207.3 
				180.6,206.7 180.3,206.2 180.1,205.6 179.8,205.1 179.5,204.5 179.2,203.9 178.8,203.3 178.5,202.7 178.1,202 177.7,201.4 
				177.3,200.8 176.8,200.2 176.3,199.5 175.9,198.9 175.3,198.2 174.8,197.6 174.2,196.9 173.6,196.2 173,195.5 172.3,194.7 
				171.7,194 171,193.3 170.2,192.5 169.5,191.7 168.6,190.9 167.8,190.2 167,189.3 166.1,188.5 165.1,187.7 164.2,186.8 
				163.2,185.9 162.2,185.1 161.2,184.2 160.1,183.3 159,182.4 158,181.5 156.8,180.7 155.7,179.8 153.3,178 150.9,176.3 
				149.7,175.5 148.5,174.7 147.2,173.9 145.9,173.2 144.6,172.4 143.4,171.7 142.1,171 140.8,170.4 139.6,169.8 138.3,169.2 
				137,168.6 135.8,168.1 134.5,167.6 133.2,167.1 132,166.6 130.7,166.2 129.5,165.8 128.3,165.4 127,165.1 125.8,164.8 
				124.6,164.5 123.4,164.3 122.3,164.1 121.1,163.9 119.9,163.8 118.8,163.7 117.7,163.6 116.6,163.6 115.5,163.6 114.4,163.7 
				113.4,163.9 112.9,164 112.4,164.2 111.9,164.3 111.4,164.5 110.9,164.7 110.5,165 110,165.2 109.6,165.6 109.1,165.9 
				108.7,166.3 108.2,166.8 107.8,167.3 107.5,167.8 107.1,168.4 106.7,169.1 106.4,169.9 106,170.7 105.9,171.1 105.7,171.6 
				105.6,172.1 105.4,172.6 105.3,173.1 105.1,173.7 105,174.2 104.9,174.9 104.8,175.5 104.7,176.2 103.8,175.2 103,174.3 
				102.3,173.4 101.7,172.6 101.1,171.8 100.6,171 100.1,170.3 99.6,169.6 99.2,168.9 98.9,168.3 98.5,167.6 98.3,167 98,166.5 
				97.8,165.9 97.6,165.4 97.4,164.8 97.3,164.3 97.1,163.9 97,163.4 97,163 96.8,162.1 96.8,161.3 96.8,160.6 96.8,159.9 
				96.8,159.2 96.9,158.6 97,157.9 97,157.9 97.2,157.4 97.3,156.8 97.4,156.3 97.6,155.8 97.8,155.3 98.1,154.4 98.4,153.5 
				98.8,152.7 99.3,152 99.7,151.3 100.1,150.7 100.6,150.1 101.1,149.5 101.5,149 102.1,148.6 102.6,148.1 103.1,147.7 
				103.7,147.2 104.2,146.9 104.8,146.5 105.4,146.2 106,145.9 106.6,145.6 107.2,145.4 107.8,145.1 108.5,144.9 109.2,144.7 
				109.8,144.5 110.5,144.4 111.2,144.3 111.9,144.2 112.6,144.1 113.3,144.1 114,144.1 114.7,144.1 115.4,144.1 116.1,144.1 
				116.8,144.2 117.5,144.3 118.1,144.5 118.7,144.5 119.3,144.7 119.9,144.8 120.4,144.9 120.9,145.1 121.3,145.2 121.7,145.3 
				122,145.4 122.3,145.5 122.5,145.6 122.7,145.7 122.9,145.7 123,145.8 123,145.8 123,145.7 122.9,145.7 122.8,145.6 122.7,145.5 
				122.5,145.3 122.3,145.2 122.1,145 121.8,144.7 121.5,144.5 121.2,144.3 120.9,144 120.3,143.4 119.6,142.8 118.9,142 
				118.2,141.3 117.6,140.5 116.9,139.6 116.2,138.7 115.6,137.8 115,136.9 114.5,135.9 113.9,134.8 113.3,133.8 112.8,132.7 
				112.3,131.5 111.9,130.4 111.5,129.1 111.3,128.4 111.2,127.8 111,127.1 110.9,126.4 110.8,125.7 110.7,124.9 110.7,124.1 
				110.7,123.4 110.7,122.5 110.7,121.7 110.8,120.8 110.9,120 111.1,118.2 111.4,116.5 111.5,115.7 111.7,114.9 111.8,114.1 
				111.9,113.3 112.1,112.7 112.2,112.3 112.6,112.1 113.3,112 114,111.9 114.8,111.8 115.6,111.6 116.4,111.5 118.1,111.2 
				119.9,111 120.8,110.9 121.6,110.8 122.5,110.8 123.3,110.8 124.1,110.8 124.9,110.8 125.6,110.9 126.4,111 127,111.1 
				127.7,111.2 128.4,111.4 129,111.6 130.3,112 131.5,112.4 132.6,112.9 133.7,113.4 134.8,113.9 135.8,114.5 136.8,115.1 
				137.8,115.7 138.7,116.3 139.6,117 140.4,117.6 141.2,118.3 142,119 142.7,119.7 143.3,120.4 144,121 144.2,121.3 144.5,121.6 
				144.7,121.8 144.9,122.1 145.1,122.3 145.2,122.6 145.4,122.7 145.5,122.9 145.6,123 145.6,123.1 145.7,123.1 145.7,123 
				145.6,122.9 145.6,122.8 145.5,122.6 145.5,122.4 145.4,122.1 145.2,121.7 145.1,121.4 145,120.9 144.9,120.5 144.7,119.9 
				144.6,119.4 144.5,118.8 144.3,118.2 144.3,117.6 144.2,116.9 144.1,116.2 144,115.5 144,114.8 144,114.1 144,113.3 144,112.7 
				144.1,112 144.2,111.2 144.3,110.6 144.5,109.9 144.6,109.2 144.8,108.6 145.1,107.9 145.3,107.3 145.6,106.7 145.8,106.1 
				146.1,105.5 146.5,104.8 146.8,104.3 147.2,103.7 147.6,103.2 148,102.6 148.5,102.1 148.9,101.6 149.5,101.1 150,100.6 
				150.6,100.2 151.2,99.7 151.9,99.3 152.7,98.9 153.4,98.5 154.3,98.2 155.2,97.8 155.7,97.7 156.2,97.5 156.7,97.4 157.3,97.2 
				157.9,97.1 158.5,97 159.1,96.9 159.8,96.8 160.5,96.8 161.2,96.8 162.1,96.9 162.9,97 163.3,97.1 163.8,97.2 164.3,97.3 
				164.8,97.5 165.3,97.7 165.8,97.8 166.4,98.1 167,98.3 167.5,98.6 168.2,98.9 168.8,99.3 169.5,99.7 170.2,100.1 170.9,100.6 
				171.7,101.2 172.5,101.8 173.3,102.4 174.2,103.1 175.1,103.9 176.1,104.7 175.4,104.8 174.8,105 174.2,105.1 173.6,105.2 
				173,105.3 172.5,105.5 172,105.6 171.5,105.8 171.1,105.9 170.6,106.1 169.8,106.4 169.1,106.8 168.4,107.1 167.8,107.5 
				167.2,107.9 166.7,108.3 166.2,108.8 165.9,109.2 165.5,109.6 165.2,110.1 164.9,110.5 164.6,111 164.4,111.5 164.2,112 
				164.1,112.5 164,113 163.8,113.5 163.7,114.5 163.6,115.6 163.5,116.6 163.5,117.8 163.6,118.9 163.7,120 163.8,121.1 164,122.3 
				164.2,123.5 164.4,124.7 164.7,125.9 164.7,125.9 165.1,127.1 165.4,128.3 165.8,129.5 166.1,130.8 166.5,132 167,133.3 
				167.5,134.6 168,135.8 168.5,137.1 169.1,138.4 169.7,139.6 170.3,140.9 171,142.2 171.7,143.4 172.4,144.7 173.1,146 
				173.9,147.2 174.6,148.5 175.5,149.7 176.3,151 178,153.4 179.7,155.7 180.6,156.9 181.5,158 182.3,159.1 183.2,160.2 
				184.1,161.3 185,162.3 185.9,163.3 186.7,164.3 187.6,165.2 188.4,166.1 189.3,167 190.1,167.9 190.9,168.7 191.7,169.5 
				192.4,170.3 193.2,171 194,171.7 194.7,172.4 195.4,173.1 196.1,173.7 196.8,174.3 197.5,174.9 198.2,175.4 198.8,175.9 
				199.5,176.4 200.1,176.9 200.7,177.3 201.4,177.8 202,178.2 202.6,178.5 203.2,178.9 203.8,179.2 204.4,179.5 205,179.8 
				205.5,180.1 206.1,180.4 206.7,180.6 207.2,180.9 207.8,181 208.3,181.2 208.8,181.4 209.3,181.5 209.9,181.6 210.3,181.7 
				210.8,181.8 211.3,181.8 211.8,181.9 212.2,181.9 212.6,181.9 213.1,181.9 213.5,181.8 213.9,181.7 214.3,181.7 214.6,181.5 
				215,181.4 215.4,181.3 215.7,181.1 216,180.9 216.3,180.7 216.6,180.5 216.9,180.3 217.1,180 217.3,179.8 217.6,179.5 
				217.8,179.2 218,178.8 218.2,178.5 218.3,178.2 218.5,177.8 218.6,177.4 218.7,177 218.8,176.6 218.9,176.2 218.9,175.7 
				219,175.3 219,174.8 219,173.9 218.9,172.8 218.8,171.8 218.6,170.7 218.3,169.6 218,168.5 217.6,167.3 217.1,166.1 216.6,164.9 
				216.1,163.6 215.4,162.4 214.8,161.1 214.1,159.8 213.4,158.4 212.7,157.1 211.3,154.4 209.7,151.6 208.2,148.9 207.4,147.6 
				206.7,146.2 206,144.9 205.3,143.6 204.7,142.4 204.1,141.1 203.6,139.9 203.2,138.7 202.8,137.6 202.5,136.5 202.3,135.4 
				202.1,134.4 202,133.3 202,132.3 202,131.3 202.1,130.2 202.2,129.2 202.3,128.2 202.4,127.1 202.6,126 202.8,124.9 202.9,123.7 
				203.1,122.4 203.2,121.1 203.3,119.7 203.3,118.9 203.4,118.2 203.4,117.4 203.4,116.7 203.4,115.9 203.3,115 203.3,114.2 
				203.2,113.3 203.2,112.5 203.1,111.6 203,110.6 202.9,109.7 202.7,108.8 202.5,107.9 202.3,106.9 202.1,105.9 201.9,104.9 
				201.6,103.9 201.3,102.9 201,102 200.6,101 200.3,100 199.9,99 199.4,98 198.9,97 198.5,96.1 197.9,95.2 197.4,94.2 196.8,93.3 
				196.1,92.5 195.5,91.6 194.8,90.8 194,90 193.2,89.3 192.3,88.6 191.9,88.2 191.4,87.9 191,87.6 190.4,87.4 189.9,87.1 
				189.4,86.8 188.8,86.6 188.2,86.4 187.6,86.3 187,86.1 186.3,86 185.6,85.8 184.8,85.8 184,85.7 184.3,85.3 184.7,84.9 185,84.5 
				185.4,84.1 185.8,83.7 186.3,83.4 186.8,83.1 187.3,82.9 187.8,82.7 188.3,82.5 188.9,82.3 189.5,82.1 190.1,82 190.7,81.9 
				191.3,81.8 191.9,81.8 192.5,81.7 193.2,81.7 193.8,81.8 194.5,81.8 195.1,81.8 195.8,81.9 196.4,82 197.1,82.2 197.8,82.3 
				198.4,82.5 199.8,82.9 201.1,83.4 202.4,83.9 203.8,84.6 205.2,85.3 206.5,86.1 207.8,86.9 209.1,87.9 209.8,88.4 210.4,89 
				211.1,89.5 211.7,90.1 212.3,90.7 213,91.3 213.6,92 214.2,92.6 214.8,93.3 215.4,94.1 216,94.8 216.5,95.6 217.1,96.5 
				217.7,97.4 218.2,98.3 218.8,99.2 218.8,99.2 219.3,100.2 219.9,101.3 220.4,102.4 221,103.6 221.5,104.8 222,106.1 222.1,105.4 
				222.2,104.7 222.3,104 222.4,103.3 222.6,102.7 222.8,102 223.2,100.7 223.7,99.5 224.2,98.3 224.8,97.2 225.4,96.2 226,95.3 
				226.5,94.4 227.2,93.6 227.7,93 228.3,92.3 228.9,91.8 229.5,91.3 230.1,90.9 230.6,90.5 231.2,90.1 231.8,89.8 232.3,89.6 
				232.8,89.4 233.4,89.2 233.9,89.1 234.4,89 235,88.9 235.5,88.9 236.5,88.8 237.5,88.8 238.4,88.9 239.4,89 240.3,89.1 
				241.2,89.3 242.1,89.4 243,89.6 243.8,89.7 244.6,89.8 245.4,89.9 246.2,89.9 246.9,90 247.7,90 248.4,89.9 249.1,89.8 
				249.9,89.7 250.6,89.6 251.3,89.3 252.1,89 252.9,88.7 253.7,88.3 254.5,87.9 255.4,87.5 256.3,87 258.2,86.1 259.2,85.6 
				260.1,85.2 261,84.8 261.4,84.7 261.9,84.5 262.2,84.4 262.6,84.3 262.9,84.3 263.2,84.2 263.5,84.2 263.7,84.3 263.9,84.3 
				264.1,84.4 264.1,84.5 264.2,84.7 264.2,84.9 264.2,85.1 264.2,85.4 264.1,85.6 264.1,86 263.9,86.3 263.8,86.6 263.6,87 
				263.2,87.8 262.7,88.6 262.3,89.5 261.3,91.2 260.9,92 260.5,92.9 260.1,93.6 259.8,94.5 259.6,95.2 259.4,96 259.3,96.7 
				259.2,97.4 259.2,98.2 259.2,98.8 259.3,99.5 259.4,100.2 259.6,100.8 259.8,101.4 260,102.1 260.3,102.7 260.7,103.3 261,103.9 
				261.5,104.6 261.9,105.2 262.3,105.8 262.8,106.5 263.3,107.2 263.8,107.9 264.2,108.8 264.7,109.6 264.8,110 265,110.5 
				265.2,111 265.3,111.5 265.4,112 265.5,112.5 265.6,113.1 265.6,113.6 265.7,114.2 265.7,114.8 265.6,115.4 265.6,116.1 
				265.5,116.7 265.4,117.3 265.3,118 265.1,118.7 264.9,119.3 264.7,120 264.2,121.4 263.7,122.7 263.2,124 262.5,125.2 
				261.9,126.4 261.6,127 261.3,127.5 261,128.1 260.7,128.5 260.4,129 260.1,129.5 259.9,129.9 259.7,130.3 259.5,130.6 259.3,131 
				259.2,131.3 259.1,131.6 259,131.9 258.9,132.1 258.9,132.3 259,132.6 259.1,132.8 259.2,133 259.4,133.2 259.6,133.4 
				259.9,133.6 260.2,133.8 260.6,134 261.1,134.3 261.6,134.6 262.1,134.8 262.7,135.1 263.4,135.5 264.1,135.8 264.8,136.2 
				265.5,136.6 266.3,137.1 267.2,137.5 268,138 268.9,138.6 269.8,139.1 270.6,139.7 271.5,140.3 272.4,141 273.3,141.7 
				274.1,142.4 275,143.1 275.9,143.9 276.6,144.7 277.4,145.6 278.2,146.5 278.9,147.5 279.7,148.6 280.4,149.6 280.7,150.2 
				281.1,150.8 281.4,151.5 281.8,152.1 282.1,152.8 282.4,153.5 282.8,154.3 283.1,155.1 283.4,155.9 283.8,156.8 284.1,157.7 
				284.4,158.7 284.7,159.8 285,160.8 285.4,162 285.7,163.3 286,164.6 286.1,165.2 286.3,166 286.4,166.7 286.6,167.5 286.7,168.3 
				286.9,169.1 287,169.9 287.2,170.7 287.3,171.6 287.5,172.5 287.2,172.1 286.9,171.6 286.5,171.1 286.1,170.6 285.7,170.1 
				285.2,169.7 284.7,169.3 284.2,168.8 283.7,168.4 283.1,168 281.9,167.2 280.7,166.6 279.4,166 278.2,165.4 276.9,164.9 
				275.7,164.5 274.5,164.2 273.3,163.9 272.1,163.6 271,163.5 269.9,163.3 268.9,163.2 267.9,163.2 266.9,163.1 266,163.1 
				265.1,163.2 264.3,163.3 263.5,163.3 262.7,163.4 262,163.6 261.3,163.7 260.6,163.9 260,164.2 259.4,164.4 258.7,164.6 
				258.2,164.9 257.6,165.2 257.1,165.6 256.5,165.9 256,166.3 255.5,166.8 255,167.2 254.5,167.6 254.1,168.1 253.6,168.6 
				252.7,169.7 251.8,170.8 251,172 250.2,173.2 249.4,174.4 248.7,175.7 248,176.9 247.4,178.2 246.8,179.5 246.2,180.8 
				245.7,182.1 245.2,183.5 244.7,184.8 244.2,186.2 243.8,187.7 243.3,189.2 242.9,190.8 242.6,192.5 242.4,193.4 242.3,194.2 
				242.1,195.1 242,196.1 241.9,197 241.8,198 241.7,199 241.6,200 241.4,202 241.4,204.1 241.4,206.2 241.4,208.4 241.5,210.5 
				241.6,212.6 241.8,214.7 242,216.8 242.2,218.8 242.3,219.7 242.5,220.7 242.6,221.5 242.7,222.5 242.9,223.3 243,224.2 
				243.2,224.9 243.4,225.7 243.5,226.4 243.7,227.2 243.9,227.9 244.1,228.5 244.3,229.1 244.5,229.8 244.7,230.3 244.9,230.9 
				245.1,231.4 245.3,231.8 245.5,232.3 245.7,232.7 246,233.1 246.2,233.5 246.4,233.9 246.7,234.2 246.9,234.5 247.2,234.8 
				247.4,235.1 247.7,235.3 248.2,235.7 248.7,236 249.2,236.3 249.7,236.5 250.2,236.6 250.6,236.7 251.1,236.7 251.5,236.6 
				251.9,236.5 252.3,236.3 252.7,236 253,235.7 253.3,235.4 253.6,234.9 253.9,234.5 254.1,234 254.4,233.4 254.6,232.8 
				254.8,232.2 254.9,231.6 255.1,230.9 255.3,230.1 255.4,229.4 255.6,228.6 255.7,227.8 255.9,226.9 256,226 256.2,225.1 
				256.4,224.2 256.7,223.2 256.9,222.2 257.2,221.3 257.5,220.3 257.9,219.3 258.2,218.4 258.6,217.5 259.1,216.6 259.6,215.8 
				260.1,215 260.1,215 260.7,214.3 261,214 261.3,213.7 261.7,213.4 262,213.1 262.4,212.8 262.8,212.6 263.3,212.3 263.7,212.1 
				264.2,211.9 264.6,211.8 265.1,211.6 265.7,211.4 266.2,211.3 266.7,211.2 267.8,211 269,210.8 270.2,210.7 271.4,210.7 
				272.6,210.7 273.9,210.7 275.1,210.8 276.3,210.9 277.4,211 278.5,211.2 279.6,211.5 280.7,211.7 281.7,212 282.8,212.4 
				283.8,212.8 284.8,213.3 285.9,213.9 286.9,214.5 287.9,215.1 289,215.9 290,216.7 291,217.5 292,218.4 292.9,219.4 293.9,220.4 
				294.8,221.5 295.7,222.5 296.4,223.7 297.2,224.8 297.5,225.4 297.8,225.9 298.1,226.6 298.3,227.2 298.6,227.7 298.8,228.3 
				299,228.9 299.1,229.5 299.3,230 299.4,230.6 299.4,231.2 299.5,231.7 299.5,232.3 299.5,232.9 299.5,233.4 299.5,234 
				299.4,234.5 299.3,235.1 299,236.1 298.7,237.2 298.3,238.2 297.9,239.2 297.4,240.1 296.9,241 296.3,241.9 295.8,242.7 
				295.2,243.4 294.7,244.1 294.2,244.7 293.7,245.2 293.2,245.7 292.7,246.1 292.3,246.4 291.9,246.6 291.5,246.8 291.2,246.9 
				290.8,246.9 290.5,247 290.1,247 289.8,246.9 289.5,246.9 289.2,246.8 288.5,246.5 287.2,246 286.4,245.8 286.1,245.7 
				285.8,245.7 285.4,245.7 285.1,245.7 284.7,245.7 284.4,245.9 284,246 283.7,246.3 283.3,246.5 283,246.8 282.6,247.1 
				282.2,247.5 281.6,248.3 280.9,249.1 280.6,249.6 280.3,250 280.1,250.4 280,250.9 279.8,251.4 279.8,251.9 279.8,252.4 
				279.8,252.6 279.9,252.9 280,253.2 280.1,253.5 280.2,253.8 280.4,254.1 280.6,254.4 280.8,254.8 281,255.2 281.3,255.6 
				281.3,255.6 281.6,256 281.9,256.4 282.2,256.9 282.6,257.3 283,257.8 283.4,258.3 283.9,258.9 284.4,259.4 284.9,260 
				285.5,260.6 286.1,261.2 286.7,261.8 287.4,262.4 288,263 288.8,263.7 289.6,264.3 290.4,265 291.2,265.6 292.1,266.2 293,266.9 
				294,267.5 294.9,268.1 295.9,268.7 297,269.3 298,269.9 299.1,270.5 300.2,271.1 301.3,271.6 303.6,272.7 305.9,273.6 
				308.3,274.6 310.6,275.4 313,276.2 315.3,276.9 317.6,277.6 318.7,277.8 319.8,278.1 321,278.4 322.1,278.6 323.2,278.8 
				324.4,279 325.5,279.1 326.6,279.2 327.8,279.3 328.9,279.4 330.1,279.4 331.3,279.4 332.5,279.3 333.7,279.2 334.9,279.1 
				336.1,278.9 337.4,278.7 338.6,278.4 339.9,278 341.2,277.7 342.5,277.2 343.8,276.7 345.1,276.2 346.4,275.5 347.8,274.8 
				349.1,274.1 350.5,273.3 351.8,272.4 353.2,271.5 354.6,270.5 356,269.5 357.5,268.4 358.9,267.3 360.4,266.2 361.9,265 
				363.5,263.8 365.2,262.6 366.8,261.4 368.6,260.2 370.4,259 372.3,257.8 373.2,257.2 374.2,256.7 375.3,256.2 376.3,255.6 
				377.3,255.1 378.4,254.6 379.5,254.2 380.6,253.7 381.6,253.3 382.8,252.9 383.9,252.5 385.1,252.2 386.2,251.9 387.4,251.7 
				388.6,251.5 389.2,251.3 389.5,251.3 389.9,251.3 390.1,251.3 390.4,251.2 390.7,251.2 391,251.2 391.3,251.2 391.7,251.1 
				392.1,251.1 392.6,251.1 393.2,251 393.8,251 394.2,251 394.6,251 395,250.9 395.4,250.9 395.9,250.9 396.3,250.9 396.8,250.9 
				397.4,250.8 			"/>
		</g>
		<g>
			<polygon class="colora st7l31v2" points="399.9,20.5 399.9,0.5 0.4,0.5 0.4,400 20.4,400 97.8,400 149.9,400 167.9,400 220,400 250.7,400 
				275.6,400 360,400 380,400 399.9,400 399.9,380 399.9,360.1 399.9,275.7 399.9,250.7 399.9,220 399.9,168 399.9,149.9 
				399.9,97.9 			"/>
			<line class="colora st7l31v2" x1="380" y1="380" x2="399.9" y2="380"/>
			<line class="colora st7l31v2" x1="360" y1="360.1" x2="399.9" y2="360.1"/>
			<line class="colora st7l31v2" x1="399.9" y1="20.5" x2="20.4" y2="20.5"/>
			<polyline class="colora st7l31v2" points="283.8,283.8 284.8,284.4 285.9,284.9 286.9,285.4 287.9,285.9 288.9,286.4 289.9,286.8 
				290.9,287.3 291.8,287.7 293.7,288.6 295.5,289.3 297.2,290.1 298.9,290.7 300.5,291.3 302.1,291.9 303.6,292.4 305.1,292.9 
				306.6,293.4 308,293.8 309.4,294.2 310.7,294.5 312,294.8 313.3,295.1 314.5,295.4 315.8,295.6 317,295.8 318.2,296 319.3,296.1 
				320.5,296.3 321.6,296.4 322.7,296.5 323.8,296.6 324.8,296.6 325.9,296.7 326.9,296.7 329,296.7 330.9,296.7 332.9,296.6 
				334.7,296.5 336.6,296.4 338.4,296.2 340.1,296 341.8,295.7 343.4,295.4 345,295.1 346.6,294.8 348.1,294.5 349.6,294.1 
				351.1,293.7 352.4,293.3 353.8,292.9 355.1,292.5 356.4,292 357.6,291.6 358.9,291.1 360,290.6 361.2,290.1 362.3,289.6 
				363.4,289.1 364.4,288.6 365.5,288.1 366.5,287.6 368.5,286.4 370.4,285.3 372.4,284.1 374.3,282.9 376.2,281.7 377.2,281 
				378.3,280.4 379.5,279.7 380,279.4 380.6,279.1 381.3,278.8 382,278.5 382.7,278.2 383.5,277.9 384.3,277.6 385.2,277.3 
				386.2,277.1 386.7,276.9 387.2,276.8 387.8,276.7 388.4,276.6 389,276.5 389.6,276.3 390.3,276.3 391,276.2 391.7,276.1 
				392.4,276 393.2,275.9 394.1,275.9 394.9,275.8 395.9,275.8 396.8,275.7 397.8,275.7 398.9,275.7 			"/>
			<line class="colora st7l31v2" x1="398.9" y1="275.7" x2="399.9" y2="275.7"/>
			<line class="colora st7l31v2" x1="399.8" y1="220" x2="373.7" y2="194"/>
			<line class="colora st7l31v2" x1="399.8" y1="97.9" x2="373.7" y2="123.9"/>
			<polyline class="colora st7l31v2" points="390.8,158.9 364.6,132.9 338.4,158.9 			"/>
			<line class="colora st7l31v2" x1="399.8" y1="149.9" x2="373.7" y2="123.9"/>
			<line class="colora st7l31v2" x1="390.8" y1="158.9" x2="364.6" y2="185"/>
			<line class="colora st7l31v2" x1="399.8" y1="168" x2="373.7" y2="194"/>
			<line class="colora st7l31v2" x1="364.6" y1="185" x2="338.4" y2="158.9"/>
			<polyline class="colora st7l31v2" points="283.8,283.8 284.3,284.9 284.8,285.9 285.4,287 285.9,288 286.3,289 286.8,290 287.2,290.9 
				287.7,291.9 288.5,293.7 289.3,295.5 290,297.3 290.7,299 291.3,300.6 291.9,302.1 292.4,303.7 292.9,305.2 293.3,306.6 
				293.7,308 294.1,309.4 294.4,310.8 294.8,312.1 295,313.4 295.3,314.6 295.5,315.8 295.7,317.1 295.9,318.2 296.1,319.4 
				296.2,320.5 296.3,321.6 296.4,322.8 296.5,323.9 296.6,324.9 296.6,326 296.6,327 296.7,329 296.6,331 296.6,333 296.4,334.8 
				296.3,336.6 296.1,338.4 			"/>
			<polyline class="colora st7l31v2" points="296.1,338.4 295.9,340.1 295.7,341.8 295.4,343.5 295.1,345.1 294.7,346.7 294.4,348.2 
				294.1,349.7 293.7,351.1 293.3,352.5 292.8,353.9 292.4,355.2 292,356.5 291.5,357.7 291,358.9 290.6,360.1 290.1,361.2 
				289.6,362.4 289.1,363.5 288.5,364.5 288,365.6 287.5,366.6 286.4,368.6 285.3,370.5 284.1,372.4 282.9,374.3 281.6,376.3 
				281,377.3 280.3,378.4 279.7,379.5 279.4,380.1 279.1,380.7 278.7,381.4 278.4,382 278.1,382.8 277.8,383.5 277.5,384.4 
				277.3,385.3 277,386.2 276.9,386.7 276.8,387.3 276.6,387.8 276.5,388.4 276.4,389 276.3,389.7 276.2,390.3 276.1,391 276,391.8 
				276,392.5 275.9,393.3 275.8,394.1 275.8,395 275.7,395.9 275.7,396.9 275.7,397.9 275.6,398.9 275.6,400 			"/>
			<polyline class="colora st7l31v2" points="399.9,250.7 399.3,250.7 398.6,250.8 398,250.8 397.4,250.8 396.8,250.9 396.3,250.9 395.9,250.9 
				395.4,250.9 395,250.9 394.6,251 394.2,251 393.8,251 393.2,251 392.6,251.1 392.1,251.1 391.7,251.1 391.3,251.2 391,251.2 
				390.7,251.2 390.4,251.2 390.1,251.3 389.9,251.3 389.5,251.3 389.2,251.3 388.6,251.5 387.4,251.7 386.2,251.9 385.1,252.2 
				383.9,252.5 382.8,252.9 381.6,253.3 380.6,253.7 379.5,254.2 378.4,254.6 377.3,255.1 376.3,255.6 375.3,256.2 374.2,256.7 
				373.2,257.2 372.3,257.8 370.4,259 368.6,260.2 366.8,261.4 365.2,262.6 363.5,263.8 361.9,265 360.4,266.2 358.9,267.3 
				357.5,268.4 356,269.5 354.6,270.5 353.2,271.5 351.8,272.4 350.5,273.3 349.1,274.1 347.8,274.8 346.4,275.5 345.1,276.2 
				343.8,276.7 342.5,277.2 341.2,277.7 339.9,278 338.6,278.4 337.4,278.7 336.1,278.9 334.9,279.1 333.7,279.2 332.5,279.3 
				331.3,279.4 330.1,279.4 328.9,279.4 327.8,279.3 326.6,279.2 325.5,279.1 324.4,279 323.2,278.8 322.1,278.6 321,278.4 
				319.8,278.1 318.7,277.8 317.6,277.6 315.3,276.9 313,276.2 310.6,275.4 308.3,274.6 305.9,273.6 303.6,272.7 301.3,271.6 
				300.2,271.1 299.1,270.5 298,269.9 297,269.3 295.9,268.7 294.9,268.1 294,267.5 293,266.9 292.1,266.2 291.2,265.6 290.4,265 
				289.6,264.3 288.8,263.7 288,263 287.4,262.4 286.7,261.8 286.1,261.2 285.5,260.6 284.9,260 284.4,259.4 283.9,258.9 
				283.4,258.3 283,257.8 282.6,257.3 282.2,256.9 281.9,256.4 281.6,256 281.3,255.6 			"/>
			<polyline class="colora st7l31v2" points="281.3,255.6 281,255.2 280.8,254.8 280.6,254.4 280.4,254.1 280.2,253.8 280.1,253.5 280,253.2 
				279.9,252.9 279.8,252.6 279.8,252.4 279.8,251.9 279.8,251.4 280,250.9 280.1,250.4 280.3,250 280.6,249.6 280.9,249.1 
				281.6,248.3 282.2,247.5 282.6,247.1 283,246.8 283.3,246.5 283.7,246.3 284,246 284.4,245.9 284.7,245.7 285.1,245.7 
				285.4,245.7 285.8,245.7 286.1,245.7 286.4,245.8 287.2,246 288.5,246.5 289.2,246.8 289.5,246.9 289.8,246.9 290.1,247 
				290.5,247 290.8,246.9 291.2,246.9 291.5,246.8 291.9,246.6 292.3,246.4 292.7,246.1 293.2,245.7 293.7,245.2 294.2,244.7 
				294.7,244.1 295.2,243.4 295.8,242.7 296.3,241.9 296.9,241 297.4,240.1 297.9,239.2 298.3,238.2 298.7,237.2 299,236.1 
				299.3,235.1 299.4,234.5 299.5,234 299.5,233.4 299.5,232.9 299.5,232.3 299.5,231.7 299.4,231.2 299.4,230.6 299.3,230 
				299.1,229.5 299,228.9 298.8,228.3 298.6,227.7 298.3,227.2 298.1,226.6 297.8,225.9 297.5,225.4 297.2,224.8 296.4,223.7 
				295.7,222.5 294.8,221.5 293.9,220.4 292.9,219.4 292,218.4 291,217.5 290,216.7 289,215.9 287.9,215.1 286.9,214.5 285.9,213.9 
				284.8,213.3 283.8,212.8 282.8,212.4 281.7,212 280.7,211.7 279.6,211.5 278.5,211.2 277.4,211 276.3,210.9 275.1,210.8 
				273.9,210.7 272.6,210.7 271.4,210.7 270.2,210.7 269,210.8 267.8,211 266.7,211.2 266.2,211.3 265.7,211.4 265.1,211.6 
				264.6,211.8 264.2,211.9 263.7,212.1 263.3,212.3 262.8,212.6 262.4,212.8 262,213.1 261.7,213.4 261.3,213.7 261,214 
				260.7,214.3 260.1,215 			"/>
			<polyline class="colora st7l31v2" points="260.1,215 259.6,215.8 259.1,216.6 258.6,217.5 258.2,218.4 257.9,219.3 257.5,220.3 257.2,221.3 
				256.9,222.2 256.7,223.2 256.4,224.2 256.2,225.1 256,226 255.9,226.9 255.7,227.8 255.6,228.6 255.4,229.4 255.3,230.1 
				255.1,230.9 254.9,231.6 254.8,232.2 254.6,232.8 254.4,233.4 254.1,234 253.9,234.5 253.6,234.9 253.3,235.4 253,235.7 
				252.7,236 252.3,236.3 251.9,236.5 251.5,236.6 251.1,236.7 250.6,236.7 250.2,236.6 249.7,236.5 249.2,236.3 248.7,236 
				248.2,235.7 247.7,235.3 247.4,235.1 247.2,234.8 246.9,234.5 246.7,234.2 246.4,233.9 246.2,233.5 246,233.1 245.7,232.7 
				245.5,232.3 245.3,231.8 245.1,231.4 244.9,230.9 244.7,230.3 244.5,229.8 244.3,229.1 244.1,228.5 243.9,227.9 243.7,227.2 
				243.5,226.4 243.4,225.7 243.2,224.9 243,224.2 242.9,223.3 242.7,222.5 242.6,221.5 242.5,220.7 242.3,219.7 242.2,218.8 
				242,216.8 241.8,214.7 241.6,212.6 241.5,210.5 241.4,208.4 241.4,206.2 241.4,204.1 241.4,202 241.6,200 241.7,199 241.8,198 
				241.9,197 242,196.1 242.1,195.1 242.3,194.2 242.4,193.4 242.6,192.5 242.9,190.8 243.3,189.2 243.8,187.7 244.2,186.2 
				244.7,184.8 245.2,183.5 245.7,182.1 246.2,180.8 246.8,179.5 247.4,178.2 248,176.9 248.7,175.7 249.4,174.4 250.2,173.2 
				251,172 251.8,170.8 252.7,169.7 253.6,168.6 254.1,168.1 254.5,167.6 255,167.2 255.5,166.8 256,166.3 256.5,165.9 257.1,165.6 
				257.6,165.2 258.2,164.9 258.7,164.6 259.4,164.4 260,164.2 260.6,163.9 261.3,163.7 262,163.6 262.7,163.4 263.5,163.3 
				264.3,163.3 			"/>
			<polyline class="colora st7l31v2" points="264.3,163.3 265.1,163.2 266,163.1 266.9,163.1 267.9,163.2 268.9,163.2 269.9,163.3 271,163.5 
				272.1,163.6 273.3,163.9 274.5,164.2 275.7,164.5 276.9,164.9 278.2,165.4 279.4,166 280.7,166.6 281.9,167.2 283.1,168 
				283.7,168.4 284.2,168.8 284.7,169.3 285.2,169.7 285.7,170.1 286.1,170.6 286.5,171.1 286.9,171.6 287.2,172.1 287.5,172.5 
				287.3,171.6 287.2,170.7 287,169.9 286.9,169.1 286.7,168.3 286.6,167.5 286.4,166.7 286.3,166 286.1,165.2 286,164.6 
				285.7,163.3 285.4,162 285,160.8 284.7,159.8 284.4,158.7 284.1,157.7 283.8,156.8 283.4,155.9 283.1,155.1 282.8,154.3 
				282.4,153.5 282.1,152.8 281.8,152.1 281.4,151.5 281.1,150.8 280.7,150.2 280.4,149.6 279.7,148.6 278.9,147.5 278.2,146.5 
				277.4,145.6 276.6,144.7 275.9,143.9 275,143.1 274.1,142.4 273.3,141.7 272.4,141 271.5,140.3 270.6,139.7 269.8,139.1 
				268.9,138.6 268,138 267.2,137.5 266.3,137.1 265.5,136.6 264.8,136.2 264.1,135.8 263.4,135.5 262.7,135.1 262.1,134.8 
				261.6,134.6 261.1,134.3 260.6,134 260.2,133.8 259.9,133.6 259.6,133.4 259.4,133.2 259.2,133 259.1,132.8 259,132.6 
				258.9,132.3 258.9,132.1 259,131.9 259.1,131.6 259.2,131.3 259.3,131 259.5,130.6 259.7,130.3 259.9,129.9 260.1,129.5 
				260.4,129 260.7,128.5 261,128.1 261.3,127.5 261.6,127 261.9,126.4 262.5,125.2 263.2,124 263.7,122.7 264.2,121.4 264.7,120 
				264.9,119.3 265.1,118.7 265.3,118 265.4,117.3 265.5,116.7 265.6,116.1 265.6,115.4 265.7,114.8 265.7,114.2 265.6,113.6 
				265.6,113.1 265.5,112.5 			"/>
			<polyline class="colora st7l31v2" points="265.5,112.5 265.4,112 265.3,111.5 265.2,111 265,110.5 264.8,110 264.7,109.6 264.2,108.8 
				263.8,107.9 263.3,107.2 262.8,106.5 262.3,105.8 261.9,105.2 261.5,104.6 261,103.9 260.7,103.3 260.3,102.7 260,102.1 
				259.8,101.4 259.6,100.8 259.4,100.2 259.3,99.5 259.2,98.8 259.2,98.2 259.2,97.4 259.3,96.7 259.4,96 259.6,95.2 259.8,94.5 
				260.1,93.6 260.5,92.9 260.9,92 261.3,91.2 262.3,89.5 262.7,88.6 263.2,87.8 263.6,87 263.8,86.6 263.9,86.3 264.1,86 
				264.1,85.6 264.2,85.4 264.2,85.1 264.2,84.9 264.2,84.7 264.1,84.5 264.1,84.4 263.9,84.3 263.7,84.3 263.5,84.2 263.2,84.2 
				262.9,84.3 262.6,84.3 262.2,84.4 261.9,84.5 261.4,84.7 261,84.8 260.1,85.2 259.2,85.6 258.2,86.1 256.3,87 255.4,87.5 
				254.5,87.9 253.7,88.3 252.9,88.7 252.1,89 251.3,89.3 250.6,89.6 249.9,89.7 249.1,89.8 248.4,89.9 247.7,90 246.9,90 
				246.2,89.9 245.4,89.9 244.6,89.8 243.8,89.7 243,89.6 242.1,89.4 241.2,89.3 240.3,89.1 239.4,89 238.4,88.9 237.5,88.8 
				236.5,88.8 235.5,88.9 235,88.9 234.4,89 233.9,89.1 233.4,89.2 232.8,89.4 232.3,89.6 231.8,89.8 231.2,90.1 230.6,90.5 
				230.1,90.9 229.5,91.3 228.9,91.8 228.3,92.3 227.7,93 227.2,93.6 226.5,94.4 226,95.3 225.4,96.2 224.8,97.2 224.2,98.3 
				223.7,99.5 223.2,100.7 222.8,102 222.6,102.7 222.4,103.3 222.3,104 222.2,104.7 222.1,105.4 222,106.1 221.5,104.8 221,103.6 
				220.4,102.4 219.9,101.3 219.3,100.2 218.8,99.2 			"/>
			<polyline class="colora st7l31v2" points="218.8,99.2 218.2,98.3 217.7,97.4 217.1,96.5 216.5,95.6 216,94.8 215.4,94.1 214.8,93.3 
				214.2,92.6 213.6,92 213,91.3 212.3,90.7 211.7,90.1 211.1,89.5 210.4,89 209.8,88.4 209.1,87.9 207.8,86.9 206.5,86.1 
				205.2,85.3 203.8,84.6 202.4,83.9 201.1,83.4 199.8,82.9 198.4,82.5 197.8,82.3 197.1,82.2 196.4,82 195.8,81.9 195.1,81.8 
				194.5,81.8 193.8,81.8 193.2,81.7 192.5,81.7 191.9,81.8 191.3,81.8 190.7,81.9 190.1,82 189.5,82.1 188.9,82.3 188.3,82.5 
				187.8,82.7 187.3,82.9 186.8,83.1 186.3,83.4 185.8,83.7 185.4,84.1 185,84.5 184.7,84.9 184.3,85.3 184,85.7 184.8,85.8 
				185.6,85.8 186.3,86 187,86.1 187.6,86.3 188.2,86.4 188.8,86.6 189.4,86.8 189.9,87.1 190.4,87.4 191,87.6 191.4,87.9 
				191.9,88.2 192.3,88.6 193.2,89.3 194,90 194.8,90.8 195.5,91.6 196.1,92.5 196.8,93.3 197.4,94.2 197.9,95.2 198.5,96.1 
				198.9,97 199.4,98 199.9,99 200.3,100 200.6,101 201,102 201.3,102.9 201.6,103.9 201.9,104.9 202.1,105.9 202.3,106.9 
				202.5,107.9 202.7,108.8 202.9,109.7 203,110.6 203.1,111.6 203.2,112.5 203.2,113.3 203.3,114.2 203.3,115 203.4,115.9 
				203.4,116.7 203.4,117.4 203.4,118.2 203.3,118.9 203.3,119.7 203.2,121.1 203.1,122.4 202.9,123.7 202.8,124.9 202.6,126 
				202.4,127.1 202.3,128.2 202.2,129.2 202.1,130.2 202,131.3 202,132.3 202,133.3 202.1,134.4 202.3,135.4 202.5,136.5 
				202.8,137.6 203.2,138.7 203.6,139.9 204.1,141.1 204.7,142.4 205.3,143.6 			"/>
			<polyline class="colora st7l31v2" points="205.3,143.6 206,144.9 206.7,146.2 207.4,147.6 208.2,148.9 209.7,151.6 211.3,154.4 212.7,157.1 
				213.4,158.4 214.1,159.8 214.8,161.1 215.4,162.4 216.1,163.6 216.6,164.9 217.1,166.1 217.6,167.3 218,168.5 218.3,169.6 
				218.6,170.7 218.8,171.8 218.9,172.8 219,173.9 219,174.8 219,175.3 218.9,175.7 218.9,176.2 218.8,176.6 218.7,177 218.6,177.4 
				218.5,177.8 218.3,178.2 218.2,178.5 218,178.8 217.8,179.2 217.6,179.5 217.3,179.8 217.1,180 216.9,180.3 216.6,180.5 
				216.3,180.7 216,180.9 215.7,181.1 215.4,181.3 215,181.4 214.6,181.5 214.3,181.7 213.9,181.7 213.5,181.8 213.1,181.9 
				212.6,181.9 212.2,181.9 211.8,181.9 211.3,181.8 210.8,181.8 210.3,181.7 209.9,181.6 209.3,181.5 208.8,181.4 208.3,181.2 
				207.8,181 207.2,180.9 206.7,180.6 206.1,180.4 205.5,180.1 205,179.8 204.4,179.5 203.8,179.2 203.2,178.9 202.6,178.5 
				202,178.2 201.4,177.8 200.7,177.3 200.1,176.9 199.5,176.4 198.8,175.9 198.2,175.4 197.5,174.9 196.8,174.3 196.1,173.7 
				195.4,173.1 194.7,172.4 194,171.7 193.2,171 192.4,170.3 191.7,169.5 190.9,168.7 190.1,167.9 189.3,167 188.4,166.1 
				187.6,165.2 186.7,164.3 185.9,163.3 185,162.3 184.1,161.3 183.2,160.2 182.3,159.1 181.5,158 180.6,156.9 179.7,155.7 
				178,153.4 176.3,151 175.5,149.7 174.6,148.5 173.9,147.2 173.1,146 172.4,144.7 171.7,143.4 171,142.2 170.3,140.9 169.7,139.6 
				169.1,138.4 168.5,137.1 168,135.8 167.5,134.6 167,133.3 166.5,132 166.1,130.8 165.8,129.5 165.4,128.3 165.1,127.1 
				164.7,125.9 			"/>
			<polyline class="colora st7l31v2" points="164.7,125.9 164.4,124.7 164.2,123.5 164,122.3 163.8,121.1 163.7,120 163.6,118.9 163.5,117.8 
				163.5,116.6 163.6,115.6 163.7,114.5 163.8,113.5 164,113 164.1,112.5 164.2,112 164.4,111.5 164.6,111 164.9,110.5 165.2,110.1 
				165.5,109.6 165.9,109.2 166.2,108.8 166.7,108.3 167.2,107.9 167.8,107.5 168.4,107.1 169.1,106.8 169.8,106.4 170.6,106.1 
				171.1,105.9 171.5,105.8 172,105.6 172.5,105.5 173,105.3 173.6,105.2 174.2,105.1 174.8,105 175.4,104.8 176.1,104.7 
				175.1,103.9 174.2,103.1 173.3,102.4 172.5,101.8 171.7,101.2 170.9,100.6 170.2,100.1 169.5,99.7 168.8,99.3 168.2,98.9 
				167.5,98.6 167,98.3 166.4,98.1 165.8,97.8 165.3,97.7 164.8,97.5 164.3,97.3 163.8,97.2 163.3,97.1 162.9,97 162.1,96.9 
				161.2,96.8 160.5,96.8 159.8,96.8 159.1,96.9 158.5,97 157.9,97.1 157.3,97.2 156.7,97.4 156.2,97.5 155.7,97.7 155.2,97.8 
				154.3,98.2 153.4,98.5 152.7,98.9 151.9,99.3 151.2,99.7 150.6,100.2 150,100.6 149.5,101.1 148.9,101.6 148.5,102.1 148,102.6 
				147.6,103.2 147.2,103.7 146.8,104.3 146.5,104.8 146.1,105.5 145.8,106.1 145.6,106.7 145.3,107.3 145.1,107.9 144.8,108.6 
				144.6,109.2 144.5,109.9 144.3,110.6 144.2,111.2 144.1,112 144,112.7 144,113.3 144,114.1 144,114.8 144,115.5 144.1,116.2 
				144.2,116.9 144.3,117.6 144.3,118.2 144.5,118.8 144.6,119.4 144.7,119.9 144.9,120.5 145,120.9 145.1,121.4 145.2,121.7 
				145.4,122.1 145.5,122.4 145.5,122.6 145.6,122.8 145.6,122.9 145.7,123 145.7,123.1 145.6,123.1 			"/>
			<polyline class="colora st7l31v2" points="145.6,123.1 145.6,123.1 145.6,123 145.5,122.9 145.4,122.7 145.2,122.6 145.1,122.3 144.9,122.1 
				144.7,121.8 144.5,121.6 144.2,121.3 144,121 143.3,120.4 142.7,119.7 142,119 141.2,118.3 140.4,117.6 139.6,117 138.7,116.3 
				137.8,115.7 136.8,115.1 135.8,114.5 134.8,113.9 133.7,113.4 132.6,112.9 131.5,112.4 130.3,112 129,111.6 128.4,111.4 
				127.7,111.2 127,111.1 126.4,111 125.6,110.9 124.9,110.8 124.1,110.8 123.3,110.8 122.5,110.8 121.6,110.8 120.8,110.9 
				119.9,111 118.1,111.2 116.4,111.5 115.6,111.6 114.8,111.8 114,111.9 113.3,112 112.6,112.1 112.2,112.3 112,112.3 111.5,112.4 
				111.1,112.6 			"/>
			<polyline class="colora st7l31v2" points="250.7,400 250.7,399.3 250.7,398.7 250.7,398 250.8,397.5 250.8,396.9 250.8,396.4 250.8,395.9 
				250.8,395.4 250.9,395 250.9,394.6 250.9,394.2 250.9,393.9 251,393.2 251,392.7 251,392.2 251.1,391.8 251.1,391.4 251.1,391 
				251.1,390.7 251.1,390.5 251.2,390.2 251.2,390 251.3,389.6 251.3,389.2 251.4,388.6 251.6,387.4 251.9,386.3 252.2,385.1 
				252.5,384 252.9,382.8 253.3,381.7 253.7,380.6 254.1,379.5 254.6,378.4 255.1,377.4 255.6,376.4 256.1,375.3 256.6,374.3 
				257.2,373.3 257.7,372.3 258.9,370.5 260.1,368.6 261.3,366.9 262.5,365.2 263.7,363.6 264.9,362 266.1,360.5 267.3,359 
				268.4,357.5 269.5,356.1 270.5,354.7 271.4,353.3 272.4,351.9 273.2,350.5 274,349.2 274.8,347.8 275.5,346.5 276.1,345.2 
				276.6,343.9 277.2,342.5 277.6,341.2 			"/>
			<polyline class="colora st7l31v2" points="277.6,341.2 278,339.9 278.3,338.7 278.6,337.4 278.8,336.2 279,335 279.2,333.7 279.3,332.5 
				279.3,331.3 279.4,330.1 279.3,329 279.3,327.8 279.2,326.7 279.1,325.5 278.9,324.4 278.8,323.3 278.5,322.2 278.3,321 
				278.1,319.9 277.8,318.8 277.5,317.6 276.9,315.4 276.2,313 275.4,310.7 274.5,308.4 273.6,306 272.6,303.7 271.6,301.4 
				271,300.3 270.4,299.1 269.8,298.1 269.3,297 268.7,296 268,295 267.4,294 266.8,293.1 266.1,292.1 265.5,291.3 264.9,290.5 
				264.2,289.6 263.6,288.9 263,288.1 262.3,287.5 261.7,286.8 261.1,286.1 260.5,285.5 259.9,285 259.4,284.5 258.8,284 
				258.3,283.5 257.7,283.1 257.3,282.7 256.8,282.3 256.3,282 255.9,281.6 255.5,281.4 255.1,281.1 254.7,280.8 254.4,280.7 
				254.1,280.5 253.7,280.3 253.4,280.2 253.1,280.1 252.8,280 252.6,279.9 252.3,279.9 251.8,279.9 251.3,279.9 250.8,280 
				250.4,280.2 250,280.4 249.5,280.7 249.1,280.9 248.2,281.6 247.4,282.3 247.1,282.7 246.7,283 246.4,283.4 246.2,283.7 
				246,284.1 245.8,284.4 245.7,284.8 245.6,285.1 245.6,285.5 245.6,285.8 245.7,286.2 245.7,286.5 246,287.2 246.5,288.6 
				246.7,289.3 246.8,289.6 246.9,289.9 246.9,290.2 246.9,290.6 246.9,290.9 246.8,291.2 246.7,291.6 246.5,292 246.3,292.4 
				246,292.8 245.6,293.3 245.2,293.7 244.7,294.2 244.1,294.7 243.4,295.3 242.6,295.8 241.8,296.4 241,296.9 240.1,297.5 
				239.1,297.9 238.1,298.4 237.1,298.8 236.1,299.1 235,299.3 234.5,299.4 233.9,299.5 233.4,299.6 232.8,299.6 232.2,299.6 
				231.7,299.6 231.1,299.5 			"/>
			<polyline class="colora st7l31v2" points="231.1,299.5 231.1,299.5 230.6,299.4 230,299.3 229.4,299.2 228.8,299 228.2,298.8 227.7,298.6 
				227.1,298.4 226.5,298.1 225.9,297.8 225.3,297.6 224.8,297.2 223.6,296.5 222.5,295.7 221.4,294.9 220.3,294 219.3,293 
				218.3,292 217.4,291 216.6,290 215.8,289 215.1,288 214.4,287 213.8,285.9 213.3,284.9 212.8,283.9 212.3,282.9 212,281.8 
				211.7,280.8 211.4,279.7 211.2,278.6 211,277.5 210.8,276.3 210.7,275.1 210.7,274 210.6,272.7 210.6,271.5 210.7,270.3 
				210.8,269.1 210.9,267.9 211.1,266.8 211.2,266.2 211.4,265.7 211.5,265.2 211.7,264.7 211.8,264.2 212.1,263.8 212.3,263.3 
				212.5,262.9 212.7,262.5 213,262.1 213.3,261.8 213.6,261.4 213.9,261.1 214.2,260.7 214.9,260.1 215.7,259.6 216.5,259.1 
				217.4,258.7 218.3,258.3 219.2,257.9 220.2,257.6 221.2,257.2 222.2,257 223.1,256.7 224.1,256.5 225,256.3 226,256.1 
				226.8,255.9 227.7,255.8 228.5,255.6 229.3,255.5 230.1,255.3 230.8,255.2 231.5,255 232.2,254.8 232.8,254.6 233.4,254.4 
				233.9,254.2 234.4,254 234.9,253.7 235.3,253.4 235.7,253.1 236,252.7 236.2,252.4 236.4,252 236.5,251.6 236.6,251.2 
				236.6,250.7 236.6,250.2 236.4,249.8 236.3,249.3 236,248.7 235.7,248.3 235.2,247.7 235,247.5 234.7,247.2 234.4,247 
				234.1,246.8 233.8,246.5 233.5,246.3 233.1,246 232.7,245.8 232.2,245.6 231.8,245.4 231.3,245.1 230.8,244.9 230.2,244.7 
				229.7,244.5 229.1,244.4 228.5,244.2 227.8,244 227.1,243.8 226.4,243.6 225.7,243.4 224.9,243.3 224.1,243.1 223.3,243 
				222.4,242.8 221.5,242.7 220.6,242.5 			"/>
			<polyline class="colora st7l31v2" points="220.6,242.5 220.6,242.5 219.7,242.4 218.7,242.3 216.7,242 214.7,241.8 212.6,241.7 210.4,241.5 
				208.3,241.4 206.1,241.4 204,241.4 201.9,241.5 199.9,241.6 198.9,241.7 197.9,241.8 197,241.9 196,242 195.1,242.2 194.2,242.3 
				193.3,242.5 192.4,242.7 190.8,243 189.2,243.4 187.6,243.8 186.2,244.3 184.8,244.8 183.4,245.2 182.1,245.7 180.7,246.3 
				179.5,246.9 178.1,247.5 176.9,248.1 175.6,248.8 174.4,249.5 173.2,250.3 171.9,251.1 170.8,251.9 169.6,252.7 168.6,253.7 
				168,254.1 167.6,254.6 167.1,255.1 166.7,255.6 166.2,256.1 165.9,256.6 165.5,257.1 165.2,257.7 164.9,258.2 164.6,258.8 
				164.3,259.4 164.1,260 163.9,260.7 163.7,261.3 163.5,262.1 163.4,262.8 163.3,263.6 163.2,264.4 163.1,265.2 163.1,266.1 
				163.1,267 163.1,268 163.2,268.9 163.3,270 163.4,271.1 163.6,272.2 163.8,273.3 164.1,274.5 164.5,275.7 164.9,277 165.4,278.2 
				165.9,279.5 166.5,280.8 167.2,282 168,283.1 168.3,283.7 168.8,284.3 169.2,284.8 169.6,285.3 170.1,285.7 170.5,286.2 
				171,286.6 171.5,286.9 172,287.3 172.5,287.5 171.6,287.4 170.7,287.2 169.8,287.1 169,286.9 168.2,286.8 167.4,286.6 
				166.6,286.5 165.9,286.4 165.2,286.2 164.5,286 163.2,285.7 162,285.4 160.8,285.1 159.7,284.8 158.6,284.5 157.7,284.1 
				156.7,283.8 155.9,283.5 155,283.2 154.2,282.8 153.5,282.5 152.7,282.2 152.1,281.9 151.4,281.5 150.8,281.2 150.2,280.8 
				149.6,280.5 148.5,279.7 147.4,279 146.5,278.3 145.5,277.5 144.7,276.7 143.8,275.9 143.1,275.1 142.3,274.2 141.6,273.3 
				140.9,272.5 140.3,271.6 			"/>
			<polyline class="colora st7l31v2" points="140.3,271.6 139.7,270.7 139.1,269.8 138.5,268.9 138,268.1 137.5,267.2 137,266.4 136.5,265.6 
				136.1,264.8 135.8,264.1 135.4,263.4 135.1,262.8 134.7,262.2 134.5,261.6 134.2,261.2 134,260.7 133.7,260.3 133.5,260 
				133.3,259.7 133.1,259.5 132.9,259.3 132.7,259.1 132.5,259 132.3,259 132.1,259 131.8,259 131.5,259.1 131.2,259.2 130.9,259.4 
				130.6,259.5 130.2,259.7 129.8,260 129.4,260.2 129,260.5 128.5,260.8 128,261 127.5,261.4 126.9,261.6 126.4,262 125.2,262.6 
				123.9,263.2 122.6,263.8 121.3,264.3 119.9,264.8 119.3,265 118.6,265.2 117.9,265.3 117.3,265.5 116.6,265.5 116,265.6 
				115.3,265.7 114.7,265.7 114.2,265.7 113.6,265.7 113,265.6 112.4,265.6 111.9,265.5 111.4,265.4 110.9,265.2 110.4,265.1 
				110,264.9 109.5,264.7 108.7,264.3 107.9,263.9 107.1,263.4 106.4,262.9 105.8,262.4 105.1,261.9 104.5,261.5 103.9,261.1 
				103.2,260.7 102.6,260.4 102,260.1 101.4,259.8 100.7,259.6 100.1,259.5 99.4,259.3 98.8,259.3 98.1,259.2 97.4,259.3 
				96.6,259.3 95.9,259.5 95.2,259.7 94.4,259.9 93.6,260.2 92.8,260.5 91.9,261 91.1,261.4 89.4,262.3 88.5,262.8 87.7,263.3 
				86.9,263.7 86.5,263.8 86.2,264 85.9,264.1 85.6,264.2 85.3,264.3 85,264.3 84.8,264.3 84.6,264.3 84.5,264.2 84.3,264.1 
				84.3,263.9 84.2,263.8 84.2,263.5 84.2,263.3 84.2,263 84.3,262.6 84.3,262.3 84.5,261.9 84.6,261.5 84.8,261.1 85.1,260.2 
				85.6,259.2 86,258.3 87,256.4 87.4,255.5 87.9,254.6 88.2,253.8 88.6,252.9 89,252.1 			"/>
			<polyline class="colora st7l31v2" points="89,252.1 89.2,251.4 89.5,250.6 89.7,249.9 89.8,249.2 89.9,248.4 89.9,247.7 89.9,247 89.9,246.2 
				89.8,245.5 89.7,244.7 89.6,243.9 89.5,243 89.3,242.2 89.2,241.3 89.1,240.4 88.9,239.5 88.8,238.5 88.8,237.5 88.8,236.5 
				88.8,235.6 88.9,235 88.9,234.5 89,234 89.2,233.4 89.3,232.9 89.6,232.4 89.8,231.8 90,231.3 90.4,230.7 90.8,230.1 91.2,229.6 
				91.7,229 92.2,228.4 92.9,227.8 93.6,227.2 94.4,226.6 95.2,226 96.2,225.4 97.2,224.8 98.3,224.3 99.4,223.8 100.6,223.3 
				101.9,222.9 102.6,222.7 103.3,222.5 104,222.4 104.6,222.2 105.3,222.2 106,222.1 104.7,221.5 103.5,221 102.3,220.5 101.2,220 
				100.2,219.4 99.1,218.9 98.2,218.3 97.3,217.7 96.4,217.2 95.6,216.6 94.8,216.1 94,215.5 93.3,214.9 92.6,214.2 91.9,213.6 
				91.2,213 90.6,212.4 90,211.8 89.5,211.1 88.9,210.5 88.4,209.9 87.9,209.2 86.9,207.9 86,206.6 85.2,205.2 84.5,203.9 
				83.9,202.5 83.3,201.2 82.8,199.8 82.4,198.5 82.2,197.8 82.1,197.1 82,196.5 81.9,195.8 81.8,195.2 81.7,194.5 81.7,193.9 
				81.7,193.2 81.7,192.6 81.7,192 81.8,191.3 81.8,190.8 81.9,190.2 82.1,189.6 82.2,189 82.4,188.4 82.6,187.9 82.8,187.4 
				83.1,186.8 83.4,186.3 83.7,185.9 84,185.5 84.4,185.1 84.8,184.7 85.2,184.4 85.7,184.1 85.7,184.9 85.8,185.6 85.9,186.3 
				86,187 86.2,187.7 86.4,188.3 86.6,188.9 86.8,189.4 87,190 87.3,190.5 87.6,191 87.9,191.5 88.1,192 88.5,192.4 89.2,193.3 			
				"/>
			<polyline class="colora st7l31v2" points="89.2,193.3 89.9,194.1 90.7,194.8 91.5,195.5 92.4,196.2 93.3,196.8 94.2,197.4 95.1,198 96,198.5 
				97,199 98,199.5 98.9,199.9 99.9,200.4 100.9,200.7 101.9,201.1 102.9,201.4 103.9,201.7 104.9,202 105.8,202.2 106.8,202.4 
				107.8,202.6 108.7,202.8 109.7,202.9 110.6,203 111.5,203.2 112.4,203.2 113.3,203.3 114.2,203.4 115,203.4 115.8,203.4 
				116.6,203.4 117.4,203.4 118.1,203.4 118.9,203.4 119.6,203.4 121,203.3 122.3,203.2 123.6,203 124.8,202.8 125.9,202.7 
				127.1,202.5 128.1,202.4 129.2,202.2 130.2,202.1 131.2,202.1 132.2,202 133.3,202.1 134.3,202.1 135.3,202.3 136.4,202.6 
				137.5,202.9 138.7,203.2 139.9,203.7 141.1,204.2 142.3,204.8 143.6,205.4 144.9,206.1 146.2,206.8 147.5,207.5 148.9,208.3 
				151.6,209.8 154.3,211.3 157,212.8 158.3,213.5 159.7,214.2 161,214.9 162.3,215.5 163.6,216.1 164.8,216.7 166,217.2 
				167.2,217.6 168.4,218 169.5,218.4 170.6,218.7 171.7,218.8 172.8,219 173.8,219.1 174.7,219.1 175.2,219 175.6,219 176.1,219 
				176.5,218.8 176.9,218.8 177.3,218.7 177.7,218.5 178.1,218.4 178.4,218.2 178.8,218 179.1,217.8 179.4,217.6 179.7,217.4 
				179.9,217.2 180.2,216.9 180.5,216.6 180.7,216.4 180.9,216.1 181.1,215.7 181.2,215.4 181.4,215.1 181.5,214.7 181.6,214.3 
				181.7,214 181.7,213.5 181.8,213.1 181.8,212.7 181.8,212.3 181.8,211.8 181.8,211.4 181.7,210.9 181.7,210.4 181.5,209.9 
				181.4,209.4 181.3,208.9 181.1,208.4 181,207.8 180.8,207.3 180.6,206.7 180.3,206.2 180.1,205.6 179.8,205.1 179.5,204.5 			"/>
			<polyline class="colora st7l31v2" points="179.5,204.5 179.2,203.9 178.8,203.3 178.5,202.7 178.1,202 177.7,201.4 177.3,200.8 176.8,200.2 
				176.3,199.5 175.9,198.9 175.3,198.2 174.8,197.6 174.2,196.9 173.6,196.2 173,195.5 172.3,194.7 171.7,194 171,193.3 
				170.2,192.5 169.5,191.7 168.6,190.9 167.8,190.2 167,189.3 166.1,188.5 165.1,187.7 164.2,186.8 163.2,185.9 162.2,185.1 
				161.2,184.2 160.1,183.3 159,182.4 158,181.5 156.8,180.7 155.7,179.8 153.3,178 150.9,176.3 149.7,175.5 148.5,174.7 
				147.2,173.9 145.9,173.2 144.6,172.4 143.4,171.7 142.1,171 140.8,170.4 139.6,169.8 138.3,169.2 137,168.6 135.8,168.1 
				134.5,167.6 133.2,167.1 132,166.6 130.7,166.2 129.5,165.8 128.3,165.4 127,165.1 125.8,164.8 124.6,164.5 123.4,164.3 
				122.3,164.1 121.1,163.9 119.9,163.8 118.8,163.7 117.7,163.6 116.6,163.6 115.5,163.6 114.4,163.7 113.4,163.9 112.9,164 
				112.4,164.2 111.9,164.3 111.4,164.5 110.9,164.7 110.5,165 110,165.2 109.6,165.6 109.1,165.9 108.7,166.3 108.2,166.8 
				107.8,167.3 107.5,167.8 107.1,168.4 106.7,169.1 106.4,169.9 106,170.7 105.9,171.1 105.7,171.6 105.6,172.1 105.4,172.6 
				105.3,173.1 105.1,173.7 105,174.2 104.9,174.9 104.8,175.5 104.7,176.2 103.8,175.2 103,174.3 102.3,173.4 101.7,172.6 
				101.1,171.8 100.6,171 100.1,170.3 99.6,169.6 99.2,168.9 98.9,168.3 98.5,167.6 98.3,167 98,166.5 97.8,165.9 97.6,165.4 
				97.4,164.8 97.3,164.3 97.1,163.9 97,163.4 97,163 96.8,162.1 96.8,161.3 96.8,160.6 96.8,159.9 96.8,159.2 96.9,158.6 97,157.9 
							"/>
			<polyline class="colora st7l31v2" points="97,157.9 97.2,157.4 97.3,156.8 97.4,156.3 97.6,155.8 97.8,155.3 98.1,154.4 98.4,153.5 
				98.8,152.7 99.3,152 99.7,151.3 100.1,150.7 100.6,150.1 101.1,149.5 101.5,149 102.1,148.6 102.6,148.1 103.1,147.7 
				103.7,147.2 104.2,146.9 104.8,146.5 105.4,146.2 106,145.9 106.6,145.6 107.2,145.4 107.8,145.1 108.5,144.9 109.2,144.7 
				109.8,144.5 110.5,144.4 111.2,144.3 111.9,144.2 112.6,144.1 113.3,144.1 114,144.1 114.7,144.1 115.4,144.1 116.1,144.1 
				116.8,144.2 117.5,144.3 118.1,144.5 118.7,144.5 119.3,144.7 119.9,144.8 120.4,144.9 120.9,145.1 121.3,145.2 121.7,145.3 
				122,145.4 122.3,145.5 122.5,145.6 122.7,145.7 122.9,145.7 123,145.8 123,145.8 123,145.7 122.9,145.7 122.8,145.6 122.7,145.5 
				122.5,145.3 122.3,145.2 122.1,145 121.8,144.7 121.5,144.5 121.2,144.3 120.9,144 120.3,143.4 119.6,142.8 118.9,142 
				118.2,141.3 117.6,140.5 116.9,139.6 116.2,138.7 115.6,137.8 115,136.9 114.5,135.9 113.9,134.8 113.3,133.8 112.8,132.7 
				112.3,131.5 111.9,130.4 111.5,129.1 111.3,128.4 111.2,127.8 111,127.1 110.9,126.4 110.8,125.7 110.7,124.9 110.7,124.1 
				110.7,123.4 110.7,122.5 110.7,121.7 110.8,120.8 110.9,120 111.1,118.2 111.4,116.5 111.5,115.7 111.7,114.9 111.8,114.1 
				111.9,113.3 112.1,112.7 112.2,112.3 112.3,112.1 112.4,111.6 112.5,111.1 			"/>
			<line class="colora st7l31v2" x1="158.9" y1="390.8" x2="184.9" y2="364.6"/>
			<line class="colora st7l31v2" x1="167.9" y1="399.9" x2="194" y2="373.7"/>
			<line class="colora st7l31v2" x1="184.9" y1="364.6" x2="158.9" y2="338.5"/>
			<line class="colora st7l31v2" x1="380" y1="380" x2="380" y2="400"/>
			<line class="colora st7l31v2" x1="360" y1="360.1" x2="360" y2="400"/>
			<line class="colora st7l31v2" x1="20.4" y1="400" x2="20.4" y2="20.5"/>
			<polygon class="colora st7l31v2" points="312.4,312.5 312.6,349.4 349.5,349.4 349.3,312.5 			"/>
			<line class="colora st7l31v2" x1="220" y1="399.9" x2="194" y2="373.7"/>
			<line class="colora st7l31v2" x1="97.8" y1="399.9" x2="123.8" y2="373.7"/>
			<polyline class="colora st7l31v2" points="158.9,390.8 132.8,364.6 158.9,338.5 			"/>
			<line class="colora st7l31v2" x1="149.9" y1="399.9" x2="123.8" y2="373.7"/>
		</g>
	</g>
</g>
</svg>
